Trocchi.ufo
<glyph name="exclam" format="1">
  <advance width="856"/>
  <unicode hex="0021"/>
  <outline>
    <contour>
      <point x="471" y="451" type="line" smooth="no"/>
      <point x="399" y="451" type="line" smooth="no"/>
      <point x="305" y="1479" type="line" smooth="no"/>
      <point x="565" y="1479" type="line" smooth="no"/>
    </contour>
    <contour>
      <point x="291" y="127" type="curve" smooth="yes"/>
      <point x="291" y="209"/>
      <point x="356" y="276"/>
      <point x="438" y="276" type="curve" smooth="yes"/>
      <point x="518" y="276"/>
      <point x="588" y="209"/>
      <point x="588" y="127" type="curve" smooth="yes"/>
      <point x="588" y="47"/>
      <point x="518" y="-20"/>
      <point x="438" y="-20" type="curve" smooth="yes"/>
      <point x="356" y="-20"/>
      <point x="291" y="47"/>
    </contour>
  </outline>
</glyph>
<glyph name="quotedbl" format="1">
  <advance width="717"/>
  <unicode hex="0022"/>
  <outline>
    <contour>
      <point x="143" y="1456" type="curve" smooth="yes"/>
      <point x="143" y="1501"/>
      <point x="172" y="1536"/>
      <point x="229" y="1536" type="curve" smooth="yes"/>
      <point x="290" y="1536"/>
      <point x="313" y="1501"/>
      <point x="313" y="1456" type="curve" smooth="yes"/>
      <point x="313" y="1452"/>
      <point x="260" y="1028"/>
      <point x="260" y="1028" type="curve" smooth="yes"/>
      <point x="258" y="1012"/>
      <point x="243" y="1004"/>
      <point x="229" y="1004" type="curve" smooth="yes"/>
      <point x="213" y="1004"/>
      <point x="198" y="1012"/>
      <point x="196" y="1028" type="curve" smooth="yes"/>
      <point x="196" y="1028"/>
      <point x="143" y="1452"/>
    </contour>
    <contour>
      <point x="405" y="1456" type="curve" smooth="yes"/>
      <point x="405" y="1501"/>
      <point x="434" y="1536"/>
      <point x="491" y="1536" type="curve" smooth="yes"/>
      <point x="552" y="1536"/>
      <point x="575" y="1501"/>
      <point x="575" y="1456" type="curve" smooth="yes"/>
      <point x="575" y="1452"/>
      <point x="522" y="1028"/>
      <point x="522" y="1028" type="curve" smooth="yes"/>
      <point x="520" y="1012"/>
      <point x="505" y="1004"/>
      <point x="491" y="1004" type="curve" smooth="yes"/>
      <point x="475" y="1004"/>
      <point x="460" y="1012"/>
      <point x="458" y="1028" type="curve" smooth="yes"/>
      <point x="458" y="1028"/>
      <point x="405" y="1452"/>
    </contour>
  </outline>
</glyph>
<glyph name="numbersign" format="1">
  <advance width="1350"/>
  <unicode hex="0023"/>
  <outline>
    <contour>
      <point x="642" y="1597" type="line" smooth="no"/>
      <point x="761" y="1561" type="line" smooth="no"/>
      <point x="599" y="1073" type="line" smooth="no"/>
      <point x="925" y="1073" type="line" smooth="no"/>
      <point x="1099" y="1597" type="line" smooth="no"/>
      <point x="1217" y="1561" type="line" smooth="no"/>
      <point x="1055" y="1073" type="line" smooth="no"/>
      <point x="1289" y="1073" type="line" smooth="no"/>
      <point x="1289" y="1006" type="line" smooth="no"/>
      <point x="1033" y="1006" type="line" smooth="no"/>
      <point x="914" y="645" type="line" smooth="no"/>
      <point x="1168" y="645" type="line" smooth="no"/>
      <point x="1168" y="578" type="line" smooth="no"/>
      <point x="892" y="578" type="line" smooth="no"/>
      <point x="644" y="-170" type="line" smooth="no"/>
      <point x="525" y="-133" type="line" smooth="no"/>
      <point x="761" y="578" type="line" smooth="no"/>
      <point x="435" y="578" type="line" smooth="no"/>
      <point x="187" y="-170" type="line" smooth="no"/>
      <point x="68" y="-133" type="line" smooth="no"/>
      <point x="304" y="578" type="line" smooth="no"/>
      <point x="81" y="578" type="line" smooth="no"/>
      <point x="81" y="645" type="line" smooth="no"/>
      <point x="326" y="645" type="line" smooth="no"/>
      <point x="446" y="1006" type="line" smooth="no"/>
      <point x="202" y="1006" type="line" smooth="no"/>
      <point x="202" y="1073" type="line" smooth="no"/>
      <point x="468" y="1073" type="line" smooth="no"/>
    </contour>
    <contour>
      <point x="577" y="1006" type="line" smooth="no"/>
      <point x="457" y="645" type="line" smooth="no"/>
      <point x="783" y="645" type="line" smooth="no"/>
      <point x="903" y="1006" type="line" smooth="no"/>
    </contour>
  </outline>
</glyph>
<glyph name="ampersand" format="1">
  <advance width="1810"/>
  <unicode hex="0026"/>
  <outline>
    <contour>
      <point x="565" y="143" type="curve" smooth="yes"/>
      <point x="657" y="143"/>
      <point x="755" y="221"/>
      <point x="874" y="334" type="curve" smooth="no"/>
      <point x="635" y="690" type="line" smooth="no"/>
      <point x="373" y="520"/>
      <point x="344" y="483"/>
      <point x="344" y="342" type="curve" smooth="yes"/>
      <point x="344" y="240"/>
      <point x="422" y="143"/>
    </contour>
    <contour>
      <point x="840" y="1396" type="curve" smooth="yes"/>
      <point x="729" y="1396"/>
      <point x="631" y="1329.68"/>
      <point x="631" y="1188" type="curve" smooth="yes"/>
      <point x="631" y="1108"/>
      <point x="682" y="1002"/>
      <point x="721" y="926" type="curve" smooth="no"/>
      <point x="834" y="1014"/>
      <point x="975" y="1088"/>
      <point x="975" y="1223" type="curve" smooth="yes"/>
      <point x="975" y="1322.58"/>
      <point x="924" y="1396"/>
    </contour>
    <contour>
      <point x="1343" y="-27" type="curve" smooth="yes"/>
      <point x="1226" y="-27"/>
      <point x="1088" y="40.4035"/>
      <point x="971" y="199" type="curve" smooth="no"/>
      <point x="856" y="99.1161"/>
      <point x="752" y="-27"/>
      <point x="541" y="-27" type="curve" smooth="yes"/>
      <point x="267" y="-27"/>
      <point x="115" y="146.856"/>
      <point x="115" y="379" type="curve" smooth="yes"/>
      <point x="115" y="633"/>
      <point x="350" y="721"/>
      <point x="549" y="848" type="curve" smooth="no"/>
      <point x="479" y="963"/>
      <point x="432" y="1097"/>
      <point x="432" y="1167" type="curve" smooth="yes"/>
      <point x="432" y="1387.11"/>
      <point x="603" y="1536"/>
      <point x="823" y="1536" type="curve" smooth="yes"/>
      <point x="1007" y="1536"/>
      <point x="1147" y="1415.08"/>
      <point x="1147" y="1237" type="curve" smooth="yes"/>
      <point x="1147" y="1048"/>
      <point x="980" y="906"/>
      <point x="797" y="782" type="curve" smooth="no"/>
      <point x="1014" y="465" type="line" smooth="no"/>
      <point x="1339" y="862" type="line" smooth="no"/>
      <point x="1139" y="862" type="line" smooth="no"/>
      <point x="1139" y="958" type="line" smooth="no"/>
      <point x="1714" y="958" type="line" smooth="no"/>
      <point x="1714" y="862" type="line" smooth="no"/>
      <point x="1548" y="862" type="line" smooth="no"/>
      <point x="1106" y="334" type="line" smooth="no"/>
      <point x="1178" y="207"/>
      <point x="1290" y="137"/>
      <point x="1356" y="137" type="curve" smooth="yes"/>
      <point x="1442" y="137"/>
      <point x="1520" y="165"/>
      <point x="1520" y="375" type="curve" smooth="yes"/>
      <point x="1520" y="518" type="line" smooth="no"/>
      <point x="1651" y="518" type="line" smooth="no"/>
      <point x="1651" y="434" type="line" smooth="yes"/>
      <point x="1651" y="142.266"/>
      <point x="1591" y="-27"/>
    </contour>
  </outline>
</glyph>
<glyph name="quotesingle" format="1">
  <advance width="455"/>
  <unicode hex="0027"/>
  <outline>
    <contour>
      <point x="229" y="1004" type="curve" smooth="yes"/>
      <point x="181" y="1004"/>
      <point x="143" y="1404"/>
      <point x="143" y="1456" type="curve" smooth="yes"/>
      <point x="143" y="1501"/>
      <point x="172" y="1536"/>
      <point x="229" y="1536" type="curve" smooth="yes"/>
      <point x="290" y="1536"/>
      <point x="313" y="1501"/>
      <point x="313" y="1456" type="curve" smooth="yes"/>
      <point x="313" y="1407"/>
      <point x="273" y="1004"/>
    </contour>
  </outline>
</glyph>
<glyph name="parenleft" format="1">
  <advance width="738"/>
  <unicode hex="0028"/>
  <outline>
    <contour>
      <point x="296" y="668" type="curve" smooth="yes"/>
      <point x="296" y="306"/>
      <point x="421" y="-96"/>
      <point x="671" y="-143" type="curve" smooth="no"/>
      <point x="671" y="-229" type="line" smooth="no"/>
      <point x="272" y="-190"/>
      <point x="71" y="258"/>
      <point x="71" y="668" type="curve" smooth="yes"/>
      <point x="71" y="1076"/>
      <point x="272" y="1526"/>
      <point x="671" y="1565" type="curve" smooth="no"/>
      <point x="671" y="1479" type="line" smooth="no"/>
      <point x="421" y="1432"/>
      <point x="296" y="1028"/>
    </contour>
  </outline>
</glyph>
<glyph name="parenright" format="1">
  <advance width="737"/>
  <unicode hex="0029"/>
  <outline>
    <contour>
      <point x="443" y="668" type="curve" smooth="yes"/>
      <point x="443" y="1030"/>
      <point x="318" y="1432"/>
      <point x="68" y="1479" type="curve" smooth="no"/>
      <point x="68" y="1565" type="line" smooth="no"/>
      <point x="467" y="1526"/>
      <point x="668" y="1078"/>
      <point x="668" y="668" type="curve" smooth="yes"/>
      <point x="668" y="260"/>
      <point x="467" y="-190"/>
      <point x="68" y="-229" type="curve" smooth="no"/>
      <point x="68" y="-143" type="line" smooth="no"/>
      <point x="318" y="-96"/>
      <point x="443" y="308"/>
    </contour>
  </outline>
</glyph>
<glyph name="asterisk" format="1">
  <advance width="1454"/>
  <unicode hex="002a"/>
  <outline>
    <contour>
      <point x="1022" y="368" type="line" smooth="no"/>
      <point x="726" y="853" type="line" smooth="no"/>
      <point x="430" y="368" type="line" smooth="no"/>
      <point x="258" y="522" type="line" smooth="no"/>
      <point x="641" y="919" type="line" smooth="no"/>
      <point x="123" y="1081" type="line" smooth="no"/>
      <point x="205" y="1276" type="line" smooth="no"/>
      <point x="682" y="1003" type="line" smooth="no"/>
      <point x="616" y="1536" type="line" smooth="no"/>
      <point x="836" y="1536" type="line" smooth="no"/>
      <point x="770" y="1003" type="line" smooth="no"/>
      <point x="1247" y="1276" type="line" smooth="no"/>
      <point x="1329" y="1081" type="line" smooth="no"/>
      <point x="811" y="919" type="line" smooth="no"/>
      <point x="1194" y="522" type="line" smooth="no"/>
    </contour>
  </outline>
</glyph>
<glyph name="plus" format="1">
  <advance width="1131"/>
  <unicode hex="002b"/>
  <outline>
    <contour>
      <point x="650" y="532" type="line" smooth="no"/>
      <point x="650" y="156" type="line" smooth="no"/>
      <point x="480" y="156" type="line" smooth="no"/>
      <point x="480" y="532" type="line" smooth="no"/>
      <point x="148" y="532" type="line" smooth="no"/>
      <point x="148" y="680" type="line" smooth="no"/>
      <point x="480" y="680" type="line" smooth="no"/>
      <point x="480" y="1047" type="line" smooth="no"/>
      <point x="650" y="1047" type="line" smooth="no"/>
      <point x="650" y="680" type="line" smooth="no"/>
      <point x="982" y="680" type="line" smooth="no"/>
      <point x="982" y="532" type="line" smooth="no"/>
    </contour>
  </outline>
</glyph>
<glyph name="comma" format="1">
  <advance width="617"/>
  <unicode hex="002c"/>
  <outline>
    <contour>
      <point x="235" y="-174" type="line" smooth="no"/>
      <point x="290" y="-141"/>
      <point x="364" y="-73"/>
      <point x="364" y="-16" type="curve" smooth="yes"/>
      <point x="364" y="-6"/>
      <point x="362" y="4"/>
      <point x="356" y="12" type="curve" smooth="no"/>
      <point x="333" y="-2"/>
      <point x="303" y="-12"/>
      <point x="272" y="-12" type="curve" smooth="yes"/>
      <point x="202" y="-12"/>
      <point x="139" y="53"/>
      <point x="139" y="121" type="curve" smooth="yes"/>
      <point x="139" y="197"/>
      <point x="217" y="264"/>
      <point x="289" y="264" type="curve" smooth="yes"/>
      <point x="371" y="264"/>
      <point x="477" y="200"/>
      <point x="477" y="55" type="curve" smooth="yes"/>
      <point x="477" y="-39"/>
      <point x="428" y="-154"/>
      <point x="297" y="-244" type="curve" smooth="no"/>
      <point x="291" y="-246"/>
      <point x="287" y="-250"/>
      <point x="285" y="-252" type="curve" smooth="no"/>
    </contour>
  </outline>
</glyph>
<glyph name="hyphen" format="1">
  <advance width="889"/>
  <unicode hex="002d"/>
  <outline>
    <contour>
      <point x="735" y="547" type="line" smooth="no"/>
      <point x="153" y="547" type="line" smooth="no"/>
      <point x="153" y="684" type="line" smooth="no"/>
      <point x="735" y="684" type="line" smooth="no"/>
    </contour>
  </outline>
</glyph>
<glyph name="period" format="1">
  <advance width="589"/>
  <unicode hex="002e"/>
  <outline>
    <contour>
      <point x="146" y="127" type="curve" smooth="yes"/>
      <point x="146" y="209"/>
      <point x="211" y="276"/>
      <point x="293" y="276" type="curve" smooth="yes"/>
      <point x="373" y="276"/>
      <point x="443" y="209"/>
      <point x="443" y="127" type="curve" smooth="yes"/>
      <point x="443" y="47"/>
      <point x="373" y="-20"/>
      <point x="293" y="-20" type="curve" smooth="yes"/>
      <point x="211" y="-20"/>
      <point x="146" y="47"/>
    </contour>
  </outline>
</glyph>
<glyph name="slash" format="1">
  <advance width="819"/>
  <unicode hex="002f"/>
  <outline>
    <contour>
      <point x="637" y="1597" type="line" smooth="no"/>
      <point x="756" y="1561" type="line" smooth="no"/>
      <point x="182" y="-170" type="line" smooth="no"/>
      <point x="63" y="-133" type="line" smooth="no"/>
    </contour>
  </outline>
</glyph>
<glyph name="zero" format="1">
  <advance width="1114"/>
  <unicode hex="0030"/>
  <outline>
    <contour>
      <point x="557" y="1102" type="curve" smooth="yes"/>
      <point x="876" y="1102"/>
      <point x="1040" y="820"/>
      <point x="1040" y="539" type="curve" smooth="yes"/>
      <point x="1040" y="256"/>
      <point x="879" y="-27"/>
      <point x="557" y="-27" type="curve" smooth="yes"/>
      <point x="235" y="-27"/>
      <point x="74" y="256"/>
      <point x="74" y="539" type="curve" smooth="yes"/>
      <point x="74" y="820"/>
      <point x="238" y="1102"/>
    </contour>
    <contour>
      <point x="557" y="100" type="curve" smooth="yes"/>
      <point x="727" y="100"/>
      <point x="819" y="318"/>
      <point x="819" y="539" type="curve" smooth="yes"/>
      <point x="819" y="760"/>
      <point x="723" y="983"/>
      <point x="557" y="983" type="curve" smooth="yes"/>
      <point x="391" y="983"/>
      <point x="295" y="760"/>
      <point x="295" y="539" type="curve" smooth="yes"/>
      <point x="295" y="318"/>
      <point x="387" y="100"/>
    </contour>
  </outline>
</glyph>
<glyph name="one" format="1">
  <advance width="821"/>
  <unicode hex="0031"/>
  <outline>
    <contour>
      <point x="117" y="0" type="line" smooth="no"/>
      <point x="117" y="113" type="line" smooth="no"/>
      <point x="360" y="113" type="line" smooth="no"/>
      <point x="360" y="897" type="line" smooth="no"/>
      <point x="147" y="799" type="line" smooth="no"/>
      <point x="86" y="928" type="line" smooth="no"/>
      <point x="453" y="1073" type="line" smooth="no"/>
      <point x="575" y="1073" type="line" smooth="no"/>
      <point x="575" y="113" type="line" smooth="no"/>
      <point x="805" y="113" type="line" smooth="no"/>
      <point x="805" y="0" type="line" smooth="no"/>
    </contour>
  </outline>
</glyph>
<glyph name="two" format="1">
  <advance width="1058"/>
  <unicode hex="0032"/>
  <outline>
    <contour>
      <point x="123" y="119" type="curve" smooth="no"/>
      <point x="280" y="234"/>
      <point x="756" y="494"/>
      <point x="756" y="741" type="curve" smooth="yes"/>
      <point x="756" y="876"/>
      <point x="649" y="991"/>
      <point x="524" y="991" type="curve" smooth="yes"/>
      <point x="438" y="991"/>
      <point x="364" y="960"/>
      <point x="309" y="897" type="curve" smooth="no"/>
      <point x="352" y="885"/>
      <point x="406" y="844"/>
      <point x="406" y="772" type="curve" smooth="yes"/>
      <point x="406" y="684"/>
      <point x="342" y="627"/>
      <point x="252" y="627" type="curve" smooth="yes"/>
      <point x="132.488" y="627"/>
      <point x="86" y="713.894"/>
      <point x="86" y="795" type="curve" smooth="yes"/>
      <point x="86" y="959"/>
      <point x="299" y="1106"/>
      <point x="561" y="1106" type="curve" smooth="yes"/>
      <point x="807" y="1106"/>
      <point x="963" y="969"/>
      <point x="963" y="727" type="curve" smooth="yes"/>
      <point x="963" y="635"/>
      <point x="894" y="506"/>
      <point x="694" y="360" type="curve" smooth="yes"/>
      <point x="424" y="164" type="line" smooth="no"/>
      <point x="958" y="164" type="line" smooth="no"/>
      <point x="995" y="-137" type="line" smooth="no"/>
      <point x="926" y="-147" type="line" smooth="no"/>
      <point x="831" y="0" type="line" smooth="no"/>
      <point x="143" y="0" type="line" smooth="no"/>
      <point x="143" y="0"/>
      <point x="125" y="119"/>
    </contour>
  </outline>
</glyph>
<glyph name="three" format="1">
  <advance width="1105"/>
  <unicode hex="0033"/>
  <outline>
    <contour>
      <point x="446" y="-305" type="curve" smooth="yes"/>
      <point x="258" y="-305"/>
      <point x="90" y="-239"/>
      <point x="90" y="-102" type="curve" smooth="yes"/>
      <point x="90" y="-22"/>
      <point x="131" y="41"/>
      <point x="231" y="41" type="curve" smooth="yes"/>
      <point x="319" y="41"/>
      <point x="369" y="-32"/>
      <point x="369" y="-98" type="curve" smooth="yes"/>
      <point x="369" y="-139"/>
      <point x="348" y="-172"/>
      <point x="342" y="-195" type="curve" smooth="no"/>
      <point x="371" y="-199"/>
      <point x="397" y="-203"/>
      <point x="424" y="-203" type="curve" smooth="yes"/>
      <point x="679" y="-203"/>
      <point x="805" y="-36"/>
      <point x="805" y="127" type="curve" smooth="yes"/>
      <point x="805" y="251"/>
      <point x="762" y="385"/>
      <point x="549" y="385" type="curve" smooth="yes"/>
      <point x="509" y="385"/>
      <point x="475" y="380"/>
      <point x="432" y="373" type="curve" smooth="no"/>
      <point x="408" y="500" type="line" smooth="no"/>
      <point x="627" y="533"/>
      <point x="735" y="615"/>
      <point x="735" y="754" type="curve" smooth="yes"/>
      <point x="735" y="893"/>
      <point x="639" y="983"/>
      <point x="475" y="983" type="curve" smooth="yes"/>
      <point x="369" y="983"/>
      <point x="311" y="962"/>
      <point x="233" y="874" type="curve" smooth="no"/>
      <point x="288" y="874"/>
      <point x="383" y="847"/>
      <point x="383" y="745" type="curve" smooth="yes"/>
      <point x="383" y="659"/>
      <point x="324" y="598"/>
      <point x="238" y="598" type="curve" smooth="yes"/>
      <point x="127" y="598"/>
      <point x="63" y="688"/>
      <point x="63" y="760" type="curve" smooth="yes"/>
      <point x="63" y="982"/>
      <point x="254" y="1104"/>
      <point x="514" y="1104" type="curve" smooth="yes"/>
      <point x="809" y="1104"/>
      <point x="926" y="925"/>
      <point x="926" y="760" type="curve" smooth="yes"/>
      <point x="926" y="623"/>
      <point x="846" y="518"/>
      <point x="670" y="473" type="curve" smooth="no"/>
      <point x="924" y="446"/>
      <point x="1026" y="311"/>
      <point x="1026" y="133" type="curve" smooth="yes"/>
      <point x="1026" y="-114"/>
      <point x="806" y="-305"/>
    </contour>
  </outline>
</glyph>
<glyph name="four" format="1">
  <advance width="1099"/>
  <unicode hex="0034"/>
  <outline>
    <contour>
      <point x="643" y="150" type="line" smooth="no"/>
      <point x="643" y="924" type="line" smooth="no"/>
      <point x="268" y="150" type="line" smooth="no"/>
    </contour>
    <contour>
      <point x="1081" y="-250" type="line" smooth="no"/>
      <point x="1081" y="-387" type="line" smooth="no"/>
      <point x="403" y="-387" type="line" smooth="no"/>
      <point x="403" y="-250" type="line" smooth="no"/>
      <point x="643" y="-250" type="line" smooth="no"/>
      <point x="643" y="0" type="line" smooth="no"/>
      <point x="109" y="0" type="line" smooth="no"/>
      <point x="84" y="135" type="line" smooth="no"/>
      <point x="606" y="1087" type="line" smooth="no"/>
      <point x="858" y="1057" type="line" smooth="no"/>
      <point x="858" y="150" type="line" smooth="no"/>
      <point x="1124" y="150" type="line" smooth="no"/>
      <point x="1106" y="0" type="line" smooth="no"/>
      <point x="858" y="0" type="line" smooth="no"/>
      <point x="858" y="-250" type="line" smooth="no"/>
    </contour>
  </outline>
</glyph>
<glyph name="five" format="1">
  <advance width="1085"/>
  <unicode hex="0035"/>
  <outline>
    <contour>
      <point x="459" y="612" type="curve" smooth="yes"/>
      <point x="864" y="612"/>
      <point x="1010" y="422"/>
      <point x="1010" y="169" type="curve" smooth="yes"/>
      <point x="1010" y="-82"/>
      <point x="816" y="-303"/>
      <point x="442" y="-303" type="curve" smooth="yes"/>
      <point x="254" y="-303"/>
      <point x="86" y="-237"/>
      <point x="86" y="-100" type="curve" smooth="yes"/>
      <point x="86" y="-20"/>
      <point x="127" y="43"/>
      <point x="227" y="43" type="curve" smooth="yes"/>
      <point x="315" y="43"/>
      <point x="365" y="-30"/>
      <point x="365" y="-96" type="curve" smooth="yes"/>
      <point x="365" y="-137"/>
      <point x="344" y="-163"/>
      <point x="338" y="-186" type="curve" smooth="no"/>
      <point x="367" y="-190"/>
      <point x="393" y="-195"/>
      <point x="420" y="-195" type="curve" smooth="yes"/>
      <point x="671" y="-195"/>
      <point x="787" y="-29"/>
      <point x="787" y="148" type="curve" smooth="yes"/>
      <point x="787" y="400"/>
      <point x="576" y="494"/>
      <point x="346" y="494" type="curve" smooth="yes"/>
      <point x="303" y="494"/>
      <point x="260" y="489"/>
      <point x="217" y="483" type="curve" smooth="no"/>
      <point x="158" y="555" type="line" smooth="no"/>
      <point x="233" y="1073" type="line" smooth="no"/>
      <point x="913" y="1073" type="line" smooth="no"/>
      <point x="854" y="903" type="line" smooth="no"/>
      <point x="356" y="903" type="line" smooth="no"/>
      <point x="309" y="604" type="line" smooth="no"/>
      <point x="362" y="610"/>
      <point x="412" y="612"/>
    </contour>
  </outline>
</glyph>
<glyph name="seven" format="1">
  <advance width="1042"/>
  <unicode hex="0037"/>
  <outline>
    <contour>
      <point x="975" y="922" type="line" smooth="no"/>
      <point x="475" y="-360" type="line" smooth="no"/>
      <point x="448" y="-423"/>
      <point x="399" y="-451"/>
      <point x="352" y="-451" type="curve" smooth="yes"/>
      <point x="293" y="-451"/>
      <point x="240" y="-408"/>
      <point x="240" y="-334" type="curve" smooth="yes"/>
      <point x="240" y="-311"/>
      <point x="245" y="-282"/>
      <point x="258" y="-254" type="curve" smooth="yes"/>
      <point x="813" y="932" type="line" smooth="no"/>
      <point x="283" y="932" type="line" smooth="no"/>
      <point x="283" y="688" type="line" smooth="no"/>
      <point x="98" y="688" type="line" smooth="no"/>
      <point x="98" y="1073" type="line" smooth="no"/>
      <point x="920" y="1073" type="line" smooth="no"/>
    </contour>
  </outline>
</glyph>
<glyph name="eight" format="1">
  <advance width="1234"/>
  <unicode hex="0038"/>
  <outline>
    <contour>
      <point x="618" y="-27" type="curve" smooth="yes"/>
      <point x="312" y="-27"/>
      <point x="94" y="113"/>
      <point x="94" y="332" type="curve" smooth="yes"/>
      <point x="94" y="593"/>
      <point x="361" y="719"/>
      <point x="463" y="757" type="curve" smooth="no"/>
      <point x="303" y="852"/>
      <point x="164" y="968"/>
      <point x="164" y="1163" type="curve" smooth="yes"/>
      <point x="164" y="1374"/>
      <point x="338" y="1509"/>
      <point x="623" y="1509" type="curve" smooth="yes"/>
      <point x="895" y="1509"/>
      <point x="1077" y="1344"/>
      <point x="1077" y="1143" type="curve" smooth="yes"/>
      <point x="1077" y="958"/>
      <point x="917" y="848"/>
      <point x="789" y="790" type="curve" smooth="no"/>
      <point x="969" y="686"/>
      <point x="1141" y="559"/>
      <point x="1141" y="350" type="curve" smooth="yes"/>
      <point x="1141" y="124"/>
      <point x="948" y="-27"/>
    </contour>
    <contour>
      <point x="622" y="1383" type="curve" smooth="yes"/>
      <point x="470" y="1383"/>
      <point x="348" y="1300"/>
      <point x="348" y="1151" type="curve" smooth="yes"/>
      <point x="348" y="1030"/>
      <point x="500" y="948"/>
      <point x="670" y="856" type="curve" smooth="no"/>
      <point x="759" y="899"/>
      <point x="893" y="990"/>
      <point x="893" y="1153" type="curve" smooth="yes"/>
      <point x="893" y="1267"/>
      <point x="795" y="1383"/>
    </contour>
    <contour>
      <point x="584" y="690" type="curve" smooth="no"/>
      <point x="485" y="637"/>
      <point x="313" y="523"/>
      <point x="313" y="362" type="curve" smooth="yes"/>
      <point x="313" y="188"/>
      <point x="432" y="106"/>
      <point x="612" y="106" type="curve" smooth="yes"/>
      <point x="790" y="106"/>
      <point x="932" y="174"/>
      <point x="932" y="350" type="curve" smooth="yes"/>
      <point x="932" y="505"/>
      <point x="763" y="593"/>
    </contour>
  </outline>
</glyph>
<glyph name="nine" format="1">
  <advance width="1239"/>
  <unicode hex="0039"/>
  <outline>
    <contour>
      <point x="475" y="-283" type="curve" smooth="yes"/>
      <point x="325" y="-283"/>
      <point x="207" y="-215"/>
      <point x="207" y="-115" type="curve" smooth="yes"/>
      <point x="207" y="-25"/>
      <point x="260" y="27"/>
      <point x="342" y="27" type="curve" smooth="yes"/>
      <point x="408" y="27"/>
      <point x="473" y="-31"/>
      <point x="473" y="-94" type="curve" smooth="yes"/>
      <point x="473" y="-135"/>
      <point x="465" y="-162"/>
      <point x="463" y="-178" type="curve" smooth="no"/>
      <point x="719" y="-160"/>
      <point x="880" y="117"/>
      <point x="915" y="365" type="curve" smooth="no"/>
      <point x="841" y="283"/>
      <point x="707" y="248"/>
      <point x="598" y="248" type="curve" smooth="yes"/>
      <point x="369" y="248"/>
      <point x="121" y="357"/>
      <point x="121" y="674" type="curve" smooth="yes"/>
      <point x="121" y="918"/>
      <point x="332" y="1104"/>
      <point x="602" y="1104" type="curve" smooth="yes"/>
      <point x="897" y="1104"/>
      <point x="1106" y="899"/>
      <point x="1106" y="471" type="curve" smooth="yes"/>
      <point x="1106" y="-86"/>
      <point x="766" y="-283"/>
    </contour>
    <contour>
      <point x="625" y="379" type="curve" smooth="yes"/>
      <point x="736" y="379"/>
      <point x="909" y="442"/>
      <point x="909" y="563" type="curve" smooth="yes"/>
      <point x="909" y="727"/>
      <point x="850" y="979"/>
      <point x="602" y="979" type="curve" smooth="yes"/>
      <point x="450" y="979"/>
      <point x="324" y="856"/>
      <point x="324" y="682" type="curve" smooth="yes"/>
      <point x="324" y="481"/>
      <point x="432" y="379"/>
    </contour>
  </outline>
</glyph>
<glyph name="colon" format="1">
  <advance width="588"/>
  <unicode hex="003a"/>
  <outline>
    <contour>
      <point x="146" y="922" type="curve" smooth="yes"/>
      <point x="146" y="1004"/>
      <point x="212" y="1071"/>
      <point x="294" y="1071" type="curve" smooth="yes"/>
      <point x="374" y="1071"/>
      <point x="443" y="1004"/>
      <point x="443" y="922" type="curve" smooth="yes"/>
      <point x="443" y="842"/>
      <point x="374" y="774"/>
      <point x="294" y="774" type="curve" smooth="yes"/>
      <point x="212" y="774"/>
      <point x="146" y="842"/>
    </contour>
    <contour>
      <point x="146" y="147" type="curve" smooth="yes"/>
      <point x="146" y="229"/>
      <point x="212" y="297"/>
      <point x="294" y="297" type="curve" smooth="yes"/>
      <point x="374" y="297"/>
      <point x="443" y="229"/>
      <point x="443" y="147" type="curve" smooth="yes"/>
      <point x="443" y="67"/>
      <point x="374" y="0"/>
      <point x="294" y="0" type="curve" smooth="yes"/>
      <point x="212" y="0"/>
      <point x="146" y="67"/>
    </contour>
  </outline>
</glyph>
<glyph name="semicolon" format="1">
  <advance width="590"/>
  <unicode hex="003b"/>
  <outline>
    <contour>
      <point x="139" y="131" type="curve" smooth="yes"/>
      <point x="139" y="206"/>
      <point x="213" y="268"/>
      <point x="286" y="268" type="curve" smooth="yes"/>
      <point x="371" y="268"/>
      <point x="452" y="203"/>
      <point x="452" y="70" type="curve" smooth="yes"/>
      <point x="452" y="-44"/>
      <point x="386" y="-111"/>
      <point x="274" y="-223" type="curve" smooth="no"/>
      <point x="229" y="-150" type="line" smooth="no"/>
      <point x="280" y="-119"/>
      <point x="348" y="-53"/>
      <point x="348" y="0" type="curve" smooth="yes"/>
      <point x="348" y="10"/>
      <point x="345" y="21"/>
      <point x="339" y="29" type="curve" smooth="no"/>
      <point x="319" y="15"/>
      <point x="291" y="4"/>
      <point x="262" y="4" type="curve" smooth="yes"/>
      <point x="199" y="4"/>
      <point x="139" y="68"/>
    </contour>
    <contour>
      <point x="139" y="922" type="curve" smooth="yes"/>
      <point x="139" y="1004"/>
      <point x="204" y="1071"/>
      <point x="286" y="1071" type="curve" smooth="yes"/>
      <point x="366" y="1071"/>
      <point x="436" y="1004"/>
      <point x="436" y="922" type="curve" smooth="yes"/>
      <point x="436" y="842"/>
      <point x="366" y="774"/>
      <point x="286" y="774" type="curve" smooth="yes"/>
      <point x="204" y="774"/>
      <point x="139" y="842"/>
    </contour>
  </outline>
</glyph>
<glyph name="less" format="1">
  <advance width="943"/>
  <unicode hex="003c"/>
  <outline>
    <contour>
      <point x="70" y="801" type="line" smooth="no"/>
      <point x="871" y="1155" type="line" smooth="no"/>
      <point x="871" y="989" type="line" smooth="no"/>
      <point x="226" y="711" type="line" smooth="no"/>
      <point x="871" y="449" type="line" smooth="no"/>
      <point x="871" y="279" type="line" smooth="no"/>
      <point x="70" y="604" type="line" smooth="no"/>
    </contour>
  </outline>
</glyph>
<glyph name="equal" format="1">
  <advance width="1005"/>
  <unicode hex="003d"/>
  <outline>
    <contour>
      <point x="153" y="860" type="line" smooth="no"/>
      <point x="851" y="860" type="line" smooth="no"/>
      <point x="851" y="723" type="line" smooth="no"/>
      <point x="153" y="723" type="line" smooth="no"/>
    </contour>
    <contour>
      <point x="153" y="496" type="line" smooth="no"/>
      <point x="851" y="496" type="line" smooth="no"/>
      <point x="851" y="358" type="line" smooth="no"/>
      <point x="153" y="358" type="line" smooth="no"/>
    </contour>
  </outline>
</glyph>
<glyph name="greater" format="1">
  <advance width="943"/>
  <unicode hex="003e"/>
  <outline>
    <contour>
      <point x="874" y="801" type="line" smooth="no"/>
      <point x="874" y="604" type="line" smooth="no"/>
      <point x="73" y="279" type="line" smooth="no"/>
      <point x="73" y="449" type="line" smooth="no"/>
      <point x="718" y="711" type="line" smooth="no"/>
      <point x="73" y="989" type="line" smooth="no"/>
      <point x="73" y="1155" type="line" smooth="no"/>
    </contour>
  </outline>
</glyph>
<glyph name="question" format="1">
  <advance width="1009"/>
  <unicode hex="003f"/>
  <outline>
    <contour>
      <point x="492" y="406" type="curve" smooth="no"/>
      <point x="426" y="406" type="line" smooth="no"/>
      <point x="426" y="781.575"/>
      <point x="711" y="879.1"/>
      <point x="711" y="1153" type="curve" smooth="yes"/>
      <point x="711" y="1344.52"/>
      <point x="586.903" y="1432.23"/>
      <point x="465.026" y="1432.23" type="curve" smooth="yes"/>
      <point x="376.99" y="1432.23"/>
      <point x="290.111" y="1386.46"/>
      <point x="252" y="1301" type="curve" smooth="no"/>
      <point x="307" y="1301"/>
      <point x="401" y="1274"/>
      <point x="401" y="1172" type="curve" smooth="yes"/>
      <point x="401" y="1086"/>
      <point x="342" y="1024"/>
      <point x="256" y="1024" type="curve" smooth="yes"/>
      <point x="145" y="1024"/>
      <point x="82" y="1110"/>
      <point x="82" y="1182" type="curve" smooth="yes"/>
      <point x="82" y="1411"/>
      <point x="292" y="1536"/>
      <point x="528" y="1536" type="curve" smooth="yes"/>
      <point x="666" y="1536"/>
      <point x="926" y="1449"/>
      <point x="926" y="1123" type="curve" smooth="yes"/>
      <point x="926" y="771.774"/>
      <point x="572" y="661.626"/>
    </contour>
    <contour>
      <point x="455" y="-20" type="curve" smooth="yes"/>
      <point x="373" y="-20"/>
      <point x="307" y="47"/>
      <point x="307" y="127" type="curve" smooth="yes"/>
      <point x="307" y="209"/>
      <point x="373" y="276"/>
      <point x="455" y="276" type="curve" smooth="yes"/>
      <point x="535" y="276"/>
      <point x="604" y="209"/>
      <point x="604" y="127" type="curve" smooth="yes"/>
      <point x="604" y="47"/>
      <point x="535" y="-20"/>
    </contour>
  </outline>
</glyph>
<glyph name="at" format="1">
  <advance width="1642"/>
  <unicode hex="0040"/>
  <outline>
    <contour>
      <point x="1471" y="817" type="curve" smooth="yes"/>
      <point x="1471" y="1150"/>
      <point x="1231" y="1421"/>
      <point x="897" y="1421" type="curve" smooth="yes"/>
      <point x="446" y="1421"/>
      <point x="183" y="1035"/>
      <point x="183" y="680" type="curve" smooth="yes"/>
      <point x="183" y="371.176"/>
      <point x="385" y="85"/>
      <point x="836" y="85" type="curve" smooth="yes"/>
      <point x="973" y="85"/>
      <point x="1169" y="133.319"/>
      <point x="1286" y="215" type="curve" smooth="no"/>
      <point x="1302" y="195"/>
      <point x="1348" y="140"/>
      <point x="1348" y="133" type="curve" smooth="no"/>
      <point x="1211" y="33.4931"/>
      <point x="983" y="-28"/>
      <point x="817" y="-28" type="curve" smooth="yes"/>
      <point x="316" y="-28"/>
      <point x="37" y="297.54"/>
      <point x="37" y="706" type="curve" smooth="yes"/>
      <point x="37" y="1169"/>
      <point x="440" y="1536"/>
      <point x="889" y="1536" type="curve" smooth="yes"/>
      <point x="1385" y="1536"/>
      <point x="1612" y="1154"/>
      <point x="1612" y="815" type="curve" smooth="yes"/>
      <point x="1612" y="546"/>
      <point x="1470" y="305"/>
      <point x="1208" y="305" type="curve" smooth="yes"/>
      <point x="1067" y="305"/>
      <point x="995" y="389"/>
      <point x="985" y="567" type="curve" smooth="no"/>
      <point x="922" y="422"/>
      <point x="848" y="323"/>
      <point x="643" y="323" type="curve" smooth="yes"/>
      <point x="522" y="323"/>
      <point x="381" y="405"/>
      <point x="381" y="628" type="curve" smooth="yes"/>
      <point x="381" y="899"/>
      <point x="605" y="1232"/>
      <point x="870" y="1232" type="curve" smooth="yes"/>
      <point x="925" y="1232"/>
      <point x="1071" y="1083"/>
      <point x="1071" y="1083" type="curve" smooth="no"/>
      <point x="1071" y="1083"/>
      <point x="1098" y="1158"/>
      <point x="1106" y="1183" type="curve" smooth="no"/>
      <point x="1266" y="1183" type="line" smooth="no"/>
      <point x="1259" y="1146"/>
      <point x="1149" y="563"/>
      <point x="1149" y="518" type="curve" smooth="yes"/>
      <point x="1149" y="444"/>
      <point x="1170" y="397"/>
      <point x="1233" y="397" type="curve" smooth="yes"/>
      <point x="1309" y="397"/>
      <point x="1471" y="527"/>
    </contour>
    <contour>
      <point x="557" y="651" type="curve" smooth="yes"/>
      <point x="557" y="496"/>
      <point x="649" y="442"/>
      <point x="709" y="442" type="curve" smooth="yes"/>
      <point x="832" y="442"/>
      <point x="962" y="604"/>
      <point x="985" y="702" type="curve" smooth="yes"/>
      <point x="985" y="704"/>
      <point x="1030" y="967"/>
      <point x="1032" y="981" type="curve" smooth="no"/>
      <point x="1032" y="981"/>
      <point x="930" y="1116"/>
      <point x="858" y="1116" type="curve" smooth="yes"/>
      <point x="704" y="1116"/>
      <point x="557" y="846"/>
    </contour>
  </outline>
</glyph>
<glyph name="A" format="1">
  <advance width="1662"/>
  <unicode hex="0041"/>
  <outline>
    <contour>
      <point x="635" y="143" type="line" smooth="no"/>
      <point x="635" y="0" type="line" smooth="no"/>
      <point x="8" y="0" type="line" smooth="no"/>
      <point x="8" y="143" type="line" smooth="no"/>
      <point x="188" y="143" type="line" smooth="no"/>
      <point x="715" y="1505" type="line" smooth="no"/>
      <point x="952" y="1505" type="line" smooth="no"/>
      <point x="1487" y="143" type="line" smooth="no"/>
      <point x="1655" y="143" type="line" smooth="no"/>
      <point x="1655" y="0" type="line" smooth="no"/>
      <point x="1008" y="0" type="line" smooth="no"/>
      <point x="1008" y="143" type="line" smooth="no"/>
      <point x="1231" y="143" type="line" smooth="no"/>
      <point x="1092" y="504" type="line" smooth="no"/>
      <point x="514" y="504" type="line" smooth="no"/>
      <point x="383" y="143" type="line" smooth="no"/>
    </contour>
    <contour>
      <point x="1042" y="631" type="line" smooth="no"/>
      <point x="795" y="1309" type="line" smooth="no"/>
      <point x="561" y="631" type="line" smooth="no"/>
    </contour>
  </outline>
</glyph>
<glyph name="B" format="1">
  <advance width="1445"/>
  <unicode hex="0042"/>
  <outline>
    <contour>
      <point x="514" y="862" type="line" smooth="no"/>
      <point x="731" y="862" type="line" smooth="yes"/>
      <point x="893" y="862"/>
      <point x="1077" y="924"/>
      <point x="1077" y="1100" type="curve" smooth="yes"/>
      <point x="1077" y="1336"/>
      <point x="895" y="1360"/>
      <point x="594" y="1362" type="curve" smooth="no"/>
      <point x="514" y="1362" type="line" smooth="no"/>
    </contour>
    <contour>
      <point x="514" y="143" type="line" smooth="no"/>
      <point x="633" y="143" type="line" smooth="no"/>
      <point x="967" y="144.958"/>
      <point x="1139" y="173.343"/>
      <point x="1139" y="420" type="curve" smooth="yes"/>
      <point x="1139" y="633"/>
      <point x="934" y="729"/>
      <point x="731" y="729" type="curve" smooth="yes"/>
      <point x="514" y="729" type="line" smooth="no"/>
    </contour>
    <contour>
      <point x="33" y="0" type="line" smooth="no"/>
      <point x="33" y="143" type="line" smooth="no"/>
      <point x="279" y="143" type="line" smooth="no"/>
      <point x="279" y="1362" type="line" smooth="no"/>
      <point x="33" y="1362" type="line" smooth="no"/>
      <point x="33" y="1505" type="line" smooth="no"/>
      <point x="688" y="1505" type="line" smooth="yes"/>
      <point x="932" y="1505"/>
      <point x="1294" y="1450"/>
      <point x="1294" y="1133" type="curve" smooth="yes"/>
      <point x="1294" y="957"/>
      <point x="1194" y="859"/>
      <point x="1018" y="809" type="curve" smooth="no"/>
      <point x="1243" y="754"/>
      <point x="1374" y="625"/>
      <point x="1374" y="412" type="curve" smooth="yes"/>
      <point x="1374" y="21"/>
      <point x="960" y="0"/>
      <point x="696" y="0" type="curve" smooth="yes"/>
    </contour>
  </outline>
</glyph>
<glyph name="C" format="1">
  <advance width="1447"/>
  <unicode hex="0043"/>
  <outline>
    <contour>
      <point x="817" y="1536" type="curve" smooth="yes"/>
      <point x="1089" y="1536"/>
      <point x="1370" y="1347"/>
      <point x="1370" y="1073" type="curve" smooth="yes"/>
      <point x="1370" y="991"/>
      <point x="1301" y="891"/>
      <point x="1174" y="891" type="curve" smooth="yes"/>
      <point x="1075" y="891"/>
      <point x="1004" y="952"/>
      <point x="1004" y="1057" type="curve" smooth="yes"/>
      <point x="1004" y="1172"/>
      <point x="1119" y="1217"/>
      <point x="1182" y="1217" type="curve" smooth="no"/>
      <point x="1123" y="1306.5"/>
      <point x="995" y="1396"/>
      <point x="815" y="1396" type="curve" smooth="yes"/>
      <point x="549" y="1396"/>
      <point x="348" y="1154.86"/>
      <point x="348" y="764" type="curve" smooth="yes"/>
      <point x="348" y="474"/>
      <point x="534" y="158"/>
      <point x="858" y="158" type="curve" smooth="yes"/>
      <point x="1104" y="158"/>
      <point x="1253" y="354"/>
      <point x="1296" y="522" type="curve" smooth="no"/>
      <point x="1430" y="457" type="line" smooth="no"/>
      <point x="1360" y="154"/>
      <point x="1145" y="-27"/>
      <point x="795" y="-27" type="curve" smooth="yes"/>
      <point x="372" y="-27"/>
      <point x="84" y="338"/>
      <point x="84" y="768" type="curve" smooth="yes"/>
      <point x="84" y="1212"/>
      <point x="377" y="1536"/>
    </contour>
  </outline>
</glyph>
<glyph name="D" format="1">
  <advance width="1568"/>
  <unicode hex="0044"/>
  <outline>
    <contour>
      <point x="512" y="143" type="line" smooth="no"/>
      <point x="911" y="143"/>
      <point x="1229" y="277.694"/>
      <point x="1229" y="762" type="curve" smooth="yes"/>
      <point x="1229" y="1270"/>
      <point x="883" y="1360"/>
      <point x="512" y="1360" type="curve" smooth="no"/>
    </contour>
    <contour>
      <point x="33" y="1362" type="line" smooth="no"/>
      <point x="33" y="1505" type="line" smooth="no"/>
      <point x="485" y="1505" type="line" smooth="yes"/>
      <point x="995" y="1505"/>
      <point x="1485" y="1348"/>
      <point x="1485" y="762" type="curve" smooth="yes"/>
      <point x="1485" y="219"/>
      <point x="1089" y="0"/>
      <point x="522" y="0" type="curve" smooth="yes"/>
      <point x="33" y="0" type="line" smooth="no"/>
      <point x="33" y="143" type="line" smooth="no"/>
      <point x="276" y="143" type="line" smooth="no"/>
      <point x="276" y="1362" type="line" smooth="no"/>
    </contour>
  </outline>
</glyph>
<glyph name="E" format="1">
  <advance width="1484"/>
  <unicode hex="0045"/>
  <outline>
    <contour>
      <point x="33" y="0" type="line" smooth="no"/>
      <point x="33" y="143" type="line" smooth="no"/>
      <point x="279" y="143" type="line" smooth="no"/>
      <point x="279" y="1362" type="line" smooth="no"/>
      <point x="33" y="1362" type="line" smooth="no"/>
      <point x="33" y="1505" type="line" smooth="no"/>
      <point x="1393" y="1505" type="line" smooth="no"/>
      <point x="1393" y="926" type="line" smooth="no"/>
      <point x="1212" y="926" type="line" smooth="no"/>
      <point x="1212" y="1362" type="line" smooth="no"/>
      <point x="514" y="1362" type="line" smooth="no"/>
      <point x="514" y="821" type="line" smooth="no"/>
      <point x="887" y="821" type="line" smooth="no"/>
      <point x="887" y="1067" type="line" smooth="no"/>
      <point x="1020" y="1067" type="line" smooth="no"/>
      <point x="1020" y="446" type="line" smooth="no"/>
      <point x="887" y="446" type="line" smooth="no"/>
      <point x="887" y="707" type="line" smooth="no"/>
      <point x="514" y="707" type="line" smooth="no"/>
      <point x="514" y="143" type="line" smooth="no"/>
      <point x="1212" y="143" type="line" smooth="no"/>
      <point x="1212" y="571" type="line" smooth="no"/>
      <point x="1393" y="571" type="line" smooth="no"/>
      <point x="1393" y="0" type="line" smooth="no"/>
    </contour>
  </outline>
</glyph>
<glyph name="F" format="1">
  <advance width="1409"/>
  <unicode hex="0046"/>
  <outline>
    <contour>
      <point x="33" y="0" type="line" smooth="no"/>
      <point x="33" y="143" type="line" smooth="no"/>
      <point x="276" y="143" type="line" smooth="no"/>
      <point x="276" y="1362" type="line" smooth="no"/>
      <point x="33" y="1362" type="line" smooth="no"/>
      <point x="33" y="1505" type="line" smooth="no"/>
      <point x="1374" y="1505" type="line" smooth="no"/>
      <point x="1374" y="956" type="line" smooth="no"/>
      <point x="1192" y="956" type="line" smooth="no"/>
      <point x="1192" y="1362" type="line" smooth="no"/>
      <point x="512" y="1362" type="line" smooth="no"/>
      <point x="512" y="844" type="line" smooth="no"/>
      <point x="872" y="844" type="line" smooth="no"/>
      <point x="872" y="1055" type="line" smooth="no"/>
      <point x="1010" y="1055" type="line" smooth="no"/>
      <point x="1010" y="471" type="line" smooth="no"/>
      <point x="872" y="471" type="line" smooth="no"/>
      <point x="872" y="725" type="line" smooth="no"/>
      <point x="512" y="725" type="line" smooth="no"/>
      <point x="512" y="143" type="line" smooth="no"/>
      <point x="772" y="143" type="line" smooth="no"/>
      <point x="772" y="0" type="line" smooth="no"/>
    </contour>
  </outline>
</glyph>
<glyph name="G" format="1">
  <advance width="1599"/>
  <unicode hex="0047"/>
  <outline>
    <contour>
      <point x="855" y="1536" type="curve" smooth="yes"/>
      <point x="1195" y="1536"/>
      <point x="1434" y="1331.09"/>
      <point x="1434" y="1085" type="curve" smooth="yes"/>
      <point x="1434" y="1009"/>
      <point x="1372" y="920"/>
      <point x="1262" y="920" type="curve" smooth="yes"/>
      <point x="1162" y="920"/>
      <point x="1094" y="1001"/>
      <point x="1094" y="1077" type="curve" smooth="yes"/>
      <point x="1094" y="1180"/>
      <point x="1178" y="1237"/>
      <point x="1221" y="1237" type="curve" smooth="yes"/>
      <point x="1225" y="1237" type="line" smooth="no"/>
      <point x="1133" y="1364.4"/>
      <point x="974" y="1396"/>
      <point x="874" y="1396" type="curve" smooth="yes"/>
      <point x="543" y="1396"/>
      <point x="346" y="1114.67"/>
      <point x="346" y="762" type="curve" smooth="yes"/>
      <point x="346" y="443"/>
      <point x="555" y="152"/>
      <point x="852" y="152" type="curve" smooth="yes"/>
      <point x="1067" y="152"/>
      <point x="1227" y="327"/>
      <point x="1227" y="446" type="curve" smooth="yes"/>
      <point x="1227" y="586" type="line" smooth="no"/>
      <point x="944" y="586" type="line" smooth="no"/>
      <point x="944" y="737" type="line" smooth="no"/>
      <point x="1595" y="737" type="line" smooth="no"/>
      <point x="1595" y="586" type="line" smooth="no"/>
      <point x="1432" y="586" type="line" smooth="no"/>
      <point x="1432" y="0" type="line" smooth="no"/>
      <point x="1311" y="0" type="line" smooth="no"/>
      <point x="1262" y="211" type="line" smooth="no"/>
      <point x="1168" y="25"/>
      <point x="954" y="-27"/>
      <point x="788" y="-27" type="curve" smooth="yes"/>
      <point x="313" y="-27"/>
      <point x="84" y="381"/>
      <point x="84" y="760" type="curve" smooth="yes"/>
      <point x="84" y="1164.04"/>
      <point x="371" y="1536"/>
    </contour>
  </outline>
</glyph>
<glyph name="H" format="1">
  <advance width="1654"/>
  <unicode hex="0048"/>
  <outline>
    <contour>
      <point x="1622" y="143" type="line" smooth="no"/>
      <point x="1622" y="0" type="line" smooth="no"/>
      <point x="911" y="0" type="line" smooth="no"/>
      <point x="911" y="143" type="line" smooth="no"/>
      <point x="1143" y="143" type="line" smooth="no"/>
      <point x="1143" y="725" type="line" smooth="no"/>
      <point x="512" y="725" type="line" smooth="no"/>
      <point x="512" y="143" type="line" smooth="no"/>
      <point x="741" y="143" type="line" smooth="no"/>
      <point x="741" y="0" type="line" smooth="no"/>
      <point x="33" y="0" type="line" smooth="no"/>
      <point x="33" y="143" type="line" smooth="no"/>
      <point x="276" y="143" type="line" smooth="no"/>
      <point x="276" y="1362" type="line" smooth="no"/>
      <point x="33" y="1362" type="line" smooth="no"/>
      <point x="33" y="1505" type="line" smooth="no"/>
      <point x="741" y="1505" type="line" smooth="no"/>
      <point x="741" y="1362" type="line" smooth="no"/>
      <point x="512" y="1362" type="line" smooth="no"/>
      <point x="512" y="852" type="line" smooth="no"/>
      <point x="1143" y="852" type="line" smooth="no"/>
      <point x="1143" y="1362" type="line" smooth="no"/>
      <point x="911" y="1362" type="line" smooth="no"/>
      <point x="911" y="1505" type="line" smooth="no"/>
      <point x="1622" y="1505" type="line" smooth="no"/>
      <point x="1622" y="1362" type="line" smooth="no"/>
      <point x="1378" y="1362" type="line" smooth="no"/>
      <point x="1378" y="143" type="line" smooth="no"/>
    </contour>
  </outline>
</glyph>
<glyph name="I" format="1">
  <advance width="769"/>
  <unicode hex="0049"/>
  <outline>
    <contour>
      <point x="509" y="143" type="line" smooth="no"/>
      <point x="739" y="143" type="line" smooth="no"/>
      <point x="739" y="0" type="line" smooth="no"/>
      <point x="30" y="0" type="line" smooth="no"/>
      <point x="30" y="143" type="line" smooth="no"/>
      <point x="274" y="143" type="line" smooth="no"/>
      <point x="274" y="1362" type="line" smooth="no"/>
      <point x="30" y="1362" type="line" smooth="no"/>
      <point x="30" y="1505" type="line" smooth="no"/>
      <point x="739" y="1505" type="line" smooth="no"/>
      <point x="739" y="1362" type="line" smooth="no"/>
      <point x="509" y="1362" type="line" smooth="no"/>
    </contour>
  </outline>
</glyph>
<glyph name="J" format="1">
  <advance width="1161"/>
  <unicode hex="004a"/>
  <outline>
    <contour>
      <point x="451" y="-201" type="curve" smooth="yes"/>
      <point x="199" y="-201"/>
      <point x="35" y="-51"/>
      <point x="35" y="123" type="curve" smooth="yes"/>
      <point x="35" y="242"/>
      <point x="119" y="301"/>
      <point x="205" y="301" type="curve" smooth="yes"/>
      <point x="287" y="301"/>
      <point x="371" y="243"/>
      <point x="371" y="141" type="curve" smooth="yes"/>
      <point x="371" y="61"/>
      <point x="301" y="-2"/>
      <point x="260" y="-27" type="curve" smooth="no"/>
      <point x="287" y="-66"/>
      <point x="383" y="-88"/>
      <point x="440" y="-88" type="curve" smooth="yes"/>
      <point x="645" y="-88"/>
      <point x="676" y="69"/>
      <point x="676" y="311" type="curve" smooth="yes"/>
      <point x="676" y="1362" type="line" smooth="no"/>
      <point x="395" y="1362" type="line" smooth="no"/>
      <point x="395" y="1505" type="line" smooth="no"/>
      <point x="1149" y="1505" type="line" smooth="no"/>
      <point x="1149" y="1362" type="line" smooth="no"/>
      <point x="911" y="1362" type="line" smooth="no"/>
      <point x="911" y="338" type="line" smooth="yes"/>
      <point x="911" y="45"/>
      <point x="826" y="-201"/>
    </contour>
  </outline>
</glyph>
<glyph name="K" format="1">
  <advance width="1624"/>
  <unicode hex="004b"/>
  <outline>
    <contour>
      <point x="905" y="0" type="line" smooth="no"/>
      <point x="905" y="143" type="line" smooth="no"/>
      <point x="1128" y="143" type="line" smooth="no"/>
      <point x="684" y="696" type="line" smooth="no"/>
      <point x="512" y="553" type="line" smooth="no"/>
      <point x="512" y="143" type="line" smooth="no"/>
      <point x="723" y="143" type="line" smooth="no"/>
      <point x="723" y="0" type="line" smooth="no"/>
      <point x="33" y="0" type="line" smooth="no"/>
      <point x="33" y="143" type="line" smooth="no"/>
      <point x="276" y="143" type="line" smooth="no"/>
      <point x="276" y="1362" type="line" smooth="no"/>
      <point x="33" y="1362" type="line" smooth="no"/>
      <point x="33" y="1505" type="line" smooth="no"/>
      <point x="723" y="1505" type="line" smooth="no"/>
      <point x="723" y="1362" type="line" smooth="no"/>
      <point x="512" y="1362" type="line" smooth="no"/>
      <point x="512" y="735" type="line" smooth="no"/>
      <point x="526" y="739"/>
      <point x="603" y="808"/>
      <point x="612" y="817" type="curve" smooth="yes"/>
      <point x="676" y="877"/>
      <point x="1118" y="1362"/>
      <point x="1118" y="1362" type="curve" smooth="no"/>
      <point x="889" y="1362" type="line" smooth="no"/>
      <point x="889" y="1505" type="line" smooth="no"/>
      <point x="1599" y="1505" type="line" smooth="no"/>
      <point x="1599" y="1362" type="line" smooth="no"/>
      <point x="1370" y="1362" type="line" smooth="no"/>
      <point x="862" y="825" type="line" smooth="no"/>
      <point x="1436" y="143" type="line" smooth="no"/>
      <point x="1612" y="143" type="line" smooth="no"/>
      <point x="1612" y="0" type="line" smooth="no"/>
    </contour>
  </outline>
</glyph>
<glyph name="L" format="1">
  <advance width="1290"/>
  <unicode hex="004c"/>
  <outline>
    <contour>
      <point x="1264" y="0" type="line" smooth="no"/>
      <point x="33" y="0" type="line" smooth="no"/>
      <point x="33" y="143" type="line" smooth="no"/>
      <point x="276" y="143" type="line" smooth="no"/>
      <point x="276" y="1362" type="line" smooth="no"/>
      <point x="33" y="1362" type="line" smooth="no"/>
      <point x="33" y="1505" type="line" smooth="no"/>
      <point x="741" y="1505" type="line" smooth="no"/>
      <point x="741" y="1362" type="line" smooth="no"/>
      <point x="512" y="1362" type="line" smooth="no"/>
      <point x="512" y="143" type="line" smooth="no"/>
      <point x="1077" y="143" type="line" smooth="no"/>
      <point x="1077" y="625" type="line" smooth="no"/>
      <point x="1264" y="625" type="line" smooth="no"/>
    </contour>
  </outline>
</glyph>
<glyph name="M" format="1">
  <advance width="1937"/>
  <unicode hex="004d"/>
  <outline>
    <contour>
      <point x="51" y="0" type="line" smooth="no"/>
      <point x="51" y="143" type="line" smooth="no"/>
      <point x="270" y="143" type="line" smooth="no"/>
      <point x="270" y="1362" type="line" smooth="no"/>
      <point x="33" y="1362" type="line" smooth="no"/>
      <point x="33" y="1505" type="line" smooth="no"/>
      <point x="639" y="1505" type="line" smooth="no"/>
      <point x="995" y="557" type="line" smooth="no"/>
      <point x="1327" y="1505" type="line" smooth="no"/>
      <point x="1890" y="1505" type="line" smooth="no"/>
      <point x="1890" y="1362" type="line" smooth="no"/>
      <point x="1657" y="1362" type="line" smooth="no"/>
      <point x="1657" y="143" type="line" smooth="no"/>
      <point x="1905" y="143" type="line" smooth="no"/>
      <point x="1905" y="0" type="line" smooth="no"/>
      <point x="1212" y="0" type="line" smooth="no"/>
      <point x="1212" y="143" type="line" smooth="no"/>
      <point x="1432" y="143" type="line" smooth="no"/>
      <point x="1432" y="1329" type="line" smooth="no"/>
      <point x="1042" y="258" type="line" smooth="yes"/>
      <point x="1022" y="205"/>
      <point x="996" y="182"/>
      <point x="969" y="182" type="curve" smooth="yes"/>
      <point x="938" y="182"/>
      <point x="907" y="213"/>
      <point x="891" y="252" type="curve" smooth="yes"/>
      <point x="453" y="1360" type="line" smooth="no"/>
      <point x="453" y="143" type="line" smooth="no"/>
      <point x="705" y="143" type="line" smooth="no"/>
      <point x="705" y="0" type="line" smooth="no"/>
    </contour>
  </outline>
</glyph>
<glyph name="N" format="1">
  <advance width="1720"/>
  <unicode hex="004e"/>
  <outline>
    <contour>
      <point x="694" y="143" type="line" smooth="no"/>
      <point x="694" y="0" type="line" smooth="no"/>
      <point x="33" y="0" type="line" smooth="no"/>
      <point x="33" y="143" type="line" smooth="no"/>
      <point x="274" y="143" type="line" smooth="no"/>
      <point x="274" y="1362" type="line" smooth="no"/>
      <point x="33" y="1362" type="line" smooth="no"/>
      <point x="33" y="1505" type="line" smooth="no"/>
      <point x="573" y="1505" type="line" smooth="no"/>
      <point x="1284" y="266" type="line" smooth="no"/>
      <point x="1284" y="1362" type="line" smooth="no"/>
      <point x="1040" y="1362" type="line" smooth="no"/>
      <point x="1040" y="1505" type="line" smooth="no"/>
      <point x="1704" y="1505" type="line" smooth="no"/>
      <point x="1704" y="1362" type="line" smooth="no"/>
      <point x="1475" y="1362" type="line" smooth="no"/>
      <point x="1475" y="0" type="line" smooth="no"/>
      <point x="1208" y="0" type="line" smooth="no"/>
      <point x="465" y="1292" type="line" smooth="no"/>
      <point x="465" y="143" type="line" smooth="no"/>
    </contour>
  </outline>
</glyph>
<glyph name="Q" format="1">
  <advance width="1617"/>
  <unicode hex="0051"/>
  <outline>
    <contour>
      <point x="795" y="113" type="curve" smooth="yes"/>
      <point x="858" y="113"/>
      <point x="916" y="127"/>
      <point x="965" y="152" type="curve" smooth="no"/>
      <point x="893" y="273"/>
      <point x="817" y="375"/>
      <point x="713" y="375" type="curve" smooth="yes"/>
      <point x="619" y="375"/>
      <point x="553" y="272"/>
      <point x="526" y="223" type="curve" smooth="no"/>
      <point x="596" y="153"/>
      <point x="686" y="113"/>
    </contour>
    <contour>
      <point x="766" y="502" type="curve" smooth="yes"/>
      <point x="926" y="502"/>
      <point x="1034" y="400"/>
      <point x="1120" y="289" type="curve" smooth="no"/>
      <point x="1206" y="406"/>
      <point x="1249" y="584"/>
      <point x="1249" y="752" type="curve" smooth="yes"/>
      <point x="1249" y="1069.52"/>
      <point x="1090" y="1396"/>
      <point x="795" y="1396" type="curve" smooth="yes"/>
      <point x="500" y="1396"/>
      <point x="340" y="1076.5"/>
      <point x="340" y="756" type="curve" smooth="yes"/>
      <point x="340" y="598"/>
      <point x="379" y="432"/>
      <point x="451" y="315" type="curve" smooth="no"/>
      <point x="485" y="381"/>
      <point x="572" y="502"/>
    </contour>
    <contour>
      <point x="1671" y="229" type="line" smooth="yes"/>
      <point x="1671" y="-146"/>
      <point x="1551" y="-221"/>
      <point x="1358" y="-221" type="curve" smooth="yes"/>
      <point x="1221" y="-221"/>
      <point x="1129" y="-111"/>
      <point x="1049" y="14" type="curve" smooth="no"/>
      <point x="973" y="-13"/>
      <point x="889" y="-27"/>
      <point x="795" y="-27" type="curve" smooth="yes"/>
      <point x="316" y="-27"/>
      <point x="84" y="369"/>
      <point x="84" y="754" type="curve" smooth="yes"/>
      <point x="84" y="1137"/>
      <point x="316" y="1536"/>
      <point x="795" y="1536" type="curve" smooth="yes"/>
      <point x="1272" y="1536"/>
      <point x="1505" y="1137"/>
      <point x="1505" y="754" type="curve" smooth="yes"/>
      <point x="1505" y="516"/>
      <point x="1417" y="268"/>
      <point x="1237" y="121" type="curve" smooth="no"/>
      <point x="1294" y="37"/>
      <point x="1346" y="-29"/>
      <point x="1405" y="-29" type="curve" smooth="yes"/>
      <point x="1413" y="-29" type="line" smooth="no"/>
      <point x="1493" y="-21"/>
      <point x="1550" y="86"/>
      <point x="1550" y="229" type="curve" smooth="yes"/>
      <point x="1550" y="252" type="line" smooth="no"/>
      <point x="1671" y="252" type="line" smooth="no"/>
    </contour>
  </outline>
</glyph>
<glyph name="R" format="1">
  <advance width="1583"/>
  <unicode hex="0052"/>
  <outline>
    <contour>
      <point x="1282" y="-33" type="curve" smooth="yes"/>
      <point x="1067" y="-33"/>
      <point x="1003" y="145"/>
      <point x="952" y="440" type="curve" smooth="yes"/>
      <point x="916" y="653"/>
      <point x="778" y="686"/>
      <point x="748" y="686" type="curve" smooth="yes"/>
      <point x="512" y="686" type="line" smooth="no"/>
      <point x="512" y="143" type="line" smooth="no"/>
      <point x="739" y="143" type="line" smooth="no"/>
      <point x="739" y="0" type="line" smooth="no"/>
      <point x="33" y="0" type="line" smooth="no"/>
      <point x="33" y="143" type="line" smooth="no"/>
      <point x="276" y="143" type="line" smooth="no"/>
      <point x="276" y="1362" type="line" smooth="no"/>
      <point x="33" y="1362" type="line" smooth="no"/>
      <point x="33" y="1505" type="line" smooth="no"/>
      <point x="608" y="1505" type="line" smooth="yes"/>
      <point x="905" y="1505"/>
      <point x="1323" y="1501"/>
      <point x="1323" y="1108" type="curve" smooth="yes"/>
      <point x="1323" y="866"/>
      <point x="1159" y="780"/>
      <point x="950" y="737" type="curve" smooth="no"/>
      <point x="1106" y="704"/>
      <point x="1148" y="622"/>
      <point x="1186" y="481" type="curve" smooth="yes"/>
      <point x="1230" y="315.976"/>
      <point x="1236" y="143"/>
      <point x="1343" y="143" type="curve" smooth="yes"/>
      <point x="1406" y="143"/>
      <point x="1446" y="194.455"/>
      <point x="1446" y="332" type="curve" smooth="yes"/>
      <point x="1446" y="471" type="line" smooth="no"/>
      <point x="1581" y="471" type="line" smooth="no"/>
      <point x="1581" y="324" type="line" smooth="yes"/>
      <point x="1581" y="25"/>
      <point x="1425" y="-33"/>
    </contour>
    <contour>
      <point x="512" y="836" type="line" smooth="no"/>
      <point x="637" y="836" type="line" smooth="yes"/>
      <point x="936" y="836"/>
      <point x="1112" y="897"/>
      <point x="1112" y="1090" type="curve" smooth="yes"/>
      <point x="1112" y="1307"/>
      <point x="954" y="1362"/>
      <point x="629" y="1362" type="curve" smooth="yes"/>
      <point x="512" y="1362" type="line" smooth="no"/>
    </contour>
  </outline>
</glyph>
<glyph name="S" format="1">
  <advance width="1337"/>
  <unicode hex="0053"/>
  <outline>
    <contour>
      <point x="676" y="-27" type="curve" smooth="yes"/>
      <point x="371" y="-27"/>
      <point x="59" y="86"/>
      <point x="59" y="336" type="curve" smooth="yes"/>
      <point x="59" y="451"/>
      <point x="148" y="526"/>
      <point x="240" y="526" type="curve" smooth="yes"/>
      <point x="332" y="526"/>
      <point x="399" y="442"/>
      <point x="399" y="360" type="curve" smooth="yes"/>
      <point x="399" y="268"/>
      <point x="340" y="225"/>
      <point x="258" y="215" type="curve" smooth="no"/>
      <point x="339.8" y="157"/>
      <point x="443.8" y="113.167"/>
      <point x="643" y="113" type="curve" smooth="yes"/>
      <point x="844" y="112.831"/>
      <point x="1022" y="188.423"/>
      <point x="1022" y="362" type="curve" smooth="yes"/>
      <point x="1022" y="526"/>
      <point x="893" y="580"/>
      <point x="614" y="649" type="curve" smooth="yes"/>
      <point x="198" y="752"/>
      <point x="78" y="889"/>
      <point x="78" y="1112" type="curve" smooth="yes"/>
      <point x="78" y="1356"/>
      <point x="311" y="1536"/>
      <point x="653" y="1536" type="curve" smooth="yes"/>
      <point x="864" y="1536"/>
      <point x="1217" y="1452"/>
      <point x="1217" y="1206" type="curve" smooth="yes"/>
      <point x="1217" y="1093"/>
      <point x="1158" y="1006"/>
      <point x="1047" y="1006" type="curve" smooth="yes"/>
      <point x="963" y="1006"/>
      <point x="879" y="1057"/>
      <point x="879" y="1147" type="curve" smooth="yes"/>
      <point x="879" y="1264"/>
      <point x="953" y="1303"/>
      <point x="1016" y="1303" type="curve" smooth="no"/>
      <point x="924" y="1374.94"/>
      <point x="801" y="1396"/>
      <point x="678" y="1396" type="curve" smooth="yes"/>
      <point x="492" y="1396"/>
      <point x="317" y="1306.77"/>
      <point x="317" y="1153" type="curve" smooth="yes"/>
      <point x="317" y="1049"/>
      <point x="355" y="957"/>
      <point x="668" y="887" type="curve" smooth="yes"/>
      <point x="1166" y="776"/>
      <point x="1278" y="620"/>
      <point x="1278" y="397" type="curve" smooth="yes"/>
      <point x="1278" y="137"/>
      <point x="1069" y="-27"/>
    </contour>
  </outline>
</glyph>
<glyph name="T" format="1">
  <advance width="1435"/>
  <unicode hex="0054"/>
  <outline>
    <contour>
      <point x="1079" y="143" type="line" smooth="no"/>
      <point x="1079" y="0" type="line" smooth="no"/>
      <point x="371" y="0" type="line" smooth="no"/>
      <point x="371" y="143" type="line" smooth="no"/>
      <point x="604" y="143" type="line" smooth="no"/>
      <point x="604" y="1362" type="line" smooth="no"/>
      <point x="221" y="1362" type="line" smooth="no"/>
      <point x="221" y="897" type="line" smooth="no"/>
      <point x="35" y="897" type="line" smooth="no"/>
      <point x="35" y="1505" type="line" smooth="no"/>
      <point x="1401" y="1505" type="line" smooth="no"/>
      <point x="1401" y="897" type="line" smooth="no"/>
      <point x="1214" y="897" type="line" smooth="no"/>
      <point x="1214" y="1362" type="line" smooth="no"/>
      <point x="840" y="1362" type="line" smooth="no"/>
      <point x="840" y="143" type="line" smooth="no"/>
    </contour>
  </outline>
</glyph>
<glyph name="U" format="1">
  <advance width="1603"/>
  <unicode hex="0055"/>
  <outline>
    <contour>
      <point x="799" y="-27" type="curve" smooth="yes"/>
      <point x="391" y="-27"/>
      <point x="236" y="205"/>
      <point x="236" y="516" type="curve" smooth="yes"/>
      <point x="236" y="1362" type="line" smooth="no"/>
      <point x="20" y="1362" type="line" smooth="no"/>
      <point x="20" y="1505" type="line" smooth="no"/>
      <point x="692" y="1505" type="line" smooth="no"/>
      <point x="692" y="1362" type="line" smooth="no"/>
      <point x="471" y="1362" type="line" smooth="no"/>
      <point x="471" y="502" type="line" smooth="yes"/>
      <point x="471" y="254.467"/>
      <point x="577" y="113.167"/>
      <point x="821" y="113.167" type="curve" smooth="yes"/>
      <point x="1046" y="113.167"/>
      <point x="1171" y="242.029"/>
      <point x="1171" y="508" type="curve" smooth="yes"/>
      <point x="1171" y="1362" type="line" smooth="no"/>
      <point x="944" y="1362" type="line" smooth="no"/>
      <point x="944" y="1505" type="line" smooth="no"/>
      <point x="1583" y="1505" type="line" smooth="no"/>
      <point x="1583" y="1362" type="line" smooth="no"/>
      <point x="1374" y="1362" type="line" smooth="no"/>
      <point x="1374" y="547" type="line" smooth="yes"/>
      <point x="1374" y="221"/>
      <point x="1252" y="-27"/>
    </contour>
  </outline>
</glyph>
<glyph name="V" format="1">
  <advance width="1640"/>
  <unicode hex="0056"/>
  <outline>
    <contour>
      <point x="676" y="106" type="curve" smooth="yes"/>
      <point x="225" y="1362" type="line" smooth="no"/>
      <point x="-4" y="1362" type="line" smooth="no"/>
      <point x="-4" y="1505" type="line" smooth="no"/>
      <point x="713" y="1505" type="line" smooth="no"/>
      <point x="713" y="1362" type="line" smooth="no"/>
      <point x="502" y="1362" type="line" smooth="no"/>
      <point x="866" y="293" type="line" smooth="no"/>
      <point x="1219" y="1362" type="line" smooth="no"/>
      <point x="954" y="1362" type="line" smooth="no"/>
      <point x="954" y="1505" type="line" smooth="no"/>
      <point x="1632" y="1505" type="line" smooth="no"/>
      <point x="1632" y="1362" type="line" smooth="no"/>
      <point x="1389" y="1362" type="line" smooth="no"/>
      <point x="958" y="106" type="line" smooth="yes"/>
      <point x="925" y="12"/>
      <point x="897" y="-35"/>
      <point x="821" y="-35" type="curve" smooth="yes"/>
      <point x="749" y="-35"/>
      <point x="711" y="7"/>
    </contour>
  </outline>
</glyph>
<glyph name="W" format="1">
  <advance width="2238"/>
  <unicode hex="0057"/>
  <outline>
    <contour>
      <point x="1550" y="-35" type="curve" smooth="yes"/>
      <point x="1478" y="-35"/>
      <point x="1461" y="6"/>
      <point x="1432" y="106" type="curve" smooth="yes"/>
      <point x="1167" y="1012" type="line" smooth="no"/>
      <point x="1169" y="1012"/>
      <point x="915" y="106"/>
      <point x="915" y="106" type="curve" smooth="yes"/>
      <point x="888" y="10"/>
      <point x="854" y="-35"/>
      <point x="778" y="-35" type="curve" smooth="yes"/>
      <point x="706" y="-35"/>
      <point x="676" y="6"/>
      <point x="645" y="106" type="curve" smooth="yes"/>
      <point x="258" y="1362" type="line" smooth="no"/>
      <point x="29" y="1362" type="line" smooth="no"/>
      <point x="29" y="1505" type="line" smooth="no"/>
      <point x="725" y="1505" type="line" smooth="no"/>
      <point x="725" y="1362" type="line" smooth="no"/>
      <point x="514" y="1362" type="line" smooth="no"/>
      <point x="805" y="307" type="line" smooth="no"/>
      <point x="1094" y="1362" type="line" smooth="no"/>
      <point x="1294" y="1362" type="line" smooth="no"/>
      <point x="1585" y="307" type="line" smooth="no"/>
      <point x="1858" y="1362" type="line" smooth="no"/>
      <point x="1655" y="1362" type="line" smooth="no"/>
      <point x="1655" y="1505" type="line" smooth="no"/>
      <point x="2210" y="1505" type="line" smooth="no"/>
      <point x="2210" y="1362" type="line" smooth="no"/>
      <point x="2028" y="1362" type="line" smooth="no"/>
      <point x="1679" y="106" type="line" smooth="no"/>
      <point x="1646" y="12"/>
      <point x="1626" y="-35"/>
    </contour>
  </outline>
</glyph>
<glyph name="X" format="1">
  <advance width="1699"/>
  <unicode hex="0058"/>
  <outline>
    <contour>
      <point x="1464" y="143" type="line" smooth="no"/>
      <point x="1683" y="143" type="line" smooth="no"/>
      <point x="1683" y="0" type="line" smooth="no"/>
      <point x="969" y="0" type="line" smooth="no"/>
      <point x="969" y="143" type="line" smooth="no"/>
      <point x="1190" y="143" type="line" smooth="no"/>
      <point x="834" y="609" type="line" smooth="no"/>
      <point x="453" y="143" type="line" smooth="no"/>
      <point x="664" y="143" type="line" smooth="no"/>
      <point x="664" y="0" type="line" smooth="no"/>
      <point x="16" y="0" type="line" smooth="no"/>
      <point x="16" y="143" type="line" smooth="no"/>
      <point x="217" y="143" type="line" smooth="no"/>
      <point x="721" y="759" type="line" smooth="no"/>
      <point x="266" y="1362" type="line" smooth="no"/>
      <point x="23" y="1362" type="line" smooth="no"/>
      <point x="23" y="1505" type="line" smooth="no"/>
      <point x="770" y="1505" type="line" smooth="no"/>
      <point x="770" y="1362" type="line" smooth="no"/>
      <point x="541" y="1362" type="line" smooth="no"/>
      <point x="863" y="935" type="line" smooth="no"/>
      <point x="1208" y="1362" type="line" smooth="no"/>
      <point x="961" y="1362" type="line" smooth="no"/>
      <point x="961" y="1505" type="line" smooth="no"/>
      <point x="1669" y="1505" type="line" smooth="no"/>
      <point x="1669" y="1362" type="line" smooth="no"/>
      <point x="1440" y="1362" type="line" smooth="no"/>
      <point x="975" y="785" type="line" smooth="no"/>
    </contour>
  </outline>
</glyph>
<glyph name="Y" format="1">
  <advance width="1554"/>
  <unicode hex="0059"/>
  <outline>
    <contour>
      <point x="659" y="595" type="line" smooth="no"/>
      <point x="227" y="1362" type="line" smooth="no"/>
      <point x="23" y="1362" type="line" smooth="no"/>
      <point x="23" y="1505" type="line" smooth="no"/>
      <point x="692" y="1505" type="line" smooth="no"/>
      <point x="692" y="1362" type="line" smooth="no"/>
      <point x="463" y="1362" type="line" smooth="no"/>
      <point x="801" y="741" type="line" smooth="no"/>
      <point x="1149" y="1362" type="line" smooth="no"/>
      <point x="926" y="1362" type="line" smooth="no"/>
      <point x="926" y="1505" type="line" smooth="no"/>
      <point x="1532" y="1505" type="line" smooth="no"/>
      <point x="1532" y="1362" type="line" smooth="no"/>
      <point x="1343" y="1362" type="line" smooth="no"/>
      <point x="895" y="590" type="line" smooth="no"/>
      <point x="895" y="143" type="line" smooth="no"/>
      <point x="1124" y="143" type="line" smooth="no"/>
      <point x="1124" y="0" type="line" smooth="no"/>
      <point x="416" y="0" type="line" smooth="no"/>
      <point x="416" y="143" type="line" smooth="no"/>
      <point x="659" y="143" type="line" smooth="no"/>
    </contour>
  </outline>
</glyph>
<glyph name="bracketleft" format="1">
  <advance width="1040"/>
  <unicode hex="005b"/>
  <outline>
    <contour>
      <point x="896" y="-246" type="line" smooth="no"/>
      <point x="151" y="-246" type="line" smooth="no"/>
      <point x="151" y="1602" type="line" smooth="no"/>
      <point x="896" y="1602" type="line" smooth="no"/>
      <point x="896" y="1464" type="line" smooth="no"/>
      <point x="386" y="1464" type="line" smooth="no"/>
      <point x="386" y="-109" type="line" smooth="no"/>
      <point x="896" y="-109" type="line" smooth="no"/>
    </contour>
  </outline>
</glyph>
<glyph name="bracketright" format="1">
  <advance width="1040"/>
  <unicode hex="005d"/>
  <outline>
    <contour>
      <point x="145" y="1602" type="line" smooth="no"/>
      <point x="890" y="1602" type="line" smooth="no"/>
      <point x="890" y="-246" type="line" smooth="no"/>
      <point x="145" y="-246" type="line" smooth="no"/>
      <point x="145" y="-109" type="line" smooth="no"/>
      <point x="655" y="-109" type="line" smooth="no"/>
      <point x="655" y="1464" type="line" smooth="no"/>
      <point x="145" y="1464" type="line" smooth="no"/>
    </contour>
  </outline>
</glyph>
<glyph name="asciicircum" format="1">
  <advance width="1132"/>
  <unicode hex="005e"/>
  <outline>
    <contour>
      <point x="482" y="1116" type="line" smooth="no"/>
      <point x="678" y="1116" type="line" smooth="no"/>
      <point x="1004" y="315" type="line" smooth="no"/>
      <point x="834" y="315" type="line" smooth="no"/>
      <point x="572" y="975" type="line" smooth="no"/>
      <point x="293" y="315" type="line" smooth="no"/>
      <point x="127" y="315" type="line" smooth="no"/>
    </contour>
  </outline>
</glyph>
<glyph name="underscore" format="1">
  <advance width="739"/>
  <unicode hex="005f"/>
  <outline>
    <contour>
      <point x="748" y="-127" type="line" smooth="no"/>
      <point x="-8" y="-127" type="line" smooth="no"/>
      <point x="-8" y="10" type="line" smooth="no"/>
      <point x="748" y="10" type="line" smooth="no"/>
    </contour>
  </outline>
</glyph>
<glyph name="grave" format="1">
  <advance width="1269"/>
  <unicode hex="0060"/>
  <outline>
    <contour>
      <point x="395" y="1458" type="curve" smooth="no"/>
      <point x="496" y="1597" type="line" smooth="no"/>
      <point x="496" y="1597"/>
      <point x="789" y="1389"/>
      <point x="971" y="1233" type="curve" smooth="no"/>
      <point x="942" y="1194" type="line" smooth="no"/>
      <point x="942" y="1194"/>
      <point x="495" y="1356"/>
    </contour>
  </outline>
</glyph>
<glyph name="a" format="1">
  <advance width="1267"/>
  <unicode hex="0061"/>
  <outline>
    <contour>
      <point x="291" y="229" type="curve" smooth="yes"/>
      <point x="291" y="166"/>
      <point x="328" y="117"/>
      <point x="408" y="117" type="curve" smooth="yes"/>
      <point x="543" y="117"/>
      <point x="707" y="258"/>
      <point x="707" y="371" type="curve" smooth="yes"/>
      <point x="707" y="584" type="line" smooth="no"/>
      <point x="508" y="387"/>
      <point x="291" y="403"/>
    </contour>
    <contour>
      <point x="1276" y="313" type="line" smooth="yes"/>
      <point x="1276" y="37.6963"/>
      <point x="1152.25" y="-27"/>
      <point x="997" y="-27" type="curve" smooth="yes"/>
      <point x="868" y="-27"/>
      <point x="739" y="52.3651"/>
      <point x="723" y="223" type="curve" smooth="no"/>
      <point x="666" y="79.1508"/>
      <point x="516" y="-27"/>
      <point x="356" y="-27" type="curve" smooth="yes"/>
      <point x="196" y="-27"/>
      <point x="78" y="62.2742"/>
      <point x="78" y="219" type="curve" smooth="yes"/>
      <point x="78" y="555"/>
      <point x="707" y="516"/>
      <point x="707" y="772" type="curve" smooth="yes"/>
      <point x="707" y="928"/>
      <point x="625" y="997"/>
      <point x="494" y="997" type="curve" smooth="yes"/>
      <point x="402" y="997"/>
      <point x="307" y="966"/>
      <point x="260" y="913" type="curve" smooth="no"/>
      <point x="350" y="913"/>
      <point x="399" y="856"/>
      <point x="399" y="797" type="curve" smooth="yes"/>
      <point x="399" y="711"/>
      <point x="334" y="655"/>
      <point x="260" y="655" type="curve" smooth="yes"/>
      <point x="190" y="655"/>
      <point x="113" y="704"/>
      <point x="113" y="817" type="curve" smooth="yes"/>
      <point x="113" y="921"/>
      <point x="248" y="1102"/>
      <point x="537" y="1102" type="curve" smooth="yes"/>
      <point x="746" y="1102"/>
      <point x="922" y="1013"/>
      <point x="922" y="743" type="curve" smooth="yes"/>
      <point x="922" y="283" type="line" smooth="yes"/>
      <point x="922" y="215"/>
      <point x="948" y="115"/>
      <point x="1040" y="115" type="curve" smooth="yes"/>
      <point x="1136" y="115"/>
      <point x="1167" y="187"/>
      <point x="1167" y="293" type="curve" smooth="yes"/>
      <point x="1167" y="442" type="line" smooth="no"/>
      <point x="1276" y="442" type="line" smooth="no"/>
    </contour>
  </outline>
</glyph>
<glyph name="b" format="1">
  <advance width="1185"/>
  <unicode hex="0062"/>
  <outline>
    <contour>
      <point x="616" y="989" type="curve" smooth="yes"/>
      <point x="430" y="989"/>
      <point x="350" y="750"/>
      <point x="350" y="584" type="curve" smooth="yes"/>
      <point x="350" y="314"/>
      <point x="450" y="94"/>
      <point x="616" y="94" type="curve" smooth="yes"/>
      <point x="788" y="94"/>
      <point x="879" y="311"/>
      <point x="879" y="524" type="curve" smooth="yes"/>
      <point x="879" y="743"/>
      <point x="809" y="989"/>
    </contour>
    <contour>
      <point x="657" y="-27" type="curve" smooth="yes"/>
      <point x="524" y="-27"/>
      <point x="375" y="35"/>
      <point x="305" y="199" type="curve" smooth="no"/>
      <point x="227" y="0" type="line" smooth="no"/>
      <point x="135" y="0" type="line" smooth="no"/>
      <point x="135" y="1382" type="line" smooth="no"/>
      <point x="-72" y="1382" type="line" smooth="no"/>
      <point x="-72" y="1505" type="line" smooth="no"/>
      <point x="350" y="1505" type="line" smooth="no"/>
      <point x="350" y="942" type="line" smooth="no"/>
      <point x="418" y="1042"/>
      <point x="528" y="1102"/>
      <point x="647" y="1102" type="curve" smooth="yes"/>
      <point x="929" y="1102"/>
      <point x="1108" y="865"/>
      <point x="1108" y="537" type="curve" smooth="yes"/>
      <point x="1108" y="218"/>
      <point x="923" y="-27"/>
    </contour>
  </outline>
</glyph>
<glyph name="c" format="1">
  <advance width="1118"/>
  <unicode hex="0063"/>
  <outline>
    <contour>
      <point x="74" y="516" type="curve" smooth="yes"/>
      <point x="74" y="819.963"/>
      <point x="258" y="1102"/>
      <point x="616" y="1102" type="curve" smooth="yes"/>
      <point x="804" y="1102"/>
      <point x="1040" y="992.625"/>
      <point x="1040" y="752" type="curve" smooth="yes"/>
      <point x="1040" y="683"/>
      <point x="990" y="590"/>
      <point x="883" y="590" type="curve" smooth="yes"/>
      <point x="800" y="590"/>
      <point x="729" y="643"/>
      <point x="729" y="731" type="curve" smooth="yes"/>
      <point x="729" y="824"/>
      <point x="808" y="868"/>
      <point x="883" y="868" type="curve" smooth="no"/>
      <point x="842" y="934"/>
      <point x="760" y="989"/>
      <point x="651" y="989" type="curve" smooth="yes"/>
      <point x="410" y="989"/>
      <point x="301" y="762"/>
      <point x="301" y="549" type="curve" smooth="yes"/>
      <point x="301" y="293"/>
      <point x="426" y="135"/>
      <point x="637" y="135" type="curve" smooth="yes"/>
      <point x="809" y="135"/>
      <point x="925" y="292"/>
      <point x="950" y="371" type="curve" smooth="no"/>
      <point x="1063" y="334" type="line" smooth="no"/>
      <point x="1014" y="122.174"/>
      <point x="848" y="-27"/>
      <point x="592" y="-27" type="curve" smooth="yes"/>
      <point x="305" y="-27"/>
      <point x="74" y="183.226"/>
    </contour>
  </outline>
</glyph>
<glyph name="d" format="1">
  <advance width="1236"/>
  <unicode hex="0064"/>
  <outline>
    <contour>
      <point x="831" y="170" type="line" smooth="no"/>
      <point x="759" y="37"/>
      <point x="629" y="-27"/>
      <point x="520" y="-27" type="curve" smooth="yes"/>
      <point x="254" y="-27"/>
      <point x="80" y="199"/>
      <point x="80" y="537" type="curve" smooth="yes"/>
      <point x="80" y="873"/>
      <point x="252" y="1102"/>
      <point x="535" y="1102" type="curve" smooth="yes"/>
      <point x="644" y="1102"/>
      <point x="761" y="1042"/>
      <point x="829" y="942" type="curve" smooth="no"/>
      <point x="829" y="1382" type="line" smooth="no"/>
      <point x="594" y="1382" type="line" smooth="no"/>
      <point x="594" y="1505" type="line" smooth="no"/>
      <point x="1044" y="1505" type="line" smooth="no"/>
      <point x="1044" y="112" type="line" smooth="no"/>
      <point x="1225" y="112" type="line" smooth="no"/>
      <point x="1225" y="0" type="line" smooth="no"/>
      <point x="870" y="0" type="line" smooth="no"/>
    </contour>
    <contour>
      <point x="571" y="989" type="curve" smooth="yes"/>
      <point x="381" y="989"/>
      <point x="309" y="749"/>
      <point x="309" y="532" type="curve" smooth="yes"/>
      <point x="309" y="317"/>
      <point x="389" y="100"/>
      <point x="563" y="100" type="curve" smooth="yes"/>
      <point x="725" y="100"/>
      <point x="844" y="289"/>
      <point x="844" y="549" type="curve" smooth="yes"/>
      <point x="844" y="754"/>
      <point x="763" y="989"/>
    </contour>
  </outline>
</glyph>
<glyph name="e" format="1">
  <advance width="1150"/>
  <unicode hex="0065"/>
  <outline>
    <contour>
      <point x="310" y="659" type="curve" smooth="no"/>
      <point x="854" y="659" type="line" smooth="no"/>
      <point x="848" y="854.791"/>
      <point x="733" y="983"/>
      <point x="590" y="983" type="curve" smooth="yes"/>
      <point x="445" y="983"/>
      <point x="326" y="854.791"/>
    </contour>
    <contour>
      <point x="74" y="523" type="curve" smooth="yes"/>
      <point x="74" y="821.967"/>
      <point x="254" y="1102"/>
      <point x="584" y="1102" type="curve" smooth="yes"/>
      <point x="854" y="1102"/>
      <point x="1068" y="909.698"/>
      <point x="1074" y="551" type="curve" smooth="no"/>
      <point x="303" y="551" type="line" smooth="no"/>
      <point x="303" y="543" type="line" smooth="yes"/>
      <point x="303" y="321"/>
      <point x="397" y="123"/>
      <point x="617" y="123" type="curve" smooth="yes"/>
      <point x="746" y="123"/>
      <point x="891" y="205"/>
      <point x="936" y="371" type="curve" smooth="no"/>
      <point x="1053" y="334" type="line" smooth="no"/>
      <point x="1002" y="118.196"/>
      <point x="838" y="-27"/>
      <point x="596" y="-27" type="curve" smooth="yes"/>
      <point x="258" y="-27"/>
      <point x="74" y="245.011"/>
    </contour>
  </outline>
</glyph>
<glyph name="f" format="1">
  <advance width="786"/>
  <unicode hex="0066"/>
  <outline>
    <contour>
      <point x="711" y="112" type="line" smooth="no"/>
      <point x="711" y="0" type="line" smooth="no"/>
      <point x="51" y="0" type="line" smooth="no"/>
      <point x="51" y="112" type="line" smooth="no"/>
      <point x="246" y="112" type="line" smooth="no"/>
      <point x="246" y="961" type="line" smooth="no"/>
      <point x="51" y="961" type="line" smooth="no"/>
      <point x="51" y="1073" type="line" smooth="no"/>
      <point x="246" y="1073" type="line" smooth="no"/>
      <point x="246" y="1413"/>
      <point x="342" y="1583"/>
      <point x="623" y="1583" type="curve" smooth="yes"/>
      <point x="854" y="1583"/>
      <point x="965" y="1470"/>
      <point x="965" y="1368" type="curve" smooth="yes"/>
      <point x="965" y="1259"/>
      <point x="897" y="1196"/>
      <point x="815" y="1196" type="curve" smooth="yes"/>
      <point x="745" y="1196"/>
      <point x="680" y="1251"/>
      <point x="680" y="1331" type="curve" smooth="yes"/>
      <point x="680" y="1374"/>
      <point x="719" y="1436"/>
      <point x="791" y="1454" type="curve" smooth="no"/>
      <point x="760" y="1483"/>
      <point x="700" y="1499"/>
      <point x="653" y="1499" type="curve" smooth="yes"/>
      <point x="536" y="1499"/>
      <point x="455" y="1427"/>
      <point x="455" y="1243" type="curve" smooth="yes"/>
      <point x="455" y="1073" type="line" smooth="no"/>
      <point x="782" y="1073" type="line" smooth="no"/>
      <point x="774" y="961" type="line" smooth="no"/>
      <point x="461" y="961" type="line" smooth="no"/>
      <point x="461" y="112" type="line" smooth="no"/>
    </contour>
  </outline>
</glyph>
<glyph name="g" format="1">
  <advance width="1198"/>
  <unicode hex="0067"/>
  <outline>
    <contour>
      <point x="551" y="-535" type="curve" smooth="yes"/>
      <point x="361" y="-535"/>
      <point x="176" y="-463"/>
      <point x="176" y="-295" type="curve" smooth="yes"/>
      <point x="176" y="-184"/>
      <point x="262" y="-139"/>
      <point x="344" y="-139" type="curve" smooth="yes"/>
      <point x="416" y="-139"/>
      <point x="479" y="-195"/>
      <point x="479" y="-279" type="curve" smooth="yes"/>
      <point x="479" y="-334"/>
      <point x="432" y="-394"/>
      <point x="395" y="-408" type="curve" smooth="no"/>
      <point x="436" y="-422"/>
      <point x="467" y="-430"/>
      <point x="518" y="-430" type="curve" smooth="yes"/>
      <point x="733" y="-430"/>
      <point x="829" y="-253"/>
      <point x="829" y="23" type="curve" smooth="yes"/>
      <point x="829" y="201" type="line" smooth="no"/>
      <point x="788" y="80"/>
      <point x="668" y="-27"/>
      <point x="516" y="-27" type="curve" smooth="yes"/>
      <point x="225" y="-27"/>
      <point x="82" y="251"/>
      <point x="82" y="532" type="curve" smooth="yes"/>
      <point x="82" y="815"/>
      <point x="229" y="1102"/>
      <point x="522" y="1102" type="curve" smooth="yes"/>
      <point x="631" y="1102"/>
      <point x="784" y="1026"/>
      <point x="829" y="881" type="curve" smooth="no"/>
      <point x="854" y="1073" type="line" smooth="no"/>
      <point x="1188" y="1073" type="line" smooth="no"/>
      <point x="1188" y="954" type="line" smooth="no"/>
      <point x="1044" y="954" type="line" smooth="no"/>
      <point x="1044" y="51" type="line" smooth="yes"/>
      <point x="1044" y="-250"/>
      <point x="909" y="-535"/>
    </contour>
    <contour>
      <point x="559" y="100" type="curve" smooth="yes"/>
      <point x="745" y="100"/>
      <point x="836" y="308.971"/>
      <point x="836" y="512" type="curve" smooth="yes"/>
      <point x="836" y="782"/>
      <point x="729" y="969"/>
      <point x="563" y="969" type="curve" smooth="yes"/>
      <point x="391" y="969"/>
      <point x="301" y="764"/>
      <point x="301" y="551" type="curve" smooth="yes"/>
      <point x="301" y="333.925"/>
      <point x="366" y="100"/>
    </contour>
  </outline>
</glyph>
<glyph name="h" format="1">
  <advance width="1355"/>
  <unicode hex="0068"/>
  <outline>
    <contour>
      <point x="1126" y="723" type="curve" smooth="yes"/>
      <point x="1126" y="112" type="line" smooth="no"/>
      <point x="1341" y="112" type="line" smooth="no"/>
      <point x="1341" y="0" type="line" smooth="no"/>
      <point x="717" y="0" type="line" smooth="no"/>
      <point x="717" y="112" type="line" smooth="no"/>
      <point x="911" y="112" type="line" smooth="no"/>
      <point x="911" y="731" type="line" smooth="yes"/>
      <point x="911" y="894.712"/>
      <point x="840" y="961"/>
      <point x="752" y="961" type="curve" smooth="yes"/>
      <point x="617" y="961"/>
      <point x="444" y="802.563"/>
      <point x="444" y="598" type="curve" smooth="yes"/>
      <point x="444" y="112" type="line" smooth="no"/>
      <point x="639" y="112" type="line" smooth="no"/>
      <point x="639" y="0" type="line" smooth="no"/>
      <point x="45" y="0" type="line" smooth="no"/>
      <point x="45" y="112" type="line" smooth="no"/>
      <point x="229" y="112" type="line" smooth="no"/>
      <point x="229" y="1382" type="line" smooth="no"/>
      <point x="33" y="1382" type="line" smooth="no"/>
      <point x="33" y="1505" type="line" smooth="no"/>
      <point x="444" y="1505" type="line" smooth="no"/>
      <point x="444" y="883" type="line" smooth="no"/>
      <point x="524" y="1047"/>
      <point x="676" y="1102"/>
      <point x="795" y="1102" type="curve" smooth="yes"/>
      <point x="910" y="1102"/>
      <point x="1126" y="1067"/>
    </contour>
  </outline>
</glyph>
<glyph name="i" format="1">
  <advance width="665"/>
  <unicode hex="0069"/>
  <outline>
    <contour>
      <point x="188" y="1409" type="curve" smooth="yes"/>
      <point x="188" y="1491"/>
      <point x="254" y="1559"/>
      <point x="336" y="1559" type="curve" smooth="yes"/>
      <point x="416" y="1559"/>
      <point x="485" y="1491"/>
      <point x="485" y="1409" type="curve" smooth="yes"/>
      <point x="485" y="1329"/>
      <point x="416" y="1262"/>
      <point x="336" y="1262" type="curve" smooth="yes"/>
      <point x="254" y="1262"/>
      <point x="188" y="1329"/>
    </contour>
    <contour>
      <point x="463" y="1073" type="line" smooth="no"/>
      <point x="463" y="112" type="line" smooth="no"/>
      <point x="659" y="112" type="line" smooth="no"/>
      <point x="659" y="0" type="line" smooth="no"/>
      <point x="55" y="0" type="line" smooth="no"/>
      <point x="55" y="112" type="line" smooth="no"/>
      <point x="248" y="112" type="line" smooth="no"/>
      <point x="248" y="961" type="line" smooth="no"/>
      <point x="53" y="961" type="line" smooth="no"/>
      <point x="53" y="1073" type="line" smooth="no"/>
    </contour>
  </outline>
</glyph>
<glyph name="j" format="1">
  <advance width="665"/>
  <unicode hex="006a"/>
  <outline>
    <contour>
      <point x="160" y="-471" type="curve" smooth="yes"/>
      <point x="-41" y="-471"/>
      <point x="-143" y="-387"/>
      <point x="-143" y="-254" type="curve" smooth="yes"/>
      <point x="-143" y="-160"/>
      <point x="-68" y="-113"/>
      <point x="2" y="-113" type="curve" smooth="yes"/>
      <point x="61" y="-113"/>
      <point x="119" y="-149"/>
      <point x="119" y="-223" type="curve" smooth="yes"/>
      <point x="119" y="-268"/>
      <point x="108" y="-330"/>
      <point x="61" y="-350" type="curve" smooth="no"/>
      <point x="61" y="-350"/>
      <point x="94" y="-362"/>
      <point x="133" y="-362" type="curve" smooth="yes"/>
      <point x="203" y="-362"/>
      <point x="297" y="-326"/>
      <point x="297" y="-121" type="curve" smooth="yes"/>
      <point x="297" y="961" type="line" smooth="no"/>
      <point x="53" y="961" type="line" smooth="no"/>
      <point x="53" y="1073" type="line" smooth="no"/>
      <point x="512" y="1073" type="line" smooth="no"/>
      <point x="512" y="-90" type="line" smooth="yes"/>
      <point x="512" y="-343"/>
      <point x="363" y="-471"/>
    </contour>
    <contour>
      <point x="227" y="1409" type="curve" smooth="yes"/>
      <point x="227" y="1491"/>
      <point x="293" y="1559"/>
      <point x="375" y="1559" type="curve" smooth="yes"/>
      <point x="455" y="1559"/>
      <point x="524" y="1491"/>
      <point x="524" y="1409" type="curve" smooth="yes"/>
      <point x="524" y="1329"/>
      <point x="455" y="1262"/>
      <point x="375" y="1262" type="curve" smooth="yes"/>
      <point x="293" y="1262"/>
      <point x="227" y="1329"/>
    </contour>
  </outline>
</glyph>
<glyph name="k" format="1">
  <advance width="1300"/>
  <unicode hex="006b"/>
  <outline>
    <contour>
      <point x="1176" y="137" type="curve" smooth="yes"/>
      <point x="1213" y="137"/>
      <point x="1243" y="141"/>
      <point x="1280" y="158" type="curve" smooth="no"/>
      <point x="1309" y="23" type="line" smooth="no"/>
      <point x="1237" y="-18"/>
      <point x="1187" y="-20"/>
      <point x="1130" y="-20" type="curve" smooth="yes"/>
      <point x="980" y="-20"/>
      <point x="885" y="65"/>
      <point x="807" y="199" type="curve" smooth="yes"/>
      <point x="606" y="545" type="line" smooth="no"/>
      <point x="440" y="418" type="line" smooth="no"/>
      <point x="440" y="112" type="line" smooth="no"/>
      <point x="610" y="112" type="line" smooth="no"/>
      <point x="610" y="0" type="line" smooth="no"/>
      <point x="23" y="0" type="line" smooth="no"/>
      <point x="23" y="112" type="line" smooth="no"/>
      <point x="225" y="112" type="line" smooth="no"/>
      <point x="225" y="1382" type="line" smooth="no"/>
      <point x="23" y="1382" type="line" smooth="no"/>
      <point x="23" y="1505" type="line" smooth="no"/>
      <point x="440" y="1505" type="line" smooth="no"/>
      <point x="440" y="571" type="line" smooth="no"/>
      <point x="858" y="961" type="line" smooth="no"/>
      <point x="670" y="961" type="line" smooth="no"/>
      <point x="670" y="1073" type="line" smooth="no"/>
      <point x="1270" y="1073" type="line" smooth="no"/>
      <point x="1270" y="961" type="line" smooth="no"/>
      <point x="1079" y="961" type="line" smooth="no"/>
      <point x="733" y="629" type="line" smooth="no"/>
      <point x="866" y="442"/>
      <point x="1002" y="137"/>
    </contour>
  </outline>
</glyph>
<glyph name="l" format="1">
  <advance width="708"/>
  <unicode hex="006c"/>
  <outline>
    <contour>
      <point x="475" y="1505" type="line" smooth="no"/>
      <point x="475" y="112" type="line" smooth="no"/>
      <point x="690" y="112" type="line" smooth="no"/>
      <point x="690" y="0" type="line" smooth="no"/>
      <point x="37" y="0" type="line" smooth="no"/>
      <point x="37" y="112" type="line" smooth="no"/>
      <point x="260" y="112" type="line" smooth="no"/>
      <point x="260" y="1382" type="line" smooth="no"/>
      <point x="37" y="1382" type="line" smooth="no"/>
      <point x="37" y="1505" type="line" smooth="no"/>
    </contour>
  </outline>
</glyph>
<glyph name="m" format="1">
  <advance width="1929"/>
  <unicode hex="006d"/>
  <outline>
    <contour>
      <point x="631" y="112" type="line" smooth="no"/>
      <point x="631" y="0" type="line" smooth="no"/>
      <point x="49" y="0" type="line" smooth="no"/>
      <point x="49" y="112" type="line" smooth="no"/>
      <point x="244" y="112" type="line" smooth="no"/>
      <point x="244" y="961" type="line" smooth="no"/>
      <point x="49" y="961" type="line" smooth="no"/>
      <point x="49" y="1073" type="line" smooth="no"/>
      <point x="428" y="1090" type="line" smooth="no"/>
      <point x="453" y="872" type="line" smooth="no"/>
      <point x="510" y="1042"/>
      <point x="666" y="1102"/>
      <point x="791" y="1102" type="curve" smooth="yes"/>
      <point x="889" y="1102"/>
      <point x="1024" y="1086"/>
      <point x="1079" y="889" type="curve" smooth="no"/>
      <point x="1149" y="1047"/>
      <point x="1276" y="1102"/>
      <point x="1399" y="1102" type="curve" smooth="yes"/>
      <point x="1520" y="1102"/>
      <point x="1731" y="1061"/>
      <point x="1731" y="713" type="curve" smooth="yes"/>
      <point x="1731" y="112" type="line" smooth="no"/>
      <point x="1915" y="112" type="line" smooth="no"/>
      <point x="1915" y="0" type="line" smooth="no"/>
      <point x="1354" y="0" type="line" smooth="no"/>
      <point x="1354" y="112" type="line" smooth="no"/>
      <point x="1516" y="112" type="line" smooth="no"/>
      <point x="1516" y="711" type="line" smooth="yes"/>
      <point x="1516" y="891"/>
      <point x="1438" y="965"/>
      <point x="1325" y="965" type="curve" smooth="yes"/>
      <point x="1180" y="965"/>
      <point x="1100" y="862"/>
      <point x="1100" y="731" type="curve" smooth="yes"/>
      <point x="1100" y="112" type="line" smooth="no"/>
      <point x="1272" y="112" type="line" smooth="no"/>
      <point x="1272" y="0" type="line" smooth="no"/>
      <point x="713" y="0" type="line" smooth="no"/>
      <point x="713" y="112" type="line" smooth="no"/>
      <point x="885" y="112" type="line" smooth="no"/>
      <point x="885" y="711" type="line" smooth="yes"/>
      <point x="885" y="891"/>
      <point x="807" y="965"/>
      <point x="694" y="965" type="curve" smooth="yes"/>
      <point x="495" y="965"/>
      <point x="459" y="772"/>
      <point x="459" y="586" type="curve" smooth="yes"/>
      <point x="459" y="112" type="line" smooth="no"/>
    </contour>
  </outline>
</glyph>
<glyph name="n" format="1">
  <advance width="1359"/>
  <unicode hex="006e"/>
  <outline>
    <contour>
      <point x="641" y="0" type="line" smooth="no"/>
      <point x="49" y="0" type="line" smooth="no"/>
      <point x="49" y="112" type="line" smooth="no"/>
      <point x="244" y="112" type="line" smooth="no"/>
      <point x="244" y="961" type="line" smooth="no"/>
      <point x="49" y="961" type="line" smooth="no"/>
      <point x="49" y="1073" type="line" smooth="no"/>
      <point x="428" y="1090" type="line" smooth="no"/>
      <point x="453" y="872" type="line" smooth="no"/>
      <point x="523" y="1032"/>
      <point x="684" y="1102"/>
      <point x="809" y="1102" type="curve" smooth="yes"/>
      <point x="930" y="1102"/>
      <point x="1141" y="1061"/>
      <point x="1141" y="713" type="curve" smooth="yes"/>
      <point x="1141" y="112" type="line" smooth="no"/>
      <point x="1346" y="112" type="line" smooth="no"/>
      <point x="1346" y="0" type="line" smooth="no"/>
      <point x="743" y="0" type="line" smooth="no"/>
      <point x="743" y="112" type="line" smooth="no"/>
      <point x="926" y="112" type="line" smooth="no"/>
      <point x="926" y="711" type="line" smooth="yes"/>
      <point x="926" y="891"/>
      <point x="848" y="965"/>
      <point x="735" y="965" type="curve" smooth="yes"/>
      <point x="536" y="965"/>
      <point x="459" y="772"/>
      <point x="459" y="586" type="curve" smooth="yes"/>
      <point x="459" y="112" type="line" smooth="no"/>
      <point x="641" y="112" type="line" smooth="no"/>
    </contour>
  </outline>
</glyph>
<glyph name="o" format="1">
  <advance width="1189"/>
  <unicode hex="006f"/>
  <outline>
    <contour>
      <point x="596" y="983" type="curve" smooth="yes"/>
      <point x="391" y="983"/>
      <point x="303" y="784"/>
      <point x="303" y="524" type="curve" smooth="yes"/>
      <point x="303" y="270"/>
      <point x="414" y="100"/>
      <point x="598" y="100" type="curve" smooth="yes"/>
      <point x="780" y="100"/>
      <point x="887" y="274"/>
      <point x="887" y="524" type="curve" smooth="yes"/>
      <point x="887" y="784"/>
      <point x="801" y="983"/>
    </contour>
    <contour>
      <point x="598" y="-27" type="curve" smooth="yes"/>
      <point x="270" y="-27"/>
      <point x="74" y="218"/>
      <point x="74" y="537" type="curve" smooth="yes"/>
      <point x="74" y="856"/>
      <point x="268" y="1102"/>
      <point x="596" y="1102" type="curve" smooth="yes"/>
      <point x="924" y="1102"/>
      <point x="1116" y="856"/>
      <point x="1116" y="537" type="curve" smooth="yes"/>
      <point x="1116" y="222"/>
      <point x="924" y="-27"/>
    </contour>
  </outline>
</glyph>
<glyph name="p" format="1">
  <advance width="1220"/>
  <unicode hex="0070"/>
  <outline>
    <contour>
      <point x="918" y="551" type="curve" smooth="yes"/>
      <point x="918" y="764"/>
      <point x="825" y="975"/>
      <point x="653" y="975" type="curve" smooth="yes"/>
      <point x="493" y="975"/>
      <point x="383" y="790"/>
      <point x="383" y="532" type="curve" smooth="yes"/>
      <point x="383" y="327"/>
      <point x="458" y="86"/>
      <point x="653" y="86" type="curve" smooth="yes"/>
      <point x="846" y="86"/>
      <point x="918" y="332"/>
    </contour>
    <contour>
      <point x="391" y="901" type="line" smooth="no"/>
      <point x="463" y="1032"/>
      <point x="577" y="1102"/>
      <point x="717" y="1102" type="curve" smooth="yes"/>
      <point x="973" y="1102"/>
      <point x="1147" y="852"/>
      <point x="1147" y="539" type="curve" smooth="yes"/>
      <point x="1147" y="211"/>
      <point x="975" y="-27"/>
      <point x="692" y="-27" type="curve" smooth="yes"/>
      <point x="573" y="-27"/>
      <point x="465" y="33"/>
      <point x="397" y="133" type="curve" smooth="no"/>
      <point x="397" y="-279" type="line" smooth="no"/>
      <point x="618" y="-279" type="line" smooth="no"/>
      <point x="618" y="-401" type="line" smooth="no"/>
      <point x="-53" y="-401" type="line" smooth="no"/>
      <point x="-53" y="-281" type="line" smooth="no"/>
      <point x="182" y="-281" type="line" smooth="no"/>
      <point x="182" y="961" type="line" smooth="no"/>
      <point x="-12" y="961" type="line" smooth="no"/>
      <point x="-12" y="1073" type="line" smooth="no"/>
      <point x="391" y="1102" type="line" smooth="no"/>
    </contour>
  </outline>
</glyph>
<glyph name="q" format="1">
  <advance width="1196"/>
  <unicode hex="0071"/>
  <outline>
    <contour>
      <point x="565" y="86" type="curve" smooth="yes"/>
      <point x="751" y="86"/>
      <point x="831" y="326"/>
      <point x="831" y="492" type="curve" smooth="yes"/>
      <point x="831" y="763.104"/>
      <point x="731" y="983"/>
      <point x="565" y="983" type="curve" smooth="yes"/>
      <point x="393" y="983"/>
      <point x="303" y="764.991"/>
      <point x="303" y="551" type="curve" smooth="yes"/>
      <point x="303" y="332"/>
      <point x="372" y="86"/>
    </contour>
    <contour>
      <point x="524" y="1102" type="curve" smooth="yes"/>
      <point x="657" y="1102"/>
      <point x="807" y="1041"/>
      <point x="877" y="877" type="curve" smooth="no"/>
      <point x="954" y="1073" type="line" smooth="no"/>
      <point x="1047" y="1073" type="line" smooth="no"/>
      <point x="1047" y="-276" type="line" smooth="no"/>
      <point x="1253" y="-276" type="line" smooth="no"/>
      <point x="1253" y="-399" type="line" smooth="no"/>
      <point x="614" y="-399" type="line" smooth="no"/>
      <point x="614" y="-275" type="line" smooth="no"/>
      <point x="831" y="-276" type="line" smooth="no"/>
      <point x="831" y="133" type="line" smooth="no"/>
      <point x="763" y="33"/>
      <point x="654" y="-27"/>
      <point x="535" y="-27" type="curve" smooth="yes"/>
      <point x="252" y="-27"/>
      <point x="74" y="211"/>
      <point x="74" y="539" type="curve" smooth="yes"/>
      <point x="74" y="858"/>
      <point x="258" y="1102"/>
    </contour>
  </outline>
</glyph>
<glyph name="r" format="1">
  <advance width="954"/>
  <unicode hex="0072"/>
  <outline>
    <contour>
      <point x="684" y="0" type="line" smooth="no"/>
      <point x="49" y="0" type="line" smooth="no"/>
      <point x="49" y="112" type="line" smooth="no"/>
      <point x="244" y="112" type="line" smooth="no"/>
      <point x="244" y="961" type="line" smooth="no"/>
      <point x="49" y="961" type="line" smooth="no"/>
      <point x="49" y="1073" type="line" smooth="no"/>
      <point x="428" y="1090" type="line" smooth="no"/>
      <point x="455" y="856" type="line" smooth="no"/>
      <point x="484" y="956"/>
      <point x="573" y="1102"/>
      <point x="743" y="1102" type="curve" smooth="yes"/>
      <point x="843" y="1102"/>
      <point x="941" y="1045"/>
      <point x="941" y="930" type="curve" smooth="yes"/>
      <point x="941" y="819"/>
      <point x="864" y="766"/>
      <point x="788" y="766" type="curve" smooth="yes"/>
      <point x="716" y="766"/>
      <point x="646" y="813"/>
      <point x="646" y="899" type="curve" smooth="yes"/>
      <point x="646" y="946"/>
      <point x="687" y="987"/>
      <point x="687" y="987" type="curve" smooth="no"/>
      <point x="519" y="987"/>
      <point x="459" y="761"/>
      <point x="459" y="575" type="curve" smooth="yes"/>
      <point x="459" y="112" type="line" smooth="no"/>
      <point x="684" y="112" type="line" smooth="no"/>
    </contour>
  </outline>
</glyph>
<glyph name="s" format="1">
  <advance width="1040"/>
  <unicode hex="0073"/>
  <outline>
    <contour>
      <point x="514" y="-27" type="curve" smooth="yes"/>
      <point x="317.262" y="-27"/>
      <point x="79" y="46.1865"/>
      <point x="79" y="243" type="curve" smooth="yes"/>
      <point x="79" y="333"/>
      <point x="146" y="392"/>
      <point x="216" y="392" type="curve" smooth="yes"/>
      <point x="284" y="392"/>
      <point x="351" y="355"/>
      <point x="351" y="271" type="curve" smooth="yes"/>
      <point x="351" y="201"/>
      <point x="302" y="153"/>
      <point x="253" y="153" type="curve" smooth="no"/>
      <point x="302.938" y="115.721"/>
      <point x="399.875" y="88"/>
      <point x="488" y="88" type="curve" smooth="yes"/>
      <point x="629" y="88"/>
      <point x="772" y="129"/>
      <point x="772" y="264" type="curve" smooth="yes"/>
      <point x="772" y="536"/>
      <point x="88" y="418"/>
      <point x="88" y="797" type="curve" smooth="yes"/>
      <point x="88" y="1033.1"/>
      <point x="356" y="1102"/>
      <point x="508" y="1102" type="curve" smooth="yes"/>
      <point x="694" y="1102"/>
      <point x="934" y="1019.05"/>
      <point x="934" y="857" type="curve" smooth="yes"/>
      <point x="934" y="763.25"/>
      <point x="871" y="707"/>
      <point x="805" y="707" type="curve" smooth="yes"/>
      <point x="733" y="707"/>
      <point x="668" y="752.098"/>
      <point x="668" y="836" type="curve" smooth="yes"/>
      <point x="668" y="899"/>
      <point x="713" y="927"/>
      <point x="744" y="947" type="curve" smooth="no"/>
      <point x="687" y="974.541"/>
      <point x="602" y="995"/>
      <point x="520" y="995" type="curve" smooth="yes"/>
      <point x="391" y="995"/>
      <point x="275" y="938"/>
      <point x="275" y="823" type="curve" smooth="yes"/>
      <point x="275" y="604"/>
      <point x="963" y="696"/>
      <point x="963" y="295" type="curve" smooth="yes"/>
      <point x="963" y="43"/>
      <point x="729" y="-27"/>
    </contour>
  </outline>
</glyph>
<glyph name="t" format="1">
  <advance width="892"/>
  <unicode hex="0074"/>
  <outline>
    <contour>
      <point x="-20" y="1008" type="line" smooth="no"/>
      <point x="255" y="1089"/>
      <point x="310" y="1505"/>
      <point x="373" y="1505" type="curve" smooth="yes"/>
      <point x="387" y="1505"/>
      <point x="399" y="1493"/>
      <point x="399" y="1470" type="curve" smooth="yes"/>
      <point x="399" y="1073" type="line" smooth="no"/>
      <point x="793" y="1073" type="line" smooth="no"/>
      <point x="793" y="959" type="line" smooth="no"/>
      <point x="399" y="959" type="line" smooth="no"/>
      <point x="399" y="289" type="line" smooth="yes"/>
      <point x="399" y="166"/>
      <point x="461" y="113"/>
      <point x="545" y="113" type="curve" smooth="yes"/>
      <point x="643" y="113"/>
      <point x="707" y="163"/>
      <point x="707" y="350" type="curve" smooth="yes"/>
      <point x="707" y="494" type="line" smooth="no"/>
      <point x="827" y="494" type="line" smooth="no"/>
      <point x="827" y="371" type="line" smooth="yes"/>
      <point x="827" y="125"/>
      <point x="758" y="-27"/>
      <point x="508" y="-27" type="curve" smooth="yes"/>
      <point x="348" y="-27"/>
      <point x="184" y="70"/>
      <point x="184" y="295" type="curve" smooth="yes"/>
      <point x="184" y="961" type="line" smooth="no"/>
      <point x="-20" y="961" type="line" smooth="no"/>
    </contour>
  </outline>
</glyph>
<glyph name="u" format="1">
  <advance width="1286"/>
  <unicode hex="0075"/>
  <outline>
    <contour>
      <point x="881" y="-29" type="line" smooth="no"/>
      <point x="881" y="197" type="line" smooth="no"/>
      <point x="783" y="22.5575"/>
      <point x="645" y="-27"/>
      <point x="520" y="-27" type="curve" smooth="yes"/>
      <point x="399" y="-27"/>
      <point x="184" y="13.7892"/>
      <point x="184" y="360" type="curve" smooth="yes"/>
      <point x="184" y="961" type="line" smooth="no"/>
      <point x="-4" y="961" type="line" smooth="no"/>
      <point x="-4" y="1073" type="line" smooth="no"/>
      <point x="399" y="1073" type="line" smooth="no"/>
      <point x="399" y="362" type="line" smooth="yes"/>
      <point x="399" y="182.408"/>
      <point x="456" y="112"/>
      <point x="573" y="112" type="curve" smooth="yes"/>
      <point x="701" y="112"/>
      <point x="874" y="244.519"/>
      <point x="874" y="375" type="curve" smooth="yes"/>
      <point x="874" y="961" type="line" smooth="no"/>
      <point x="692" y="961" type="line" smooth="no"/>
      <point x="692" y="1073" type="line" smooth="no"/>
      <point x="1090" y="1073" type="line" smooth="no"/>
      <point x="1090" y="113" type="line" smooth="no"/>
      <point x="1284" y="92" type="line" smooth="no"/>
      <point x="1284" y="0" type="line" smooth="no"/>
    </contour>
  </outline>
</glyph>
<glyph name="v" format="1">
  <advance width="1255"/>
  <unicode hex="0076"/>
  <outline>
    <contour>
      <point x="635" y="-39" type="line" smooth="no"/>
      <point x="565" y="-37"/>
      <point x="520.416" y="7.15039"/>
      <point x="483" y="109" type="curve" smooth="yes"/>
      <point x="170" y="961" type="line" smooth="no"/>
      <point x="-14" y="961" type="line" smooth="no"/>
      <point x="-14" y="1073" type="line" smooth="no"/>
      <point x="590" y="1073" type="line" smooth="no"/>
      <point x="590" y="961" type="line" smooth="no"/>
      <point x="408" y="961" type="line" smooth="no"/>
      <point x="672" y="158" type="line" smooth="no"/>
      <point x="928" y="961" type="line" smooth="no"/>
      <point x="758" y="961" type="line" smooth="no"/>
      <point x="758" y="1073" type="line" smooth="no"/>
      <point x="1270" y="1073" type="line" smooth="no"/>
      <point x="1270" y="961" type="line" smooth="no"/>
      <point x="1098" y="961" type="line" smooth="no"/>
      <point x="803" y="115" type="line" smooth="yes"/>
      <point x="764.883" y="5.6875"/>
      <point x="719" y="-39"/>
      <point x="641" y="-39" type="curve" smooth="yes"/>
    </contour>
  </outline>
</glyph>
<glyph name="w" format="1">
  <advance width="1687"/>
  <unicode hex="0077"/>
  <outline>
    <contour>
      <point x="1188" y="-39" type="curve" smooth="yes"/>
      <point x="1120" y="-39"/>
      <point x="1085" y="0"/>
      <point x="1057" y="102" type="curve" smooth="yes"/>
      <point x="881" y="748" type="line" smooth="no"/>
      <point x="674" y="111" type="line" smooth="yes"/>
      <point x="639" y="2"/>
      <point x="606" y="-39"/>
      <point x="530" y="-39" type="curve" smooth="yes"/>
      <point x="467" y="-39"/>
      <point x="430.824" y="-1.04492"/>
      <point x="403" y="104" type="curve" smooth="yes"/>
      <point x="176" y="961" type="line" smooth="no"/>
      <point x="8" y="961" type="line" smooth="no"/>
      <point x="8" y="1073" type="line" smooth="no"/>
      <point x="569" y="1073" type="line" smooth="no"/>
      <point x="569" y="961" type="line" smooth="no"/>
      <point x="408" y="961" type="line" smooth="no"/>
      <point x="575" y="219" type="line" smooth="no"/>
      <point x="809" y="958" type="line" smooth="no"/>
      <point x="991" y="958" type="line" smooth="no"/>
      <point x="1208" y="213" type="line" smooth="no"/>
      <point x="1395" y="961" type="line" smooth="no"/>
      <point x="1227" y="961" type="line" smooth="no"/>
      <point x="1227" y="1073" type="line" smooth="no"/>
      <point x="1688" y="1073" type="line" smooth="no"/>
      <point x="1688" y="961" type="line" smooth="no"/>
      <point x="1546" y="961" type="line" smooth="no"/>
      <point x="1319" y="109" type="line" smooth="no"/>
      <point x="1290" y="-4"/>
      <point x="1262" y="-39"/>
    </contour>
  </outline>
</glyph>
<glyph name="x" format="1">
  <advance width="1280"/>
  <unicode hex="0078"/>
  <outline>
    <contour>
      <point x="571" y="1073" type="line" smooth="no"/>
      <point x="571" y="961" type="line" smooth="no"/>
      <point x="422" y="961" type="line" smooth="no"/>
      <point x="647" y="659" type="line" smooth="no"/>
      <point x="874" y="961" type="line" smooth="no"/>
      <point x="713" y="961" type="line" smooth="no"/>
      <point x="713" y="1073" type="line" smooth="no"/>
      <point x="1217" y="1073" type="line" smooth="no"/>
      <point x="1217" y="961" type="line" smooth="no"/>
      <point x="1053" y="961" type="line" smooth="no"/>
      <point x="737" y="572" type="line" smooth="no"/>
      <point x="1110" y="112" type="line" smooth="no"/>
      <point x="1276" y="112" type="line" smooth="no"/>
      <point x="1276" y="0" type="line" smooth="no"/>
      <point x="682" y="0" type="line" smooth="no"/>
      <point x="682" y="112" type="line" smooth="no"/>
      <point x="860" y="112" type="line" smooth="no"/>
      <point x="622" y="440" type="line" smooth="no"/>
      <point x="362" y="112" type="line" smooth="no"/>
      <point x="543" y="112" type="line" smooth="no"/>
      <point x="543" y="0" type="line" smooth="no"/>
      <point x="27" y="0" type="line" smooth="no"/>
      <point x="27" y="112" type="line" smooth="no"/>
      <point x="184" y="112" type="line" smooth="no"/>
      <point x="522" y="526" type="line" smooth="no"/>
      <point x="168" y="961" type="line" smooth="no"/>
      <point x="4" y="961" type="line" smooth="no"/>
      <point x="4" y="1073" type="line" smooth="no"/>
    </contour>
  </outline>
</glyph>
<glyph name="y" format="1">
  <advance width="1280"/>
  <unicode hex="0079"/>
  <outline>
    <contour>
      <point x="360" y="-467" type="curve" smooth="yes"/>
      <point x="176" y="-467"/>
      <point x="49" y="-375"/>
      <point x="49" y="-244" type="curve" smooth="yes"/>
      <point x="49" y="-154"/>
      <point x="112" y="-84"/>
      <point x="221" y="-84" type="curve" smooth="yes"/>
      <point x="309" y="-84"/>
      <point x="346" y="-155"/>
      <point x="346" y="-229" type="curve" smooth="yes"/>
      <point x="346" y="-282"/>
      <point x="303" y="-320"/>
      <point x="262" y="-340" type="curve" smooth="no"/>
      <point x="285" y="-352"/>
      <point x="301" y="-362"/>
      <point x="328" y="-362" type="curve" smooth="yes"/>
      <point x="439" y="-362"/>
      <point x="524" y="-277"/>
      <point x="569" y="-23" type="curve" smooth="no"/>
      <point x="172" y="961" type="line" smooth="no"/>
      <point x="-27" y="961" type="line" smooth="no"/>
      <point x="-27" y="1073" type="line" smooth="no"/>
      <point x="590" y="1073" type="line" smooth="no"/>
      <point x="590" y="961" type="line" smooth="no"/>
      <point x="408" y="961" type="line" smooth="no"/>
      <point x="698" y="176" type="line" smooth="no"/>
      <point x="946" y="961" type="line" smooth="no"/>
      <point x="780" y="961" type="line" smooth="no"/>
      <point x="780" y="1073" type="line" smooth="no"/>
      <point x="1294" y="1073" type="line" smooth="no"/>
      <point x="1294" y="961" type="line" smooth="no"/>
      <point x="1122" y="961" type="line" smooth="no"/>
      <point x="778" y="-4" type="line" smooth="no"/>
      <point x="655" y="-358"/>
      <point x="532" y="-467"/>
    </contour>
  </outline>
</glyph>
<glyph name="z" format="1">
  <advance width="1093"/>
  <unicode hex="007a"/>
  <outline>
    <contour>
      <point x="1010" y="0" type="line" smooth="no"/>
      <point x="127" y="0" type="line" smooth="no"/>
      <point x="109" y="158" type="line" smooth="no"/>
      <point x="111" y="158" type="line" smooth="no"/>
      <point x="748" y="961" type="line" smooth="no"/>
      <point x="283" y="961" type="line" smooth="no"/>
      <point x="283" y="686" type="line" smooth="no"/>
      <point x="119" y="686" type="line" smooth="no"/>
      <point x="119" y="1073" type="line" smooth="no"/>
      <point x="940" y="1073" type="line" smooth="no"/>
      <point x="969" y="924" type="line" smooth="no"/>
      <point x="324" y="112" type="line" smooth="no"/>
      <point x="846" y="112" type="line" smooth="no"/>
      <point x="846" y="418" type="line" smooth="no"/>
      <point x="1010" y="418" type="line" smooth="no"/>
    </contour>
  </outline>
</glyph>
<glyph name="braceleft" format="1">
  <advance width="862"/>
  <unicode hex="007b"/>
  <outline>
    <contour>
      <point x="376" y="625" type="curve" smooth="no"/>
      <point x="509" y="594"/>
      <point x="522" y="502"/>
      <point x="522" y="236" type="curve" smooth="yes"/>
      <point x="522" y="-122"/>
      <point x="532" y="-248"/>
      <point x="794" y="-248" type="curve" smooth="no"/>
      <point x="794" y="-334" type="line" smooth="no"/>
      <point x="366" y="-334"/>
      <point x="296" y="-165"/>
      <point x="296" y="236" type="curve" smooth="yes"/>
      <point x="296" y="308"/>
      <point x="297" y="363"/>
      <point x="297" y="407" type="curve" smooth="yes"/>
      <point x="297" y="539"/>
      <point x="284" y="557"/>
      <point x="180" y="557" type="curve" smooth="yes"/>
      <point x="65" y="557" type="line" smooth="no"/>
      <point x="65" y="692" type="line" smooth="no"/>
      <point x="180" y="692" type="line" smooth="yes"/>
      <point x="284" y="692"/>
      <point x="297" y="710"/>
      <point x="297" y="842" type="curve" smooth="yes"/>
      <point x="297" y="886"/>
      <point x="296" y="942"/>
      <point x="296" y="1014" type="curve" smooth="yes"/>
      <point x="296" y="1415"/>
      <point x="366" y="1583"/>
      <point x="794" y="1583" type="curve" smooth="no"/>
      <point x="794" y="1497" type="line" smooth="no"/>
      <point x="532" y="1497"/>
      <point x="522" y="1372"/>
      <point x="522" y="1014" type="curve" smooth="yes"/>
      <point x="522" y="748"/>
      <point x="509" y="656"/>
    </contour>
  </outline>
</glyph>
<glyph name="bar" format="1">
  <advance width="487"/>
  <unicode hex="007c"/>
  <outline>
    <contour>
      <point x="333" y="1606" type="line" smooth="no"/>
      <point x="333" y="-246" type="line" smooth="no"/>
      <point x="153" y="-246" type="line" smooth="no"/>
      <point x="153" y="1606" type="line" smooth="no"/>
    </contour>
  </outline>
</glyph>
<glyph name="braceright" format="1">
  <advance width="862"/>
  <unicode hex="007d"/>
  <outline>
    <contour>
      <point x="534" y="625" type="curve" smooth="no"/>
      <point x="401" y="656"/>
      <point x="343" y="748"/>
      <point x="343" y="1014" type="curve" smooth="yes"/>
      <point x="343" y="1372"/>
      <point x="333" y="1497"/>
      <point x="71" y="1497" type="curve" smooth="no"/>
      <point x="71" y="1583" type="line" smooth="no"/>
      <point x="499" y="1583"/>
      <point x="568" y="1415"/>
      <point x="568" y="1014" type="curve" smooth="yes"/>
      <point x="568" y="725"/>
      <point x="573" y="684"/>
      <point x="712" y="684" type="curve" smooth="yes"/>
      <point x="800" y="684" type="line" smooth="no"/>
      <point x="800" y="565" type="line" smooth="no"/>
      <point x="712" y="565" type="line" smooth="yes"/>
      <point x="573" y="565"/>
      <point x="568" y="525"/>
      <point x="568" y="236" type="curve" smooth="yes"/>
      <point x="568" y="-165"/>
      <point x="499" y="-334"/>
      <point x="71" y="-334" type="curve" smooth="no"/>
      <point x="71" y="-248" type="line" smooth="no"/>
      <point x="333" y="-248"/>
      <point x="343" y="-122"/>
      <point x="343" y="236" type="curve" smooth="yes"/>
      <point x="343" y="502"/>
      <point x="401" y="594"/>
    </contour>
  </outline>
</glyph>
<glyph name="asciitilde" format="1">
  <advance width="1060"/>
  <unicode hex="007e"/>
  <outline>
    <contour>
      <point x="788" y="928" type="curve" smooth="yes"/>
      <point x="882" y="928"/>
      <point x="891" y="977"/>
      <point x="891" y="1071" type="curve" smooth="no"/>
      <point x="1016" y="1071" type="line" smooth="no"/>
      <point x="1016" y="815"/>
      <point x="932" y="752"/>
      <point x="758" y="752" type="curve" smooth="yes"/>
      <point x="602" y="752"/>
      <point x="356" y="887"/>
      <point x="272" y="887" type="curve" smooth="yes"/>
      <point x="178" y="887"/>
      <point x="170" y="846"/>
      <point x="170" y="752" type="curve" smooth="no"/>
      <point x="45" y="752" type="line" smooth="no"/>
      <point x="45" y="1006"/>
      <point x="127" y="1073"/>
      <point x="303" y="1073" type="curve" smooth="yes"/>
      <point x="455" y="1073"/>
      <point x="702" y="928"/>
    </contour>
  </outline>
</glyph>
<glyph name="cent" format="1">
  <advance width="1146"/>
  <unicode hex="00a2"/>
  <outline>
    <contour>
      <point x="559" y="143" type="curve" smooth="no"/>
      <point x="559" y="977" type="line" smooth="no"/>
      <point x="382" y="927"/>
      <point x="301" y="733"/>
      <point x="301" y="549" type="curve" smooth="yes"/>
      <point x="301" y="326"/>
      <point x="396" y="178"/>
    </contour>
    <contour>
      <point x="559" y="1290" type="line" smooth="no"/>
      <point x="647" y="1290" type="line" smooth="no"/>
      <point x="647" y="1103" type="line" smooth="no"/>
      <point x="829" y="1092"/>
      <point x="1040" y="981"/>
      <point x="1040" y="752" type="curve" smooth="yes"/>
      <point x="1040" y="683"/>
      <point x="990" y="590"/>
      <point x="883" y="590" type="curve" smooth="yes"/>
      <point x="800" y="590"/>
      <point x="729" y="643"/>
      <point x="729" y="731" type="curve" smooth="yes"/>
      <point x="729" y="824"/>
      <point x="808" y="868"/>
      <point x="883" y="868" type="curve" smooth="no"/>
      <point x="842" y="934"/>
      <point x="760" y="989"/>
      <point x="651" y="989" type="curve" smooth="yes"/>
      <point x="647" y="989" type="line" smooth="no"/>
      <point x="647" y="135" type="line" smooth="no"/>
      <point x="813" y="141"/>
      <point x="925" y="294"/>
      <point x="950" y="371" type="curve" smooth="no"/>
      <point x="1063" y="334" type="line" smooth="no"/>
      <point x="1018" y="137"/>
      <point x="872" y="-7"/>
      <point x="647" y="-27" type="curve" smooth="no"/>
      <point x="647" y="-213" type="line" smooth="no"/>
      <point x="559" y="-213" type="line" smooth="no"/>
      <point x="559" y="-28" type="line" smooth="no"/>
      <point x="287" y="-12"/>
      <point x="74" y="195"/>
      <point x="74" y="516" type="curve" smooth="yes"/>
      <point x="74" y="804"/>
      <point x="238" y="1074"/>
      <point x="559" y="1102" type="curve" smooth="no"/>
    </contour>
  </outline>
</glyph>
<glyph name="sterling" format="1">
  <advance width="1234"/>
  <unicode hex="00a3"/>
  <outline>
    <contour>
      <point x="402" y="1182" type="curve" smooth="yes"/>
      <point x="402" y="1030.85"/>
      <point x="495" y="956.88"/>
      <point x="535" y="780" type="curve" smooth="no"/>
      <point x="848" y="780" type="line" smooth="no"/>
      <point x="821" y="659" type="line" smooth="no"/>
      <point x="549" y="662" type="line" smooth="no"/>
      <point x="549" y="453.234"/>
      <point x="449" y="238.446"/>
      <point x="344" y="117" type="curve" smooth="no"/>
      <point x="924" y="117" type="line" smooth="no"/>
      <point x="924" y="496" type="line" smooth="no"/>
      <point x="1110" y="496" type="line" smooth="no"/>
      <point x="1110" y="0" type="line" smooth="no"/>
      <point x="170" y="0" type="line" smooth="no"/>
      <point x="106" y="135" type="line" smooth="no"/>
      <point x="210" y="255"/>
      <point x="313" y="439"/>
      <point x="313" y="659" type="curve" smooth="no"/>
      <point x="141" y="659" type="line" smooth="no"/>
      <point x="164" y="780" type="line" smooth="no"/>
      <point x="299" y="780" type="line" smooth="no"/>
      <point x="257" y="968.672"/>
      <point x="166" y="1035.14"/>
      <point x="166" y="1182" type="curve" smooth="yes"/>
      <point x="166" y="1391"/>
      <point x="370" y="1536"/>
      <point x="674" y="1536" type="curve" smooth="yes"/>
      <point x="904" y="1536"/>
      <point x="1108" y="1420"/>
      <point x="1108" y="1229" type="curve" smooth="yes"/>
      <point x="1108" y="1125"/>
      <point x="1042" y="1047"/>
      <point x="938" y="1047" type="curve" smooth="yes"/>
      <point x="854" y="1047"/>
      <point x="770" y="1098"/>
      <point x="770" y="1188" type="curve" smooth="yes"/>
      <point x="770" y="1266"/>
      <point x="848" y="1328"/>
      <point x="893" y="1336" type="curve" smooth="no"/>
      <point x="846" y="1385"/>
      <point x="784" y="1424"/>
      <point x="682" y="1424" type="curve" smooth="yes"/>
      <point x="517" y="1424"/>
      <point x="402" y="1329"/>
    </contour>
  </outline>
</glyph>
<glyph name="currency" format="1">
  <advance width="1196"/>
  <unicode hex="00a4"/>
  <outline>
    <contour>
      <point x="991" y="578" type="line" smooth="no"/>
      <point x="897" y="672" type="line" smooth="no"/>
      <point x="825" y="611"/>
      <point x="727" y="571"/>
      <point x="602" y="571" type="curve" smooth="yes"/>
      <point x="477" y="571"/>
      <point x="379" y="611"/>
      <point x="303" y="670" type="curve" smooth="no"/>
      <point x="210" y="578" type="line" smooth="no"/>
      <point x="151" y="637" type="line" smooth="no"/>
      <point x="243" y="729" type="line" smooth="no"/>
      <point x="177" y="813"/>
      <point x="143" y="920"/>
      <point x="143" y="1024" type="curve" smooth="yes"/>
      <point x="143" y="1133"/>
      <point x="177" y="1239"/>
      <point x="245" y="1323" type="curve" smooth="no"/>
      <point x="151" y="1417" type="line" smooth="no"/>
      <point x="210" y="1477" type="line" smooth="no"/>
      <point x="307" y="1380" type="line" smooth="no"/>
      <point x="379" y="1439"/>
      <point x="477" y="1477"/>
      <point x="600" y="1477" type="curve" smooth="yes"/>
      <point x="723" y="1477"/>
      <point x="820" y="1439"/>
      <point x="892" y="1378" type="curve" smooth="no"/>
      <point x="991" y="1477" type="line" smooth="no"/>
      <point x="1050" y="1417" type="line" smooth="no"/>
      <point x="952" y="1319" type="line" smooth="no"/>
      <point x="1020" y="1235"/>
      <point x="1052" y="1129"/>
      <point x="1052" y="1020" type="curve" smooth="yes"/>
      <point x="1052" y="918"/>
      <point x="1019" y="813"/>
      <point x="956" y="731" type="curve" smooth="no"/>
      <point x="1050" y="637" type="line" smooth="no"/>
    </contour>
    <contour>
      <point x="600" y="1368" type="curve" smooth="yes"/>
      <point x="416" y="1368"/>
      <point x="284" y="1235"/>
      <point x="284" y="1020" type="curve" smooth="yes"/>
      <point x="284" y="809"/>
      <point x="418" y="686"/>
      <point x="602" y="686" type="curve" smooth="yes"/>
      <point x="784" y="686"/>
      <point x="915" y="813"/>
      <point x="915" y="1020" type="curve" smooth="yes"/>
      <point x="915" y="1235"/>
      <point x="784" y="1368"/>
    </contour>
  </outline>
</glyph>
<glyph name="yen" format="1">
  <advance width="1601"/>
  <unicode hex="00a5"/>
  <outline>
    <contour>
      <point x="1143" y="735" type="line" smooth="no"/>
      <point x="1143" y="604" type="line" smooth="yes"/>
      <point x="1143" y="603"/>
      <point x="1061" y="603"/>
      <point x="950" y="603" type="curve" smooth="yes"/>
      <point x="903" y="603" type="line" smooth="no"/>
      <point x="895" y="590" type="line" smooth="no"/>
      <point x="895" y="528" type="line" smooth="no"/>
      <point x="1143" y="528" type="line" smooth="no"/>
      <point x="1143" y="397" type="line" smooth="no"/>
      <point x="895" y="397" type="line" smooth="no"/>
      <point x="895" y="137" type="line" smooth="no"/>
      <point x="1124" y="137" type="line" smooth="no"/>
      <point x="1124" y="0" type="line" smooth="no"/>
      <point x="416" y="0" type="line" smooth="no"/>
      <point x="416" y="137" type="line" smooth="no"/>
      <point x="659" y="137" type="line" smooth="no"/>
      <point x="659" y="397" type="line" smooth="no"/>
      <point x="397" y="397" type="line" smooth="no"/>
      <point x="397" y="528" type="line" smooth="no"/>
      <point x="659" y="528" type="line" smooth="no"/>
      <point x="659" y="595" type="line" smooth="no"/>
      <point x="654" y="603" type="line" smooth="no"/>
      <point x="513" y="603"/>
      <point x="397" y="604"/>
      <point x="397" y="604" type="curve" smooth="no"/>
      <point x="397" y="735" type="line" smooth="no"/>
      <point x="580" y="735" type="line" smooth="no"/>
      <point x="227" y="1362" type="line" smooth="no"/>
      <point x="23" y="1362" type="line" smooth="no"/>
      <point x="23" y="1505" type="line" smooth="no"/>
      <point x="692" y="1505" type="line" smooth="no"/>
      <point x="692" y="1362" type="line" smooth="no"/>
      <point x="463" y="1362" type="line" smooth="no"/>
      <point x="801" y="741" type="line" smooth="no"/>
      <point x="1149" y="1362" type="line" smooth="no"/>
      <point x="926" y="1362" type="line" smooth="no"/>
      <point x="926" y="1505" type="line" smooth="no"/>
      <point x="1532" y="1505" type="line" smooth="no"/>
      <point x="1532" y="1362" type="line" smooth="no"/>
      <point x="1343" y="1362" type="line" smooth="no"/>
      <point x="979" y="735" type="line" smooth="no"/>
    </contour>
  </outline>
</glyph>
<glyph name="brokenbar" format="1">
  <advance width="487"/>
  <unicode hex="00a6"/>
  <outline>
    <contour>
      <point x="333" y="1606" type="line" smooth="no"/>
      <point x="333" y="911" type="line" smooth="no"/>
      <point x="153" y="911" type="line" smooth="no"/>
      <point x="153" y="1606" type="line" smooth="no"/>
    </contour>
    <contour>
      <point x="333" y="449" type="line" smooth="no"/>
      <point x="333" y="-246" type="line" smooth="no"/>
      <point x="153" y="-246" type="line" smooth="no"/>
      <point x="153" y="449" type="line" smooth="no"/>
    </contour>
  </outline>
</glyph>
<glyph name="section" format="1">
  <advance width="1171"/>
  <unicode hex="00a7"/>
  <outline>
    <contour>
      <point x="588" y="-8" type="curve" smooth="yes"/>
      <point x="402" y="-8"/>
      <point x="162" y="41"/>
      <point x="162" y="244" type="curve" smooth="yes"/>
      <point x="162" y="334"/>
      <point x="225" y="393"/>
      <point x="291" y="393" type="curve" smooth="yes"/>
      <point x="363" y="393"/>
      <point x="432" y="356"/>
      <point x="432" y="276" type="curve" smooth="yes"/>
      <point x="432" y="206"/>
      <point x="394" y="166"/>
      <point x="326" y="160" type="curve" smooth="no"/>
      <point x="383" y="119"/>
      <point x="480" y="94"/>
      <point x="576" y="94" type="curve" smooth="yes"/>
      <point x="705" y="94"/>
      <point x="821" y="139"/>
      <point x="821" y="254" type="curve" smooth="yes"/>
      <point x="821" y="473"/>
      <point x="133" y="381"/>
      <point x="133" y="782" type="curve" smooth="yes"/>
      <point x="133" y="888"/>
      <point x="176" y="967"/>
      <point x="242" y="1020" type="curve" smooth="no"/>
      <point x="195" y="1063"/>
      <point x="166" y="1120"/>
      <point x="166" y="1198" type="curve" smooth="yes"/>
      <point x="166" y="1431"/>
      <point x="434" y="1487"/>
      <point x="586" y="1487" type="curve" smooth="yes"/>
      <point x="772" y="1487"/>
      <point x="1012" y="1438"/>
      <point x="1012" y="1235" type="curve" smooth="yes"/>
      <point x="1012" y="1145"/>
      <point x="949" y="1085"/>
      <point x="883" y="1085" type="curve" smooth="yes"/>
      <point x="811" y="1085"/>
      <point x="742" y="1122"/>
      <point x="742" y="1202" type="curve" smooth="yes"/>
      <point x="742" y="1272"/>
      <point x="780" y="1313"/>
      <point x="848" y="1319" type="curve" smooth="no"/>
      <point x="791" y="1360"/>
      <point x="694" y="1384"/>
      <point x="598" y="1384" type="curve" smooth="yes"/>
      <point x="469" y="1384"/>
      <point x="352" y="1340"/>
      <point x="352" y="1225" type="curve" smooth="yes"/>
      <point x="352" y="1006"/>
      <point x="1041" y="1097"/>
      <point x="1041" y="696" type="curve" smooth="yes"/>
      <point x="1041" y="590"/>
      <point x="998" y="512"/>
      <point x="932" y="459" type="curve" smooth="no"/>
      <point x="979" y="416"/>
      <point x="1008" y="359"/>
      <point x="1008" y="281" type="curve" smooth="yes"/>
      <point x="1008" y="48"/>
      <point x="740" y="-8"/>
    </contour>
    <contour>
      <point x="793" y="543" type="curve" smooth="no"/>
      <point x="829" y="570"/>
      <point x="850" y="614"/>
      <point x="850" y="666" type="curve" smooth="yes"/>
      <point x="850" y="836"/>
      <point x="582" y="854"/>
      <point x="381" y="936" type="curve" smooth="no"/>
      <point x="344" y="907"/>
      <point x="324" y="866"/>
      <point x="324" y="813" type="curve" smooth="yes"/>
      <point x="324" y="643"/>
      <point x="592" y="625"/>
    </contour>
  </outline>
</glyph>
<glyph name="copyright" format="1">
  <advance width="1703"/>
  <unicode hex="00a9"/>
  <outline>
    <contour>
      <point x="1270" y="614" type="line" smooth="no"/>
      <point x="1228" y="439"/>
      <point x="1074" y="333"/>
      <point x="901" y="333" type="curve" smooth="yes"/>
      <point x="656" y="333"/>
      <point x="472" y="534"/>
      <point x="472" y="783" type="curve" smooth="yes"/>
      <point x="472" y="1044"/>
      <point x="652" y="1232"/>
      <point x="911" y="1232" type="curve" smooth="yes"/>
      <point x="1070" y="1232"/>
      <point x="1243" y="1126"/>
      <point x="1243" y="953" type="curve" smooth="yes"/>
      <point x="1243" y="899"/>
      <point x="1196" y="831"/>
      <point x="1114" y="831" type="curve" smooth="yes"/>
      <point x="1054" y="831"/>
      <point x="1001" y="874"/>
      <point x="1001" y="936" type="curve" smooth="yes"/>
      <point x="1001" y="1011"/>
      <point x="1082" y="1044"/>
      <point x="1122" y="1044" type="curve" smooth="no"/>
      <point x="1086" y="1098"/>
      <point x="1015" y="1149"/>
      <point x="909" y="1149" type="curve" smooth="yes"/>
      <point x="752" y="1149"/>
      <point x="640" y="1014"/>
      <point x="640" y="787" type="curve" smooth="yes"/>
      <point x="640" y="620"/>
      <point x="741" y="439"/>
      <point x="921" y="439" type="curve" smooth="yes"/>
      <point x="1065" y="439"/>
      <point x="1164" y="554"/>
      <point x="1190" y="654" type="curve" smooth="no"/>
    </contour>
    <contour>
      <point x="871" y="72" type="curve" smooth="yes"/>
      <point x="1251" y="72"/>
      <point x="1561" y="382.549"/>
      <point x="1561" y="760" type="curve" smooth="yes"/>
      <point x="1561" y="1138.35"/>
      <point x="1251" y="1446"/>
      <point x="871" y="1446" type="curve" smooth="yes"/>
      <point x="493" y="1446"/>
      <point x="182" y="1138.35"/>
      <point x="182" y="760" type="curve" smooth="yes"/>
      <point x="182" y="382.549"/>
      <point x="493" y="72"/>
    </contour>
    <contour>
      <point x="869" y="-27" type="curve" smooth="yes"/>
      <point x="441" y="-27"/>
      <point x="86" y="328.547"/>
      <point x="86" y="758" type="curve" smooth="yes"/>
      <point x="86" y="1184.36"/>
      <point x="441" y="1536"/>
      <point x="869" y="1536" type="curve" smooth="yes"/>
      <point x="1299" y="1536"/>
      <point x="1652" y="1184.36"/>
      <point x="1652" y="758" type="curve" smooth="yes"/>
      <point x="1652" y="328.547"/>
      <point x="1299" y="-27"/>
    </contour>
  </outline>
</glyph>
<glyph name="ordfeminine" format="1">
  <advance width="1312"/>
  <unicode hex="00aa"/>
  <outline>
    <contour>
      <point x="323" y="756" type="curve" smooth="yes"/>
      <point x="323" y="701"/>
      <point x="353" y="659"/>
      <point x="423" y="659" type="curve" smooth="yes"/>
      <point x="540" y="659"/>
      <point x="681" y="781"/>
      <point x="681" y="877" type="curve" smooth="yes"/>
      <point x="681" y="1057" type="line" smooth="no"/>
      <point x="509" y="889"/>
      <point x="323" y="903"/>
    </contour>
    <contour>
      <point x="1171" y="827" type="line" smooth="yes"/>
      <point x="1171" y="591"/>
      <point x="1064" y="537"/>
      <point x="935" y="535" type="curve" smooth="no"/>
      <point x="931" y="535" type="line" smooth="yes"/>
      <point x="820" y="535"/>
      <point x="707" y="605"/>
      <point x="695" y="750" type="curve" smooth="no"/>
      <point x="644" y="627"/>
      <point x="517" y="535"/>
      <point x="378" y="535" type="curve" smooth="yes"/>
      <point x="241" y="535"/>
      <point x="138" y="613"/>
      <point x="138" y="748" type="curve" smooth="yes"/>
      <point x="138" y="1033"/>
      <point x="681" y="1000"/>
      <point x="681" y="1219" type="curve" smooth="yes"/>
      <point x="681" y="1352"/>
      <point x="610" y="1411"/>
      <point x="497" y="1411" type="curve" smooth="yes"/>
      <point x="417" y="1411"/>
      <point x="337" y="1384"/>
      <point x="296" y="1339" type="curve" smooth="no"/>
      <point x="374" y="1339"/>
      <point x="417" y="1290"/>
      <point x="417" y="1239" type="curve" smooth="yes"/>
      <point x="417" y="1165"/>
      <point x="359" y="1118"/>
      <point x="296" y="1118" type="curve" smooth="yes"/>
      <point x="237" y="1118"/>
      <point x="169" y="1161"/>
      <point x="169" y="1257" type="curve" smooth="yes"/>
      <point x="169" y="1345"/>
      <point x="286" y="1499"/>
      <point x="534" y="1499" type="curve" smooth="yes"/>
      <point x="714" y="1499"/>
      <point x="865" y="1423"/>
      <point x="865" y="1194" type="curve" smooth="yes"/>
      <point x="865" y="801" type="line" smooth="yes"/>
      <point x="865" y="744"/>
      <point x="888" y="657"/>
      <point x="968" y="657" type="curve" smooth="yes"/>
      <point x="1050" y="657"/>
      <point x="1076" y="719"/>
      <point x="1076" y="809" type="curve" smooth="yes"/>
      <point x="1076" y="936" type="line" smooth="no"/>
      <point x="1171" y="936" type="line" smooth="no"/>
    </contour>
  </outline>
</glyph>
<glyph name="guillemotleft" format="1">
  <advance width="966"/>
  <unicode hex="00ab"/>
  <outline>
    <contour>
      <point x="502" y="258" type="line" smooth="no"/>
      <point x="502" y="485" type="line" smooth="no"/>
      <point x="742" y="672" type="line" smooth="no"/>
      <point x="502" y="846" type="line" smooth="no"/>
      <point x="502" y="1061" type="line" smooth="no"/>
      <point x="588" y="987"/>
      <point x="889" y="731"/>
      <point x="889" y="731" type="curve" smooth="no"/>
      <point x="889" y="596" type="line" smooth="no"/>
    </contour>
    <contour>
      <point x="84" y="258" type="line" smooth="no"/>
      <point x="84" y="485" type="line" smooth="no"/>
      <point x="324" y="672" type="line" smooth="no"/>
      <point x="84" y="846" type="line" smooth="no"/>
      <point x="84" y="1061" type="line" smooth="no"/>
      <point x="170" y="987"/>
      <point x="471" y="731"/>
      <point x="471" y="731" type="curve" smooth="no"/>
      <point x="471" y="596" type="line" smooth="no"/>
    </contour>
  </outline>
</glyph>
<glyph name="logicalnot" format="1">
  <advance width="1136"/>
  <unicode hex="00ac"/>
  <outline>
    <contour>
      <point x="814" y="289" type="line" smooth="no"/>
      <point x="814" y="649" type="line" smooth="no"/>
      <point x="150" y="649" type="line" smooth="no"/>
      <point x="150" y="797" type="line" smooth="no"/>
      <point x="984" y="797" type="line" smooth="no"/>
      <point x="984" y="289" type="line" smooth="no"/>
    </contour>
  </outline>
</glyph>
<glyph name="uni00AD" format="1">
  <advance width="970"/>
  <unicode hex="00ad"/>
  <outline>
    <contour>
      <point x="816" y="797" type="line" smooth="no"/>
      <point x="816" y="649" type="line" smooth="no"/>
      <point x="153" y="649" type="line" smooth="no"/>
      <point x="153" y="797" type="line" smooth="no"/>
    </contour>
  </outline>
</glyph>
<glyph name="registered" format="1">
  <advance width="1703"/>
  <unicode hex="00ae"/>
  <outline>
    <contour>
      <point x="731.34" y="829.26" type="line" smooth="no"/>
      <point x="783.36" y="829.26" type="line" smooth="yes"/>
      <point x="950.64" y="829.26"/>
      <point x="1032.24" y="869.04"/>
      <point x="1032.24" y="977.16" type="curve" smooth="yes"/>
      <point x="1032.24" y="1096.5"/>
      <point x="958.8" y="1128.12"/>
      <point x="779.28" y="1128.12" type="curve" smooth="yes"/>
      <point x="731.34" y="1128.12" type="line" smooth="no"/>
    </contour>
    <contour>
      <point x="1144.44" y="334.56" type="curve" smooth="yes"/>
      <point x="1000.62" y="334.56"/>
      <point x="957.78" y="413.1"/>
      <point x="929.22" y="580.38" type="curve" smooth="yes"/>
      <point x="909.84" y="695.64"/>
      <point x="851.7" y="759.9"/>
      <point x="835.38" y="759.9" type="curve" smooth="yes"/>
      <point x="731.34" y="759.9" type="line" smooth="no"/>
      <point x="731.34" y="430.44" type="line" smooth="no"/>
      <point x="835.38" y="430.44" type="line" smooth="no"/>
      <point x="835.38" y="350.88" type="line" smooth="no"/>
      <point x="446.76" y="350.88" type="line" smooth="no"/>
      <point x="446.76" y="430.44" type="line" smooth="no"/>
      <point x="574.26" y="430.44" type="line" smooth="no"/>
      <point x="574.26" y="1128.12" type="line" smooth="no"/>
      <point x="446.76" y="1128.12" type="line" smooth="no"/>
      <point x="446.76" y="1209.72" type="line" smooth="no"/>
      <point x="779.28" y="1209.72" type="line" smooth="yes"/>
      <point x="946.56" y="1209.72"/>
      <point x="1190.34" y="1198.5"/>
      <point x="1190.34" y="977.16" type="curve" smooth="yes"/>
      <point x="1190.34" y="847.62"/>
      <point x="1084.26" y="800.7"/>
      <point x="962.88" y="777.24" type="curve" smooth="no"/>
      <point x="1178.1" y="731.34"/>
      <point x="1074.06" y="432.48"/>
      <point x="1169.94" y="432.48" type="curve" smooth="yes"/>
      <point x="1211.76" y="432.48"/>
      <point x="1234.2" y="462.06"/>
      <point x="1234.2" y="547.74" type="curve" smooth="yes"/>
      <point x="1234.2" y="620.16" type="line" smooth="no"/>
      <point x="1339.26" y="620.16" type="line" smooth="no"/>
      <point x="1339.26" y="534.48" type="line" smooth="yes"/>
      <point x="1339.26" y="365.16"/>
      <point x="1224" y="334.56"/>
    </contour>
    <contour>
      <point x="871.08" y="72.4004" type="curve" smooth="yes"/>
      <point x="1251.54" y="72.4004"/>
      <point x="1560.6" y="382.03"/>
      <point x="1560.6" y="759.9" type="curve" smooth="yes"/>
      <point x="1560.6" y="1138.71"/>
      <point x="1251.54" y="1446.42"/>
      <point x="871.08" y="1446.42" type="curve" smooth="yes"/>
      <point x="492.66" y="1446.42"/>
      <point x="181.56" y="1138.71"/>
      <point x="181.56" y="759.9" type="curve" smooth="yes"/>
      <point x="181.56" y="382.03"/>
      <point x="492.66" y="72.4004"/>
    </contour>
    <contour>
      <point x="869.04" y="-26.54" type="curve" smooth="yes"/>
      <point x="440.64" y="-26.54"/>
      <point x="85.6797" y="327.968"/>
      <point x="85.6797" y="757.86" type="curve" smooth="yes"/>
      <point x="85.6797" y="1184.61"/>
      <point x="440.64" y="1536.18"/>
      <point x="869.04" y="1536.18" type="curve" smooth="yes"/>
      <point x="1299.48" y="1536.18"/>
      <point x="1652.4" y="1184.61"/>
      <point x="1652.4" y="757.86" type="curve" smooth="yes"/>
      <point x="1652.4" y="327.968"/>
      <point x="1299.48" y="-26.54"/>
    </contour>
  </outline>
</glyph>
<glyph name="macron" format="1">
  <advance width="889"/>
  <unicode hex="00af"/>
  <outline>
    <contour>
      <point x="735" y="1341" type="line" smooth="no"/>
      <point x="153" y="1341" type="line" smooth="no"/>
      <point x="153" y="1479" type="line" smooth="no"/>
      <point x="735" y="1479" type="line" smooth="no"/>
    </contour>
  </outline>
</glyph>
<glyph name="degree" format="1">
  <advance width="921"/>
  <unicode hex="00b0"/>
  <outline>
    <contour>
      <point x="461" y="1421" type="curve" smooth="yes"/>
      <point x="375" y="1421"/>
      <point x="283" y="1352"/>
      <point x="283" y="1217" type="curve" smooth="yes"/>
      <point x="283" y="1080"/>
      <point x="371" y="1018"/>
      <point x="459" y="1018" type="curve" smooth="yes"/>
      <point x="545" y="1018"/>
      <point x="639" y="1086"/>
      <point x="639" y="1217" type="curve" smooth="yes"/>
      <point x="639" y="1352"/>
      <point x="547" y="1421"/>
    </contour>
    <contour>
      <point x="145" y="1217" type="curve" smooth="yes"/>
      <point x="145" y="1381"/>
      <point x="260" y="1509"/>
      <point x="461" y="1509" type="curve" smooth="yes"/>
      <point x="660" y="1509"/>
      <point x="776" y="1381"/>
      <point x="776" y="1217" type="curve" smooth="yes"/>
      <point x="776" y="1053"/>
      <point x="660" y="922"/>
      <point x="461" y="922" type="curve" smooth="yes"/>
      <point x="264" y="922"/>
      <point x="145" y="1049"/>
    </contour>
  </outline>
</glyph>
<glyph name="plusminus" format="1">
  <advance width="956"/>
  <unicode hex="00b1"/>
  <outline>
    <contour>
      <point x="102" y="147" type="line" smooth="no"/>
      <point x="854" y="147" type="line" smooth="no"/>
      <point x="854" y="0" type="line" smooth="no"/>
      <point x="102" y="0" type="line" smooth="no"/>
    </contour>
    <contour>
      <point x="563" y="621" type="line" smooth="no"/>
      <point x="563" y="326" type="line" smooth="no"/>
      <point x="393" y="326" type="line" smooth="no"/>
      <point x="393" y="621" type="line" smooth="no"/>
      <point x="102" y="621" type="line" smooth="no"/>
      <point x="102" y="768" type="line" smooth="no"/>
      <point x="393" y="768" type="line" smooth="no"/>
      <point x="393" y="1053" type="line" smooth="no"/>
      <point x="563" y="1053" type="line" smooth="no"/>
      <point x="563" y="768" type="line" smooth="no"/>
      <point x="854" y="768" type="line" smooth="no"/>
      <point x="854" y="621" type="line" smooth="no"/>
    </contour>
  </outline>
</glyph>
<glyph name="twosuperior" format="1">
  <advance width="1001"/>
  <unicode hex="00b2"/>
  <outline>
    <contour>
      <point x="844" y="571" type="line" smooth="no"/>
      <point x="817" y="797" type="line" smooth="no"/>
      <point x="422" y="797" type="line" smooth="no"/>
      <point x="623" y="944" type="line" smooth="no"/>
      <point x="777" y="1044"/>
      <point x="821" y="1151"/>
      <point x="821" y="1219" type="curve" smooth="yes"/>
      <point x="821" y="1401"/>
      <point x="704" y="1505"/>
      <point x="522" y="1505" type="curve" smooth="yes"/>
      <point x="327" y="1505"/>
      <point x="170" y="1393"/>
      <point x="170" y="1270" type="curve" smooth="yes"/>
      <point x="170" y="1266" type="line" smooth="no"/>
      <point x="172" y="1209"/>
      <point x="207" y="1145"/>
      <point x="293" y="1145" type="curve" smooth="yes"/>
      <point x="361" y="1145"/>
      <point x="408" y="1187"/>
      <point x="408" y="1255" type="curve" smooth="yes"/>
      <point x="408" y="1308"/>
      <point x="367" y="1338"/>
      <point x="336" y="1348" type="curve" smooth="no"/>
      <point x="377" y="1395"/>
      <point x="433" y="1419"/>
      <point x="496" y="1419" type="curve" smooth="yes"/>
      <point x="588" y="1419"/>
      <point x="668" y="1331"/>
      <point x="668" y="1231" type="curve" smooth="yes"/>
      <point x="668" y="1157"/>
      <point x="633" y="1081"/>
      <point x="553" y="1026" type="curve" smooth="yes"/>
      <point x="533" y="1012"/>
      <point x="199" y="764"/>
      <point x="199" y="764" type="curve" smooth="no"/>
      <point x="201" y="764"/>
      <point x="213" y="674"/>
      <point x="213" y="674" type="curve" smooth="no"/>
      <point x="723" y="674" type="line" smooth="no"/>
      <point x="793" y="563" type="line" smooth="no"/>
    </contour>
  </outline>
</glyph>
<glyph name="uni00B2" format="1">
  <advance width="924"/>
  <unicode hex="00b2"/>
  <outline>
    <contour>
      <point x="155" y="795" type="curve" smooth="no"/>
      <point x="272" y="882"/>
      <point x="624" y="1074"/>
      <point x="624" y="1262" type="curve" smooth="yes"/>
      <point x="624" y="1362"/>
      <point x="544" y="1450"/>
      <point x="452" y="1450" type="curve" smooth="yes"/>
      <point x="389" y="1450"/>
      <point x="333" y="1426"/>
      <point x="292" y="1379" type="curve" smooth="no"/>
      <point x="323" y="1369"/>
      <point x="364" y="1340"/>
      <point x="364" y="1287" type="curve" smooth="yes"/>
      <point x="364" y="1219"/>
      <point x="317" y="1176"/>
      <point x="249" y="1176" type="curve" smooth="yes"/>
      <point x="163" y="1176"/>
      <point x="128" y="1240"/>
      <point x="126" y="1297" type="curve" smooth="no"/>
      <point x="126" y="1301" type="line" smooth="yes"/>
      <point x="126" y="1424"/>
      <point x="283" y="1536"/>
      <point x="478" y="1536" type="curve" smooth="yes"/>
      <point x="660" y="1536"/>
      <point x="777" y="1432"/>
      <point x="777" y="1250" type="curve" smooth="yes"/>
      <point x="777" y="1182"/>
      <point x="727" y="1083"/>
      <point x="579" y="975" type="curve" smooth="yes"/>
      <point x="378" y="828" type="line" smooth="no"/>
      <point x="773" y="828" type="line" smooth="no"/>
      <point x="800" y="603" type="line" smooth="no"/>
      <point x="749" y="594" type="line" smooth="no"/>
      <point x="679" y="705" type="line" smooth="no"/>
      <point x="169" y="705" type="line" smooth="no"/>
      <point x="169" y="705"/>
      <point x="157" y="795"/>
    </contour>
  </outline>
</glyph>
<glyph name="uni00B3" format="1">
  <advance width="814"/>
  <unicode hex="00b3"/>
  <outline>
    <contour>
      <point x="343" y="682" type="curve" smooth="yes"/>
      <point x="230" y="682"/>
      <point x="128" y="727"/>
      <point x="128" y="809" type="curve" smooth="yes"/>
      <point x="128" y="858"/>
      <point x="153" y="897"/>
      <point x="214" y="897" type="curve" smooth="yes"/>
      <point x="267" y="897"/>
      <point x="300" y="860"/>
      <point x="300" y="819" type="curve" smooth="yes"/>
      <point x="300" y="799"/>
      <point x="294" y="776"/>
      <point x="284" y="762" type="curve" smooth="no"/>
      <point x="307" y="758"/>
      <point x="327" y="756"/>
      <point x="345" y="756" type="curve" smooth="yes"/>
      <point x="474" y="756"/>
      <point x="556" y="844"/>
      <point x="556" y="944" type="curve" smooth="yes"/>
      <point x="556" y="1019"/>
      <point x="532" y="1100"/>
      <point x="397" y="1100" type="curve" smooth="yes"/>
      <point x="379" y="1100"/>
      <point x="358" y="1098"/>
      <point x="335" y="1094" type="curve" smooth="no"/>
      <point x="321" y="1170" type="line" smooth="no"/>
      <point x="454" y="1190"/>
      <point x="519" y="1249"/>
      <point x="519" y="1333" type="curve" smooth="yes"/>
      <point x="519" y="1417"/>
      <point x="452" y="1469"/>
      <point x="370" y="1469" type="curve" smooth="yes"/>
      <point x="323" y="1469"/>
      <point x="270" y="1450"/>
      <point x="225" y="1409" type="curve" smooth="no"/>
      <point x="260" y="1403"/>
      <point x="306" y="1382"/>
      <point x="306" y="1323" type="curve" smooth="yes"/>
      <point x="306" y="1272"/>
      <point x="263" y="1233"/>
      <point x="210" y="1233" type="curve" smooth="yes"/>
      <point x="141" y="1233"/>
      <point x="112" y="1287"/>
      <point x="112" y="1337" type="curve" smooth="yes"/>
      <point x="112" y="1433"/>
      <point x="230" y="1536"/>
      <point x="384" y="1536" type="curve" smooth="yes"/>
      <point x="562" y="1536"/>
      <point x="638" y="1436"/>
      <point x="638" y="1342" type="curve" smooth="yes"/>
      <point x="638" y="1258"/>
      <point x="571" y="1182"/>
      <point x="452" y="1159" type="curve" smooth="no"/>
      <point x="624" y="1159"/>
      <point x="704" y="1062"/>
      <point x="704" y="948" type="curve" smooth="yes"/>
      <point x="704" y="799"/>
      <point x="561" y="682"/>
    </contour>
  </outline>
</glyph>
<glyph name="acute" format="1">
  <advance width="1269"/>
  <unicode hex="00b4"/>
  <outline>
    <contour>
      <point x="971" y="1458" type="line" smooth="no"/>
      <point x="871" y="1356"/>
      <point x="424" y="1194"/>
      <point x="424" y="1194" type="curve" smooth="no"/>
      <point x="395" y="1233" type="line" smooth="no"/>
      <point x="577" y="1389"/>
      <point x="870" y="1597"/>
      <point x="870" y="1597" type="curve" smooth="no"/>
    </contour>
  </outline>
</glyph>
<glyph name="cedilla" format="1">
  <advance width="337"/>
  <unicode hex="00b8"/>
  <outline>
    <contour>
      <point x="307" y="-276" type="line" smooth="yes"/>
      <point x="307" y="-405"/>
      <point x="37" y="-444"/>
      <point x="37" y="-444" type="curve" smooth="no"/>
      <point x="8" y="-373" type="line" smooth="no"/>
      <point x="74" y="-361"/>
      <point x="154" y="-336"/>
      <point x="154" y="-307" type="curve" smooth="yes"/>
      <point x="154" y="-264"/>
      <point x="59" y="-217"/>
      <point x="59" y="-168" type="curve" smooth="yes"/>
      <point x="59" y="-96"/>
      <point x="147" y="0"/>
      <point x="268" y="0" type="curve" smooth="yes"/>
      <point x="307" y="0" type="line" smooth="no"/>
    </contour>
  </outline>
</glyph>
<glyph name="uni00B9" format="1">
  <advance width="680"/>
  <unicode hex="00b9"/>
  <outline>
    <contour>
      <point x="143" y="725" type="line" smooth="no"/>
      <point x="143" y="811" type="line" smooth="no"/>
      <point x="276" y="811" type="line" smooth="no"/>
      <point x="276" y="1386" type="line" smooth="no"/>
      <point x="143" y="1351" type="line" smooth="no"/>
      <point x="143" y="1458" type="line" smooth="no"/>
      <point x="422" y="1536" type="line" smooth="no"/>
      <point x="422" y="811" type="line" smooth="no"/>
      <point x="547" y="811" type="line" smooth="no"/>
      <point x="547" y="725" type="line" smooth="no"/>
    </contour>
  </outline>
</glyph>
<glyph name="ordmasculine" format="1">
  <advance width="1177"/>
  <unicode hex="00ba"/>
  <outline>
    <contour>
      <point x="589" y="1434" type="curve" smooth="yes"/>
      <point x="415" y="1434"/>
      <point x="339" y="1264"/>
      <point x="339" y="1043" type="curve" smooth="yes"/>
      <point x="339" y="826"/>
      <point x="433" y="680"/>
      <point x="591" y="680" type="curve" smooth="yes"/>
      <point x="747" y="680"/>
      <point x="837" y="830"/>
      <point x="837" y="1043" type="curve" smooth="yes"/>
      <point x="837" y="1264"/>
      <point x="765" y="1434"/>
    </contour>
    <contour>
      <point x="591" y="572" type="curve" smooth="yes"/>
      <point x="310" y="572"/>
      <point x="143" y="781"/>
      <point x="143" y="1053" type="curve" smooth="yes"/>
      <point x="143" y="1325"/>
      <point x="308" y="1536"/>
      <point x="589" y="1536" type="curve" smooth="yes"/>
      <point x="870" y="1536"/>
      <point x="1033" y="1325"/>
      <point x="1033" y="1053" type="curve" smooth="yes"/>
      <point x="1033" y="783"/>
      <point x="870" y="572"/>
    </contour>
  </outline>
</glyph>
<glyph name="onequarter" format="1">
  <advance width="1526"/>
  <unicode hex="00bc"/>
  <outline>
    <contour>
      <point x="1218" y="1479" type="line" smooth="no"/>
      <point x="1318" y="1419" type="line" smooth="no"/>
      <point x="253" y="-61" type="line" smooth="no"/>
      <point x="153" y="-2" type="line" smooth="no"/>
    </contour>
    <contour>
      <point x="69" y="750" type="line" smooth="no"/>
      <point x="69" y="836" type="line" smooth="no"/>
      <point x="202" y="836" type="line" smooth="no"/>
      <point x="202" y="1411" type="line" smooth="no"/>
      <point x="69" y="1376" type="line" smooth="no"/>
      <point x="69" y="1483" type="line" smooth="no"/>
      <point x="348" y="1561" type="line" smooth="no"/>
      <point x="348" y="836" type="line" smooth="no"/>
      <point x="473" y="836" type="line" smooth="no"/>
      <point x="473" y="750" type="line" smooth="no"/>
    </contour>
    <contour>
      <point x="1458" y="86" type="line" smooth="no"/>
      <point x="1458" y="0" type="line" smooth="no"/>
      <point x="1056" y="0" type="line" smooth="no"/>
      <point x="1056" y="86" type="line" smooth="no"/>
      <point x="1202" y="86" type="line" smooth="no"/>
      <point x="1202" y="268" type="line" smooth="no"/>
      <point x="853" y="268" type="line" smooth="no"/>
      <point x="853" y="360" type="line" smooth="no"/>
      <point x="1169" y="805" type="line" smooth="no"/>
      <point x="1327" y="805" type="line" smooth="no"/>
      <point x="1327" y="352" type="line" smooth="no"/>
      <point x="1458" y="352" type="line" smooth="no"/>
      <point x="1458" y="268" type="line" smooth="no"/>
      <point x="1327" y="268" type="line" smooth="no"/>
      <point x="1327" y="86" type="line" smooth="no"/>
    </contour>
    <contour>
      <point x="1202" y="352" type="line" smooth="no"/>
      <point x="1202" y="696" type="line" smooth="no"/>
      <point x="966" y="352" type="line" smooth="no"/>
    </contour>
  </outline>
</glyph>
<glyph name="onehalf" format="1">
  <advance width="1668"/>
  <unicode hex="00bd"/>
  <outline>
    <contour>
      <point x="1219" y="1479" type="line" smooth="no"/>
      <point x="1319" y="1419" type="line" smooth="no"/>
      <point x="254" y="-61" type="line" smooth="no"/>
      <point x="154" y="-2" type="line" smooth="no"/>
    </contour>
    <contour>
      <point x="70" y="750" type="line" smooth="no"/>
      <point x="70" y="836" type="line" smooth="no"/>
      <point x="203" y="836" type="line" smooth="no"/>
      <point x="203" y="1411" type="line" smooth="no"/>
      <point x="70" y="1376" type="line" smooth="no"/>
      <point x="70" y="1483" type="line" smooth="no"/>
      <point x="349" y="1561" type="line" smooth="no"/>
      <point x="349" y="836" type="line" smooth="no"/>
      <point x="474" y="836" type="line" smooth="no"/>
      <point x="474" y="750" type="line" smooth="no"/>
    </contour>
    <contour>
      <point x="957" y="90" type="curve" smooth="no"/>
      <point x="1074" y="177"/>
      <point x="1426" y="369"/>
      <point x="1426" y="557" type="curve" smooth="yes"/>
      <point x="1426" y="657"/>
      <point x="1346" y="745"/>
      <point x="1254" y="745" type="curve" smooth="yes"/>
      <point x="1191" y="745"/>
      <point x="1135" y="721"/>
      <point x="1094" y="674" type="curve" smooth="no"/>
      <point x="1125" y="664"/>
      <point x="1166" y="635"/>
      <point x="1166" y="582" type="curve" smooth="yes"/>
      <point x="1166" y="514"/>
      <point x="1119" y="471"/>
      <point x="1051" y="471" type="curve" smooth="yes"/>
      <point x="965" y="471"/>
      <point x="930" y="535"/>
      <point x="928" y="592" type="curve" smooth="no"/>
      <point x="928" y="596" type="line" smooth="yes"/>
      <point x="928" y="719"/>
      <point x="1085" y="831"/>
      <point x="1280" y="831" type="curve" smooth="yes"/>
      <point x="1462" y="831"/>
      <point x="1579" y="727"/>
      <point x="1579" y="545" type="curve" smooth="yes"/>
      <point x="1579" y="477"/>
      <point x="1529" y="378"/>
      <point x="1381" y="270" type="curve" smooth="yes"/>
      <point x="1180" y="123" type="line" smooth="no"/>
      <point x="1575" y="123" type="line" smooth="no"/>
      <point x="1602" y="-102" type="line" smooth="no"/>
      <point x="1551" y="-111" type="line" smooth="no"/>
      <point x="1481" y="0" type="line" smooth="no"/>
      <point x="971" y="0" type="line" smooth="no"/>
      <point x="971" y="0"/>
      <point x="959" y="90"/>
    </contour>
  </outline>
</glyph>
<glyph name="threequarters" format="1">
  <advance width="1576"/>
  <unicode hex="00be"/>
  <outline>
    <contour>
      <point x="1015" y="352" type="line" smooth="no"/>
      <point x="1251" y="352" type="line" smooth="no"/>
      <point x="1251" y="696" type="line" smooth="no"/>
    </contour>
    <contour>
      <point x="1507" y="0" type="line" smooth="no"/>
      <point x="1105" y="0" type="line" smooth="no"/>
      <point x="1105" y="86" type="line" smooth="no"/>
      <point x="1251" y="86" type="line" smooth="no"/>
      <point x="1251" y="268" type="line" smooth="no"/>
      <point x="902" y="268" type="line" smooth="no"/>
      <point x="902" y="360" type="line" smooth="no"/>
      <point x="1218" y="805" type="line" smooth="no"/>
      <point x="1376" y="805" type="line" smooth="no"/>
      <point x="1376" y="352" type="line" smooth="no"/>
      <point x="1507" y="352" type="line" smooth="no"/>
      <point x="1507" y="268" type="line" smooth="no"/>
      <point x="1376" y="268" type="line" smooth="no"/>
      <point x="1376" y="86" type="line" smooth="no"/>
      <point x="1507" y="86" type="line" smooth="no"/>
    </contour>
    <contour>
      <point x="298" y="729" type="curve" smooth="yes"/>
      <point x="185" y="729"/>
      <point x="83" y="774"/>
      <point x="83" y="856" type="curve" smooth="yes"/>
      <point x="83" y="905"/>
      <point x="108" y="944"/>
      <point x="169" y="944" type="curve" smooth="yes"/>
      <point x="222" y="944"/>
      <point x="255" y="907"/>
      <point x="255" y="866" type="curve" smooth="yes"/>
      <point x="255" y="846"/>
      <point x="249" y="823"/>
      <point x="239" y="809" type="curve" smooth="no"/>
      <point x="262" y="805"/>
      <point x="282" y="803"/>
      <point x="300" y="803" type="curve" smooth="yes"/>
      <point x="432" y="803"/>
      <point x="511" y="892"/>
      <point x="511" y="995" type="curve" smooth="yes"/>
      <point x="511" y="1067"/>
      <point x="485" y="1147"/>
      <point x="352" y="1147" type="curve" smooth="yes"/>
      <point x="334" y="1147"/>
      <point x="313" y="1145"/>
      <point x="290" y="1141" type="curve" smooth="no"/>
      <point x="276" y="1217" type="line" smooth="no"/>
      <point x="409" y="1237"/>
      <point x="474" y="1296"/>
      <point x="474" y="1380" type="curve" smooth="yes"/>
      <point x="474" y="1464"/>
      <point x="407" y="1516"/>
      <point x="325" y="1516" type="curve" smooth="yes"/>
      <point x="278" y="1516"/>
      <point x="225" y="1497"/>
      <point x="180" y="1456" type="curve" smooth="no"/>
      <point x="215" y="1450"/>
      <point x="261" y="1429"/>
      <point x="261" y="1370" type="curve" smooth="yes"/>
      <point x="261" y="1319"/>
      <point x="218" y="1280"/>
      <point x="165" y="1280" type="curve" smooth="yes"/>
      <point x="96" y="1280"/>
      <point x="67" y="1334"/>
      <point x="67" y="1384" type="curve" smooth="yes"/>
      <point x="67" y="1480"/>
      <point x="185" y="1583"/>
      <point x="339" y="1583" type="curve" smooth="yes"/>
      <point x="517" y="1583"/>
      <point x="593" y="1483"/>
      <point x="593" y="1389" type="curve" smooth="yes"/>
      <point x="593" y="1305"/>
      <point x="526" y="1229"/>
      <point x="407" y="1206" type="curve" smooth="no"/>
      <point x="579" y="1206"/>
      <point x="659" y="1109"/>
      <point x="659" y="995" type="curve" smooth="yes"/>
      <point x="659" y="846"/>
      <point x="516" y="729"/>
    </contour>
    <contour>
      <point x="202" y="-2" type="line" smooth="no"/>
      <point x="1267" y="1479" type="line" smooth="no"/>
      <point x="1367" y="1419" type="line" smooth="no"/>
      <point x="302" y="-61" type="line" smooth="no"/>
    </contour>
  </outline>
</glyph>
<glyph name="AE" format="1">
  <advance width="2164"/>
  <unicode hex="00c6"/>
  <outline>
    <contour>
      <point x="618" y="137" type="line" smooth="no"/>
      <point x="618" y="0" type="line" smooth="no"/>
      <point x="0" y="0" type="line" smooth="no"/>
      <point x="0" y="137" type="line" smooth="no"/>
      <point x="180" y="137" type="line" smooth="no"/>
      <point x="874" y="1335" type="line" smooth="no"/>
      <point x="608" y="1335" type="line" smooth="no"/>
      <point x="608" y="1479" type="line" smooth="no"/>
      <point x="2073" y="1479" type="line" smooth="no"/>
      <point x="2073" y="899" type="line" smooth="no"/>
      <point x="1892" y="899" type="line" smooth="no"/>
      <point x="1892" y="1335" type="line" smooth="no"/>
      <point x="1276" y="1335" type="line" smooth="no"/>
      <point x="1276" y="813" type="line" smooth="no"/>
      <point x="1567" y="813" type="line" smooth="no"/>
      <point x="1567" y="1038" type="line" smooth="no"/>
      <point x="1700" y="1038" type="line" smooth="no"/>
      <point x="1700" y="424" type="line" smooth="no"/>
      <point x="1567" y="424" type="line" smooth="no"/>
      <point x="1567" y="698" type="line" smooth="no"/>
      <point x="1276" y="698" type="line" smooth="no"/>
      <point x="1276" y="137" type="line" smooth="no"/>
      <point x="1892" y="137" type="line" smooth="no"/>
      <point x="1892" y="571" type="line" smooth="no"/>
      <point x="2073" y="571" type="line" smooth="no"/>
      <point x="2073" y="0" type="line" smooth="no"/>
      <point x="874" y="0" type="line" smooth="no"/>
      <point x="874" y="137" type="line" smooth="no"/>
      <point x="1059" y="137" type="line" smooth="no"/>
      <point x="1059" y="504" type="line" smooth="no"/>
      <point x="598" y="504" type="line" smooth="no"/>
      <point x="401" y="137" type="line" smooth="no"/>
    </contour>
    <contour>
      <point x="668" y="631" type="line" smooth="no"/>
      <point x="1059" y="631" type="line" smooth="no"/>
      <point x="1059" y="1335" type="line" smooth="no"/>
    </contour>
  </outline>
</glyph>
<glyph name="Eth" format="1">
  <advance width="1613"/>
  <unicode hex="00d0"/>
  <outline>
    <contour>
      <point x="33" y="1362" type="line" smooth="no"/>
      <point x="33" y="1505" type="line" smooth="no"/>
      <point x="485" y="1505" type="line" smooth="yes"/>
      <point x="995" y="1505"/>
      <point x="1485" y="1348"/>
      <point x="1485" y="762" type="curve" smooth="yes"/>
      <point x="1485" y="219"/>
      <point x="1089" y="0"/>
      <point x="522" y="0" type="curve" smooth="yes"/>
      <point x="33" y="0" type="line" smooth="no"/>
      <point x="33" y="137" type="line" smooth="no"/>
      <point x="276" y="137" type="line" smooth="no"/>
      <point x="276" y="690" type="line" smooth="no"/>
      <point x="55" y="690" type="line" smooth="no"/>
      <point x="55" y="834" type="line" smooth="no"/>
      <point x="276" y="834" type="line" smooth="no"/>
      <point x="276" y="1362" type="line" smooth="no"/>
    </contour>
    <contour>
      <point x="512" y="137" type="line" smooth="no"/>
      <point x="911" y="137"/>
      <point x="1229" y="273"/>
      <point x="1229" y="762" type="curve" smooth="yes"/>
      <point x="1229" y="1270"/>
      <point x="883" y="1360"/>
      <point x="512" y="1360" type="curve" smooth="no"/>
      <point x="512" y="834" type="line" smooth="no"/>
      <point x="764" y="834" type="line" smooth="no"/>
      <point x="764" y="690" type="line" smooth="no"/>
      <point x="512" y="690" type="line" smooth="no"/>
    </contour>
  </outline>
</glyph>
<glyph name="multiply" format="1">
  <advance width="956"/>
  <unicode hex="00d7"/>
  <outline>
    <contour>
      <point x="476" y="666" type="line" smooth="no"/>
      <point x="739" y="930" type="line" smooth="no"/>
      <point x="842" y="829" type="line" smooth="no"/>
      <point x="577" y="565" type="line" smooth="no"/>
      <point x="842" y="301" type="line" smooth="no"/>
      <point x="739" y="197" type="line" smooth="no"/>
      <point x="475" y="462" type="line" smooth="no"/>
      <point x="211" y="199" type="line" smooth="no"/>
      <point x="109" y="299" type="line" smooth="no"/>
      <point x="373" y="564" type="line" smooth="no"/>
      <point x="109" y="829" type="line" smooth="no"/>
      <point x="209" y="932" type="line" smooth="no"/>
    </contour>
  </outline>
</glyph>
<glyph name="Oslash" format="1">
  <advance width="1589"/>
  <unicode hex="00d8"/>
  <outline>
    <contour>
      <point x="1137" y="1188" type="line" smooth="no"/>
      <point x="1060" y="1314"/>
      <point x="945" y="1399"/>
      <point x="795" y="1399" type="curve" smooth="yes"/>
      <point x="500" y="1399"/>
      <point x="340" y="1078"/>
      <point x="340" y="756" type="curve" smooth="yes"/>
      <point x="340" y="612"/>
      <point x="371" y="469"/>
      <point x="432" y="355" type="curve" smooth="no"/>
    </contour>
    <contour>
      <point x="1179" y="1107" type="curve" smooth="no"/>
      <point x="479" y="280" type="line" smooth="no"/>
      <point x="555" y="178"/>
      <point x="661" y="113"/>
      <point x="795" y="113" type="curve" smooth="yes"/>
      <point x="1090" y="113"/>
      <point x="1249" y="430"/>
      <point x="1249" y="752" type="curve" smooth="yes"/>
      <point x="1249" y="876"/>
      <point x="1225" y="1000"/>
    </contour>
    <contour>
      <point x="1432" y="1536" type="line" smooth="no"/>
      <point x="1497" y="1483" type="line" smooth="no"/>
      <point x="1331" y="1286" type="line" smooth="no"/>
      <point x="1448" y="1139"/>
      <point x="1505" y="945"/>
      <point x="1505" y="754" type="curve" smooth="yes"/>
      <point x="1505" y="369"/>
      <point x="1272" y="-27"/>
      <point x="795" y="-27" type="curve" smooth="yes"/>
      <point x="610" y="-27"/>
      <point x="462" y="32"/>
      <point x="350" y="127" type="curve" smooth="no"/>
      <point x="166" y="-90" type="line" smooth="no"/>
      <point x="100" y="-37" type="line" smooth="no"/>
      <point x="289" y="186" type="line" smooth="no"/>
      <point x="152" y="336"/>
      <point x="84" y="546"/>
      <point x="84" y="754" type="curve" smooth="yes"/>
      <point x="84" y="1137"/>
      <point x="316" y="1536"/>
      <point x="795" y="1536" type="curve" smooth="yes"/>
      <point x="999" y="1536"/>
      <point x="1158" y="1463"/>
      <point x="1274" y="1349" type="curve" smooth="no"/>
    </contour>
  </outline>
</glyph>
<glyph name="Thorn" format="1">
  <advance width="1382"/>
  <unicode hex="00de"/>
  <outline>
    <contour>
      <point x="1110" y="766" type="curve" smooth="yes"/>
      <point x="1110" y="1038"/>
      <point x="884" y="1024"/>
      <point x="616" y="1026" type="curve" smooth="no"/>
      <point x="549" y="1026" type="line" smooth="no"/>
      <point x="549" y="506" type="line" smooth="no"/>
      <point x="688" y="506" type="line" smooth="yes"/>
      <point x="901" y="506"/>
      <point x="1110" y="535"/>
    </contour>
    <contour>
      <point x="799" y="0" type="line" smooth="no"/>
      <point x="70" y="0" type="line" smooth="no"/>
      <point x="70" y="137" type="line" smooth="no"/>
      <point x="313" y="137" type="line" smooth="no"/>
      <point x="313" y="1335" type="line" smooth="no"/>
      <point x="70" y="1335" type="line" smooth="no"/>
      <point x="70" y="1479" type="line" smooth="no"/>
      <point x="778" y="1479" type="line" smooth="no"/>
      <point x="778" y="1335" type="line" smooth="no"/>
      <point x="549" y="1335" type="line" smooth="no"/>
      <point x="549" y="1169" type="line" smooth="no"/>
      <point x="684" y="1169" type="line" smooth="yes"/>
      <point x="924" y="1169"/>
      <point x="1352" y="1165"/>
      <point x="1352" y="774" type="curve" smooth="yes"/>
      <point x="1352" y="381"/>
      <point x="971" y="377"/>
      <point x="629" y="377" type="curve" smooth="yes"/>
      <point x="549" y="377" type="line" smooth="no"/>
      <point x="549" y="137" type="line" smooth="no"/>
      <point x="799" y="137" type="line" smooth="no"/>
    </contour>
  </outline>
</glyph>
<glyph name="germandbls" format="1">
  <advance width="1314"/>
  <unicode hex="00df"/>
  <outline>
    <contour>
      <point x="430" y="981" type="curve" smooth="yes"/>
      <point x="430" y="0" type="line" smooth="no"/>
      <point x="68" y="0" type="line" smooth="no"/>
      <point x="68" y="119" type="line" smooth="no"/>
      <point x="215" y="119" type="line" smooth="no"/>
      <point x="215" y="981" type="line" smooth="yes"/>
      <point x="215" y="1317"/>
      <point x="381" y="1489"/>
      <point x="672" y="1489" type="curve" smooth="yes"/>
      <point x="905" y="1489"/>
      <point x="1075" y="1382"/>
      <point x="1075" y="1130" type="curve" smooth="yes"/>
      <point x="1075" y="892"/>
      <point x="819" y="809"/>
      <point x="819" y="770" type="curve" smooth="yes"/>
      <point x="819" y="711"/>
      <point x="1241" y="661"/>
      <point x="1241" y="350" type="curve" smooth="yes"/>
      <point x="1241" y="24"/>
      <point x="809" y="0"/>
      <point x="561" y="0" type="curve" smooth="no"/>
      <point x="561" y="119" type="line" smooth="no"/>
      <point x="887" y="119"/>
      <point x="1026" y="194"/>
      <point x="1026" y="348" type="curve" smooth="yes"/>
      <point x="1026" y="612"/>
      <point x="627" y="605"/>
      <point x="627" y="766" type="curve" smooth="yes"/>
      <point x="627" y="931"/>
      <point x="891" y="981"/>
      <point x="891" y="1149" type="curve" smooth="yes"/>
      <point x="891" y="1280"/>
      <point x="807" y="1354"/>
      <point x="680" y="1354" type="curve" smooth="yes"/>
      <point x="508" y="1354"/>
      <point x="430" y="1212"/>
    </contour>
  </outline>
</glyph>
<glyph name="ae" format="1">
  <advance width="1728"/>
  <unicode hex="00e6"/>
  <outline>
    <contour>
      <point x="273" y="245" type="curve" smooth="yes"/>
      <point x="273" y="174"/>
      <point x="319" y="117"/>
      <point x="395" y="117" type="curve" smooth="yes"/>
      <point x="600" y="117"/>
      <point x="719" y="307"/>
      <point x="737" y="389" type="curve" smooth="no"/>
      <point x="737" y="414"/>
      <point x="733" y="508"/>
      <point x="733" y="508" type="curve" smooth="no"/>
      <point x="423" y="436"/>
      <point x="273" y="363"/>
    </contour>
    <contour>
      <point x="963" y="651" type="curve" smooth="no"/>
      <point x="1440" y="729" type="line" smooth="no"/>
      <point x="1440" y="860"/>
      <point x="1362" y="985"/>
      <point x="1239" y="985" type="curve" smooth="yes"/>
      <point x="1091" y="985"/>
      <point x="979" y="848"/>
    </contour>
    <contour>
      <point x="1673" y="334" type="line" smooth="no"/>
      <point x="1622" y="115"/>
      <point x="1463" y="-29"/>
      <point x="1234" y="-29" type="curve" smooth="yes"/>
      <point x="1028" y="-29"/>
      <point x="869" y="133"/>
      <point x="827" y="266" type="curve" smooth="no"/>
      <point x="749" y="104"/>
      <point x="588" y="-29"/>
      <point x="369" y="-29" type="curve" smooth="yes"/>
      <point x="209" y="-29"/>
      <point x="82" y="61"/>
      <point x="82" y="219" type="curve" smooth="yes"/>
      <point x="82" y="506"/>
      <point x="491" y="562"/>
      <point x="733" y="623" type="curve" smooth="no"/>
      <point x="733" y="772" type="line" smooth="yes"/>
      <point x="733" y="928"/>
      <point x="629" y="997"/>
      <point x="498" y="997" type="curve" smooth="yes"/>
      <point x="406" y="997"/>
      <point x="317" y="966"/>
      <point x="270" y="913" type="curve" smooth="no"/>
      <point x="360" y="913"/>
      <point x="414" y="856"/>
      <point x="414" y="797" type="curve" smooth="yes"/>
      <point x="414" y="711"/>
      <point x="338" y="655"/>
      <point x="264" y="655" type="curve" smooth="yes"/>
      <point x="190" y="655"/>
      <point x="117" y="709"/>
      <point x="117" y="834" type="curve" smooth="yes"/>
      <point x="117" y="984"/>
      <point x="303" y="1102"/>
      <point x="516" y="1102" type="curve" smooth="yes"/>
      <point x="657" y="1102"/>
      <point x="819" y="1065"/>
      <point x="891" y="913" type="curve" smooth="no"/>
      <point x="977" y="1049"/>
      <point x="1089" y="1104"/>
      <point x="1245" y="1104" type="curve" smooth="yes"/>
      <point x="1528" y="1104"/>
      <point x="1624" y="807"/>
      <point x="1624" y="643" type="curve" smooth="no"/>
      <point x="963" y="547" type="line" smooth="no"/>
      <point x="963" y="436"/>
      <point x="1030" y="123"/>
      <point x="1251" y="123" type="curve" smooth="yes"/>
      <point x="1380" y="123"/>
      <point x="1511" y="205"/>
      <point x="1556" y="371" type="curve" smooth="no"/>
    </contour>
  </outline>
</glyph>
<glyph name="eth" format="1">
  <advance width="1245"/>
  <unicode hex="00f0"/>
  <outline>
    <contour>
      <point x="246" y="1495" type="line" smooth="no"/>
      <point x="318" y="1511"/>
      <point x="388" y="1520"/>
      <point x="451" y="1520" type="curve" smooth="yes"/>
      <point x="621" y="1520"/>
      <point x="761" y="1464"/>
      <point x="870" y="1367" type="curve" smooth="no"/>
      <point x="1126" y="1487" type="line" smooth="no"/>
      <point x="1161" y="1403" type="line" smooth="no"/>
      <point x="937" y="1297" type="line" smooth="no"/>
      <point x="1069" y="1138"/>
      <point x="1137" y="908"/>
      <point x="1137" y="647" type="curve" smooth="yes"/>
      <point x="1137" y="147"/>
      <point x="910" y="-20"/>
      <point x="623" y="-20" type="curve" smooth="yes"/>
      <point x="258" y="-20"/>
      <point x="123" y="258"/>
      <point x="123" y="502" type="curve" smooth="yes"/>
      <point x="123" y="760"/>
      <point x="283" y="1016"/>
      <point x="612" y="1016" type="curve" smooth="yes"/>
      <point x="782" y="1016"/>
      <point x="848" y="930"/>
      <point x="891" y="897" type="curve" smooth="no"/>
      <point x="891" y="897"/>
      <point x="864" y="1069"/>
      <point x="754" y="1211" type="curve" smooth="no"/>
      <point x="547" y="1114" type="line" smooth="no"/>
      <point x="512" y="1198" type="line" smooth="no"/>
      <point x="689" y="1281" type="line" smooth="no"/>
      <point x="614" y="1348"/>
      <point x="513" y="1397"/>
      <point x="377" y="1397" type="curve" smooth="yes"/>
      <point x="342" y="1397"/>
      <point x="305" y="1392"/>
      <point x="266" y="1386" type="curve" smooth="no"/>
    </contour>
    <contour>
      <point x="913" y="598" type="curve" smooth="yes"/>
      <point x="913" y="783"/>
      <point x="803" y="879"/>
      <point x="623" y="879" type="curve" smooth="yes"/>
      <point x="463" y="879"/>
      <point x="352" y="694"/>
      <point x="352" y="489" type="curve" smooth="yes"/>
      <point x="352" y="280"/>
      <point x="432" y="104"/>
      <point x="629" y="104" type="curve" smooth="yes"/>
      <point x="832" y="104"/>
      <point x="913" y="272"/>
    </contour>
  </outline>
</glyph>
<glyph name="oslash" format="1">
  <advance width="1189"/>
  <unicode hex="00f8"/>
  <outline>
    <contour>
      <point x="857" y="760" type="curve" smooth="no"/>
      <point x="387" y="210" type="line" smooth="no"/>
      <point x="438" y="140"/>
      <point x="509" y="100"/>
      <point x="598" y="100" type="curve" smooth="yes"/>
      <point x="780" y="100"/>
      <point x="887" y="274"/>
      <point x="887" y="524" type="curve" smooth="yes"/>
      <point x="887" y="611"/>
      <point x="878" y="692"/>
    </contour>
    <contour>
      <point x="596" y="983" type="curve" smooth="yes"/>
      <point x="391" y="983"/>
      <point x="303" y="784"/>
      <point x="303" y="524" type="curve" smooth="yes"/>
      <point x="303" y="434"/>
      <point x="317" y="355"/>
      <point x="343" y="290" type="curve" smooth="no"/>
      <point x="820" y="848" type="line" smooth="no"/>
      <point x="773" y="932"/>
      <point x="700" y="983"/>
    </contour>
    <contour>
      <point x="1112" y="1190" type="line" smooth="no"/>
      <point x="1178" y="1137" type="line" smooth="no"/>
      <point x="994" y="921" type="line" smooth="no"/>
      <point x="1073" y="821"/>
      <point x="1116" y="687"/>
      <point x="1116" y="537" type="curve" smooth="yes"/>
      <point x="1116" y="222"/>
      <point x="924" y="-27"/>
      <point x="598" y="-27" type="curve" smooth="yes"/>
      <point x="468" y="-27"/>
      <point x="359" y="12"/>
      <point x="274" y="78" type="curve" smooth="no"/>
      <point x="113" y="-111" type="line" smooth="no"/>
      <point x="47" y="-57" type="line" smooth="no"/>
      <point x="212" y="136" type="line" smooth="no"/>
      <point x="123" y="237"/>
      <point x="74" y="378"/>
      <point x="74" y="537" type="curve" smooth="yes"/>
      <point x="74" y="856"/>
      <point x="268" y="1102"/>
      <point x="596" y="1102" type="curve" smooth="yes"/>
      <point x="735" y="1102"/>
      <point x="849" y="1058"/>
      <point x="935" y="983" type="curve" smooth="no"/>
    </contour>
  </outline>
</glyph>
<glyph name="thorn" format="1">
  <advance width="1275"/>
  <unicode hex="00fe"/>
  <outline>
    <contour>
      <point x="956" y="551" type="curve" smooth="yes"/>
      <point x="956" y="764"/>
      <point x="864" y="975"/>
      <point x="692" y="975" type="curve" smooth="yes"/>
      <point x="532" y="975"/>
      <point x="422" y="790"/>
      <point x="422" y="532" type="curve" smooth="yes"/>
      <point x="422" y="327"/>
      <point x="497" y="86"/>
      <point x="692" y="86" type="curve" smooth="yes"/>
      <point x="885" y="86"/>
      <point x="956" y="332"/>
    </contour>
    <contour>
      <point x="430" y="901" type="line" smooth="no"/>
      <point x="502" y="1032"/>
      <point x="616" y="1102"/>
      <point x="756" y="1102" type="curve" smooth="yes"/>
      <point x="1012" y="1102"/>
      <point x="1186" y="852"/>
      <point x="1186" y="539" type="curve" smooth="yes"/>
      <point x="1186" y="211"/>
      <point x="1014" y="-27"/>
      <point x="731" y="-27" type="curve" smooth="yes"/>
      <point x="612" y="-27"/>
      <point x="504" y="33"/>
      <point x="436" y="133" type="curve" smooth="no"/>
      <point x="436" y="-279" type="line" smooth="no"/>
      <point x="657" y="-279" type="line" smooth="no"/>
      <point x="657" y="-401" type="line" smooth="no"/>
      <point x="-14" y="-401" type="line" smooth="no"/>
      <point x="-14" y="-281" type="line" smooth="no"/>
      <point x="221" y="-281" type="line" smooth="no"/>
      <point x="221" y="1423" type="line" smooth="no"/>
      <point x="27" y="1423" type="line" smooth="no"/>
      <point x="27" y="1536" type="line" smooth="no"/>
      <point x="430" y="1536" type="line" smooth="no"/>
    </contour>
  </outline>
</glyph>
<glyph name="Dcroat" format="1">
  <advance width="1613"/>
  <unicode hex="0110"/>
  <outline>
    <contour>
      <point x="522" y="0" type="curve" smooth="yes"/>
      <point x="33" y="0" type="line" smooth="no"/>
      <point x="33" y="137" type="line" smooth="no"/>
      <point x="276" y="137" type="line" smooth="no"/>
      <point x="276" y="690" type="line" smooth="no"/>
      <point x="55" y="690" type="line" smooth="no"/>
      <point x="55" y="834" type="line" smooth="no"/>
      <point x="276" y="834" type="line" smooth="no"/>
      <point x="276" y="1362" type="line" smooth="no"/>
      <point x="33" y="1362" type="line" smooth="no"/>
      <point x="33" y="1505" type="line" smooth="no"/>
      <point x="485" y="1505" type="line" smooth="yes"/>
      <point x="995" y="1505"/>
      <point x="1485" y="1348"/>
      <point x="1485" y="762" type="curve" smooth="yes"/>
      <point x="1485" y="219"/>
      <point x="1089" y="0"/>
    </contour>
    <contour>
      <point x="512" y="137" type="line" smooth="no"/>
      <point x="911" y="137"/>
      <point x="1229" y="273"/>
      <point x="1229" y="762" type="curve" smooth="yes"/>
      <point x="1229" y="1270"/>
      <point x="883" y="1360"/>
      <point x="512" y="1360" type="curve" smooth="no"/>
      <point x="512" y="834" type="line" smooth="no"/>
      <point x="764" y="834" type="line" smooth="no"/>
      <point x="764" y="690" type="line" smooth="no"/>
      <point x="512" y="690" type="line" smooth="no"/>
    </contour>
  </outline>
</glyph>
<glyph name="Hbar" format="1">
  <advance width="1654"/>
  <unicode hex="0126"/>
  <outline>
    <contour>
      <point x="1143" y="1048" type="line" smooth="no"/>
      <point x="512" y="1048" type="line" smooth="no"/>
      <point x="512" y="852" type="line" smooth="no"/>
      <point x="1143" y="852" type="line" smooth="no"/>
    </contour>
    <contour>
      <point x="741" y="0" type="line" smooth="no"/>
      <point x="33" y="0" type="line" smooth="no"/>
      <point x="33" y="137" type="line" smooth="no"/>
      <point x="276" y="137" type="line" smooth="no"/>
      <point x="276" y="1048" type="line" smooth="no"/>
      <point x="173" y="1048" type="line" smooth="no"/>
      <point x="173" y="1166" type="line" smooth="no"/>
      <point x="276" y="1166" type="line" smooth="no"/>
      <point x="276" y="1362" type="line" smooth="no"/>
      <point x="33" y="1362" type="line" smooth="no"/>
      <point x="33" y="1505" type="line" smooth="no"/>
      <point x="741" y="1505" type="line" smooth="no"/>
      <point x="741" y="1362" type="line" smooth="no"/>
      <point x="512" y="1362" type="line" smooth="no"/>
      <point x="512" y="1166" type="line" smooth="no"/>
      <point x="1143" y="1166" type="line" smooth="no"/>
      <point x="1143" y="1362" type="line" smooth="no"/>
      <point x="911" y="1362" type="line" smooth="no"/>
      <point x="911" y="1505" type="line" smooth="no"/>
      <point x="1622" y="1505" type="line" smooth="no"/>
      <point x="1622" y="1362" type="line" smooth="no"/>
      <point x="1378" y="1362" type="line" smooth="no"/>
      <point x="1378" y="1166" type="line" smooth="no"/>
      <point x="1484" y="1166" type="line" smooth="no"/>
      <point x="1484" y="1048" type="line" smooth="no"/>
      <point x="1378" y="1048" type="line" smooth="no"/>
      <point x="1378" y="137" type="line" smooth="no"/>
      <point x="1622" y="137" type="line" smooth="no"/>
      <point x="1622" y="0" type="line" smooth="no"/>
      <point x="911" y="0" type="line" smooth="no"/>
      <point x="911" y="137" type="line" smooth="no"/>
      <point x="1143" y="137" type="line" smooth="no"/>
      <point x="1143" y="725" type="line" smooth="no"/>
      <point x="512" y="725" type="line" smooth="no"/>
      <point x="512" y="137" type="line" smooth="no"/>
      <point x="741" y="137" type="line" smooth="no"/>
    </contour>
  </outline>
</glyph>
<glyph name="dotlessi" format="1">
  <advance width="671"/>
  <unicode hex="0131"/>
  <outline>
    <contour>
      <point x="461" y="1073" type="line" smooth="no"/>
      <point x="461" y="117" type="line" smooth="no"/>
      <point x="657" y="117" type="line" smooth="no"/>
      <point x="657" y="0" type="line" smooth="no"/>
      <point x="53" y="0" type="line" smooth="no"/>
      <point x="53" y="117" type="line" smooth="no"/>
      <point x="246" y="117" type="line" smooth="no"/>
      <point x="246" y="961" type="line" smooth="no"/>
      <point x="51" y="961" type="line" smooth="no"/>
      <point x="51" y="1073" type="line" smooth="no"/>
    </contour>
  </outline>
</glyph>
<glyph name="kgreenlandic" format="1">
  <advance width="1308"/>
  <unicode hex="0138"/>
  <outline>
    <contour>
      <point x="1198" y="137" type="curve" smooth="yes"/>
      <point x="1236" y="137"/>
      <point x="1266" y="141"/>
      <point x="1303" y="158" type="curve" smooth="no"/>
      <point x="1331" y="23" type="line" smooth="no"/>
      <point x="1259" y="-18"/>
      <point x="1210" y="-20"/>
      <point x="1153" y="-20" type="curve" smooth="yes"/>
      <point x="1003" y="-20"/>
      <point x="912" y="68"/>
      <point x="829" y="199" type="curve" smooth="yes"/>
      <point x="621" y="526" type="line" smooth="no"/>
      <point x="463" y="393" type="line" smooth="no"/>
      <point x="463" y="117" type="line" smooth="no"/>
      <point x="633" y="117" type="line" smooth="no"/>
      <point x="633" y="0" type="line" smooth="no"/>
      <point x="45" y="0" type="line" smooth="no"/>
      <point x="45" y="117" type="line" smooth="no"/>
      <point x="248" y="117" type="line" smooth="no"/>
      <point x="248" y="950" type="line" smooth="no"/>
      <point x="45" y="950" type="line" smooth="no"/>
      <point x="45" y="1073" type="line" smooth="no"/>
      <point x="463" y="1073" type="line" smooth="no"/>
      <point x="463" y="547" type="line" smooth="no"/>
      <point x="897" y="956" type="line" smooth="no"/>
      <point x="692" y="956" type="line" smooth="no"/>
      <point x="692" y="1073" type="line" smooth="no"/>
      <point x="1292" y="1073" type="line" smooth="no"/>
      <point x="1292" y="956" type="line" smooth="no"/>
      <point x="1102" y="956" type="line" smooth="no"/>
      <point x="748" y="610" type="line" smooth="no"/>
      <point x="881" y="423"/>
      <point x="1024" y="137"/>
    </contour>
  </outline>
</glyph>
<glyph name="lslash" format="1">
  <advance width="708"/>
  <unicode hex="0142"/>
  <outline>
    <contour>
      <point x="37" y="0" type="line" smooth="no"/>
      <point x="37" y="117" type="line" smooth="no"/>
      <point x="260" y="117" type="line" smooth="no"/>
      <point x="260" y="738" type="line" smooth="no"/>
      <point x="61" y="649" type="line" smooth="no"/>
      <point x="61" y="797" type="line" smooth="no"/>
      <point x="260" y="886" type="line" smooth="no"/>
      <point x="260" y="1382" type="line" smooth="no"/>
      <point x="37" y="1382" type="line" smooth="no"/>
      <point x="37" y="1505" type="line" smooth="no"/>
      <point x="475" y="1505" type="line" smooth="no"/>
      <point x="475" y="982" type="line" smooth="no"/>
      <point x="677" y="1073" type="line" smooth="no"/>
      <point x="677" y="925" type="line" smooth="no"/>
      <point x="475" y="834" type="line" smooth="no"/>
      <point x="475" y="117" type="line" smooth="no"/>
      <point x="690" y="117" type="line" smooth="no"/>
      <point x="690" y="0" type="line" smooth="no"/>
    </contour>
  </outline>
</glyph>
<glyph name="OE" format="1">
  <advance width="2197"/>
  <unicode hex="0152"/>
  <outline>
    <contour>
      <point x="2087" y="571" type="line" smooth="no"/>
      <point x="2087" y="0" type="line" smooth="no"/>
      <point x="768" y="0" type="line" smooth="yes"/>
      <point x="401" y="0"/>
      <point x="84" y="266"/>
      <point x="84" y="741" type="curve" smooth="yes"/>
      <point x="84" y="1233"/>
      <point x="422" y="1479"/>
      <point x="772" y="1479" type="curve" smooth="yes"/>
      <point x="2087" y="1479" type="line" smooth="no"/>
      <point x="2087" y="899" type="line" smooth="no"/>
      <point x="1907" y="899" type="line" smooth="no"/>
      <point x="1907" y="1335" type="line" smooth="no"/>
      <point x="1268" y="1335" type="line" smooth="no"/>
      <point x="1268" y="813" type="line" smooth="no"/>
      <point x="1581" y="813" type="line" smooth="no"/>
      <point x="1581" y="1038" type="line" smooth="no"/>
      <point x="1714" y="1038" type="line" smooth="no"/>
      <point x="1714" y="424" type="line" smooth="no"/>
      <point x="1581" y="424" type="line" smooth="no"/>
      <point x="1581" y="698" type="line" smooth="no"/>
      <point x="1268" y="698" type="line" smooth="no"/>
      <point x="1268" y="137" type="line" smooth="no"/>
      <point x="1907" y="137" type="line" smooth="no"/>
      <point x="1907" y="571" type="line" smooth="no"/>
    </contour>
    <contour>
      <point x="340" y="743" type="curve" smooth="yes"/>
      <point x="340" y="360"/>
      <point x="534" y="137"/>
      <point x="774" y="137" type="curve" smooth="yes"/>
      <point x="1042" y="137" type="line" smooth="no"/>
      <point x="1042" y="1335" type="line" smooth="no"/>
      <point x="805" y="1335" type="line" smooth="yes"/>
      <point x="553" y="1335"/>
      <point x="340" y="1149"/>
    </contour>
  </outline>
</glyph>
<glyph name="oe" format="1">
  <advance width="1964"/>
  <unicode hex="0153"/>
  <outline>
    <contour>
      <point x="1124" y="659" type="curve" smooth="no"/>
      <point x="1668" y="659" type="line" smooth="no"/>
      <point x="1662" y="856"/>
      <point x="1547" y="985"/>
      <point x="1404" y="985" type="curve" smooth="yes"/>
      <point x="1259" y="985"/>
      <point x="1140" y="856"/>
    </contour>
    <contour>
      <point x="598" y="-27" type="curve" smooth="yes"/>
      <point x="270" y="-27"/>
      <point x="74" y="218"/>
      <point x="74" y="537" type="curve" smooth="yes"/>
      <point x="74" y="856"/>
      <point x="268" y="1102"/>
      <point x="596" y="1102" type="curve" smooth="yes"/>
      <point x="777" y="1102"/>
      <point x="916" y="1027"/>
      <point x="1005" y="907" type="curve" smooth="no"/>
      <point x="1091" y="1025"/>
      <point x="1224" y="1104"/>
      <point x="1398" y="1104" type="curve" smooth="yes"/>
      <point x="1668" y="1104"/>
      <point x="1882" y="911"/>
      <point x="1888" y="551" type="curve" smooth="no"/>
      <point x="1117" y="551" type="line" smooth="no"/>
      <point x="1117" y="543" type="line" smooth="yes"/>
      <point x="1117" y="321"/>
      <point x="1211" y="123"/>
      <point x="1431" y="123" type="curve" smooth="yes"/>
      <point x="1560" y="123"/>
      <point x="1705" y="205"/>
      <point x="1750" y="371" type="curve" smooth="no"/>
      <point x="1867" y="334" type="line" smooth="no"/>
      <point x="1816" y="117"/>
      <point x="1652" y="-29"/>
      <point x="1410" y="-29" type="curve" smooth="yes"/>
      <point x="1228" y="-29"/>
      <point x="1091" y="50"/>
      <point x="1003" y="166" type="curve" smooth="no"/>
      <point x="914" y="47"/>
      <point x="776" y="-27"/>
    </contour>
    <contour>
      <point x="596" y="983" type="curve" smooth="yes"/>
      <point x="391" y="983"/>
      <point x="303" y="784"/>
      <point x="303" y="524" type="curve" smooth="yes"/>
      <point x="303" y="270"/>
      <point x="414" y="100"/>
      <point x="598" y="100" type="curve" smooth="yes"/>
      <point x="780" y="100"/>
      <point x="887" y="274"/>
      <point x="887" y="524" type="curve" smooth="yes"/>
      <point x="887" y="784"/>
      <point x="801" y="983"/>
    </contour>
  </outline>
</glyph>
<glyph name="florin" format="1">
  <advance width="786"/>
  <unicode hex="0192"/>
  <outline>
    <contour>
      <point x="715" y="1364" type="curve" smooth="yes"/>
      <point x="715" y="1414"/>
      <point x="743" y="1456"/>
      <point x="773" y="1489" type="curve" smooth="no"/>
      <point x="751" y="1496"/>
      <point x="726" y="1499"/>
      <point x="704" y="1499" type="curve" smooth="yes"/>
      <point x="587" y="1499"/>
      <point x="555" y="1407"/>
      <point x="532" y="1223" type="curve" smooth="yes"/>
      <point x="513" y="1073" type="line" smooth="no"/>
      <point x="840" y="1073" type="line" smooth="no"/>
      <point x="818" y="956" type="line" smooth="no"/>
      <point x="505" y="956" type="line" smooth="no"/>
      <point x="402" y="116" type="line" smooth="yes"/>
      <point x="360" y="-221"/>
      <point x="263" y="-389"/>
      <point x="-17" y="-389" type="curve" smooth="yes"/>
      <point x="-232" y="-389"/>
      <point x="-315" y="-298"/>
      <point x="-315" y="-203" type="curve" smooth="yes"/>
      <point x="-315" y="-82"/>
      <point x="-229" y="-30"/>
      <point x="-145" y="-30" type="curve" smooth="yes"/>
      <point x="-80" y="-30"/>
      <point x="-21" y="-70"/>
      <point x="-21" y="-140" type="curve" smooth="yes"/>
      <point x="-21" y="-205"/>
      <point x="-67" y="-261"/>
      <point x="-105" y="-292" type="curve" smooth="no"/>
      <point x="-85" y="-300"/>
      <point x="-62" y="-305"/>
      <point x="-37" y="-305" type="curve" smooth="yes"/>
      <point x="80" y="-305"/>
      <point x="144" y="-233"/>
      <point x="167" y="-49" type="curve" smooth="yes"/>
      <point x="290" y="956" type="line" smooth="no"/>
      <point x="95" y="956" type="line" smooth="no"/>
      <point x="109" y="1073" type="line" smooth="no"/>
      <point x="304" y="1073" type="line" smooth="no"/>
      <point x="346" y="1418"/>
      <point x="442" y="1583"/>
      <point x="727" y="1583" type="curve" smooth="yes"/>
      <point x="909" y="1583"/>
      <point x="1004" y="1507"/>
      <point x="1004" y="1411" type="curve" smooth="yes"/>
      <point x="1004" y="1291"/>
      <point x="918" y="1246"/>
      <point x="835" y="1246" type="curve" smooth="yes"/>
      <point x="770" y="1246"/>
      <point x="715" y="1294"/>
    </contour>
  </outline>
</glyph>
<glyph name="dotlessj" format="1">
  <advance width="665"/>
  <unicode hex="0237"/>
  <outline>
    <contour>
      <point x="160" y="-471" type="line" smooth="yes"/>
      <point x="-41" y="-471"/>
      <point x="-143" y="-387"/>
      <point x="-143" y="-254" type="curve" smooth="yes"/>
      <point x="-143" y="-160"/>
      <point x="-68" y="-113"/>
      <point x="2" y="-113" type="curve" smooth="yes"/>
      <point x="61" y="-113"/>
      <point x="119" y="-149"/>
      <point x="119" y="-223" type="curve" smooth="yes"/>
      <point x="119" y="-268"/>
      <point x="108" y="-330"/>
      <point x="61" y="-350" type="curve" smooth="no"/>
      <point x="61" y="-350"/>
      <point x="94" y="-362"/>
      <point x="133" y="-362" type="curve" smooth="yes"/>
      <point x="203" y="-362"/>
      <point x="297" y="-326"/>
      <point x="297" y="-121" type="curve" smooth="yes"/>
      <point x="297" y="956" type="line" smooth="no"/>
      <point x="53" y="956" type="line" smooth="no"/>
      <point x="53" y="1073" type="line" smooth="no"/>
      <point x="512" y="1073" type="line" smooth="no"/>
      <point x="512" y="-90" type="line" smooth="yes"/>
      <point x="512" y="-340"/>
      <point x="365" y="-469"/>
      <point x="168" y="-471" type="curve" smooth="no"/>
    </contour>
  </outline>
</glyph>
